<?xml version="1.0" encoding="utf-8"?>
<!-- Generator: Adobe Illustrator 21.0.0, SVG Export Plug-In . SVG Version: 6.00 Build 0)  -->
<svg version="1.1" xmlns="http://www.w3.org/2000/svg" xmlns:xlink="http://www.w3.org/1999/xlink" x="0px" y="0px"
	 viewBox="0 0 500 500" style="enable-background:new 0 0 500 500;" xml:space="preserve">
<style type="text/css">
	.st0{fill:#BED8F5;}
	.st1{fill:#5B80B9;}
	.st2{fill:none;stroke:#5B80B9;stroke-width:2.1471;stroke-linecap:round;stroke-linejoin:round;stroke-dasharray:5.3677,7.5148;}
	.st3{fill:none;stroke:#5B80B9;stroke-width:2.0634;stroke-linecap:round;stroke-linejoin:round;stroke-miterlimit:10;}
	.st4{fill:#FFFFFF;stroke:#5B80B9;stroke-width:2.0634;stroke-linecap:round;stroke-linejoin:round;stroke-miterlimit:10;}
	.st5{font-family:'!PaulMaul-Bold';}
	.st6{font-size:10.6377px;}
</style>
<g id="BACKGROUND">
</g>
<g id="OBJECTS">
	<g>
		<g>
			<path class="st0" d="M294.8,130.5c6-2.3,7.3-7.5,7.9-13c0.4-3.6-0.6-7-2.5-10.3c0.1,0,0.1,0,0.2,0c-3.2-3-11.4-6.6-11.3-6.2
				c-1.6-0.1-3.2-0.4-4.7-0.2c-5.2,0.8-9.6,3.1-12.5,7.6c-1.8,2.8-2.9,6.1-1.8,9.3c1.5,4.2,3.5,8.2,7.3,11c1,0.7,2.2,1.4,2.9,1.8
				C284.8,132.8,294.6,130.6,294.8,130.5z M274.2,122.7c-0.5-1-1-2-1.6-2.9c-2-3.8-1.7-7.9,1.1-11.1c1.5-1.7,3.1-3.3,4.8-4.6
				c2.3-1.7,5.2-1.6,8-1.7c3.9-0.1,7.3,1.6,10.2,3.9c4,3.3,5,7.9,4.3,12.8c-0.1,0.8-0.3,1.6-0.7,2.4c-1.2,2.7-1.9,5.7-5.1,6.9
				c-4.4,1.7-8.9,2.6-13.5,0.8C278.5,127.9,275.9,125.8,274.2,122.7z"/>
			<path class="st0" d="M285.2,117.1c-0.4-0.3-0.6-0.5-0.7-0.6c-3.5-1.4-4.1-3.9-1.4-6.7c0.6-0.6,1.3-1,1.8-1.7
				c0.4-0.6,0.6-1.5,1.1-2.8c0.6,1.2,1,1.9,1.3,2.6c1.6,0.6,3.2,1.1,4.7,1.7c0.2,0.1,0.3,0.6,0.8,1.5c-2.1-0.6-3.7-1-5.7-1.5
				c0,1.9,0,3.4,0,5c0.5,0.1,1.1,0.3,1.6,0.4c2.1,0.4,3.1,1.4,3.3,3.1c0.2,1.8-0.4,2.7-2.5,3.5c-2.2,1-2.2,1-3.2,3.4
				c-0.5-1-0.9-1.7-1.3-2.4c-3.7-0.8-4.5-0.5-3.2-3.9c0.3,0.4,0.7,0.6,0.8,1c0.2,0.8,0.7,1.2,1.4,0.9c0.5-0.2,1-0.8,1.1-1.3
				C285.4,118.6,285.2,117.7,285.2,117.1z M287.1,120.4c2.5-0.2,3.5-0.8,3.5-1.9c0-1.3-1.3-2-3.5-1.7
				C287.1,117.9,287.1,119.1,287.1,120.4z M285,110.6c-1.5,0.8-2.1,1.8-1.9,3.1c0.1,0.5,0.9,0.9,1.9,1.7
				C285,113.5,285,112.2,285,110.6z"/>
		</g>
	</g>
	<g>
		<g>
			<path class="st0" d="M308.7,388c4.8-1.9,5.8-6,6.3-10.5c0.3-2.9-0.5-5.6-2-8.3c0,0,0.1,0,0.1,0c-2.6-2.4-9.2-5.3-9.1-5
				c-1.3-0.1-2.6-0.3-3.8-0.2c-4.1,0.7-7.7,2.5-10,6.1c-1.5,2.2-2.3,4.9-1.4,7.5c1.2,3.4,2.8,6.6,5.9,8.8c0.8,0.6,1.7,1.1,2.3,1.5
				C300.7,389.8,308.6,388.1,308.7,388z M292.2,381.7c-0.4-0.8-0.8-1.6-1.3-2.4c-1.6-3-1.4-6.3,0.9-8.9c1.2-1.3,2.5-2.6,3.9-3.7
				c1.9-1.4,4.2-1.3,6.4-1.4c3.2-0.1,5.9,1.3,8.2,3.2c3.2,2.6,4,6.3,3.4,10.3c-0.1,0.7-0.3,1.3-0.5,1.9c-0.9,2.2-1.5,4.6-4.1,5.6
				c-3.6,1.4-7.2,2.1-10.9,0.6C295.6,386,293.5,384.3,292.2,381.7z"/>
			<path class="st0" d="M301,377.3c-0.4-0.3-0.5-0.4-0.6-0.4c-2.8-1.1-3.3-3.2-1.1-5.4c0.5-0.5,1.1-0.8,1.4-1.4
				c0.4-0.5,0.5-1.2,0.8-2.2c0.5,0.9,0.8,1.5,1,2.1c1.3,0.5,2.6,0.9,3.8,1.4c0.2,0.1,0.3,0.5,0.6,1.2c-1.7-0.5-3-0.8-4.6-1.2
				c0,1.5,0,2.7,0,4c0.4,0.1,0.9,0.2,1.3,0.3c1.7,0.3,2.5,1.1,2.7,2.5c0.1,1.4-0.3,2.1-2,2.8c-1.8,0.8-1.8,0.8-2.6,2.7
				c-0.4-0.8-0.7-1.4-1-1.9c-3-0.6-3.7-0.4-2.6-3.1c0.3,0.3,0.6,0.5,0.6,0.8c0.1,0.7,0.6,1,1.1,0.7c0.4-0.2,0.8-0.7,0.9-1.1
				C301.1,378.4,301,377.7,301,377.3z M302.5,379.9c2-0.2,2.8-0.7,2.8-1.5c0-1.1-1-1.6-2.8-1.4C302.5,377.9,302.5,378.8,302.5,379.9
				z M300.9,372c-1.2,0.7-1.7,1.5-1.5,2.5c0.1,0.4,0.7,0.7,1.5,1.4C300.9,374.3,300.9,373.3,300.9,372z"/>
		</g>
	</g>
	<g>
		<path class="st1" d="M259.8,295.8c4.8-1.9,5.8-6,6.3-10.5c0.3-2.9-0.5-5.6-2-8.3c0,0,0.1,0,0.1,0c-2.6-2.4-9.2-5.3-9.1-5
			c-1.3-0.1-2.6-0.3-3.8-0.2c-4.1,0.7-7.7,2.5-10,6.1c-1.5,2.2-2.3,4.9-1.4,7.5c1.2,3.4,2.8,6.6,5.9,8.8c0.8,0.6,1.7,1.1,2.3,1.5
			C251.7,297.6,259.6,295.9,259.8,295.8z M243.2,289.5c-0.4-0.8-0.8-1.6-1.3-2.4c-1.6-3-1.4-6.3,0.9-8.9c1.2-1.3,2.5-2.6,3.9-3.7
			c1.9-1.4,4.2-1.3,6.4-1.4c3.2-0.1,5.9,1.3,8.2,3.2c3.2,2.6,4,6.3,3.4,10.3c-0.1,0.7-0.3,1.3-0.5,1.9c-0.9,2.2-1.5,4.6-4.1,5.6
			c-3.6,1.4-7.2,2.1-10.9,0.6C246.7,293.8,244.6,292.1,243.2,289.5z"/>
		<path class="st1" d="M252.1,285.1c-0.4-0.3-0.5-0.4-0.6-0.4c-2.8-1.1-3.3-3.2-1.1-5.4c0.5-0.5,1.1-0.8,1.4-1.4
			c0.4-0.5,0.5-1.2,0.8-2.2c0.5,0.9,0.8,1.5,1,2.1c1.3,0.5,2.6,0.9,3.8,1.4c0.2,0.1,0.3,0.5,0.6,1.2c-1.7-0.5-3-0.8-4.6-1.2
			c0,1.5,0,2.7,0,4c0.4,0.1,0.9,0.2,1.3,0.3c1.7,0.3,2.5,1.1,2.7,2.5c0.1,1.4-0.3,2.1-2,2.8c-1.8,0.8-1.8,0.8-2.6,2.7
			c-0.4-0.8-0.7-1.4-1-1.9c-3-0.6-3.7-0.4-2.6-3.1c0.3,0.3,0.6,0.5,0.6,0.8c0.1,0.7,0.6,1,1.1,0.7c0.4-0.2,0.8-0.7,0.9-1.1
			C252.2,286.2,252.1,285.5,252.1,285.1z M253.6,287.7c2-0.2,2.8-0.7,2.8-1.5c0-1.1-1-1.6-2.8-1.4
			C253.6,285.7,253.6,286.6,253.6,287.7z M251.9,279.8c-1.2,0.7-1.7,1.5-1.5,2.5c0.1,0.4,0.7,0.7,1.5,1.4
			C251.9,282.1,251.9,281.1,251.9,279.8z"/>
	</g>
	<g>
		<path class="st0" d="M307.9,243.1c3.7-1.5,4.5-4.7,4.9-8.1c0.3-2.3-0.4-4.4-1.6-6.4c0,0,0.1,0,0.1,0c-2-1.9-7.1-4.1-7-3.9
			c-1-0.1-2-0.3-3-0.1c-3.2,0.5-6,2-7.8,4.7c-1.1,1.7-1.8,3.8-1.1,5.8c0.9,2.6,2.2,5.1,4.6,6.9c0.7,0.5,1.3,0.9,1.8,1.2
			C301.6,244.5,307.8,243.2,307.9,243.1z M295,238.2c-0.3-0.6-0.7-1.2-1-1.8c-1.3-2.4-1.1-4.9,0.7-6.9c0.9-1,1.9-2,3-2.9
			c1.5-1.1,3.3-1,5-1.1c2.5,0,4.6,1,6.4,2.5c2.5,2.1,3.1,4.9,2.7,8c-0.1,0.5-0.2,1-0.4,1.5c-0.7,1.7-1.2,3.6-3.2,4.3
			c-2.8,1.1-5.6,1.6-8.5,0.5C297.7,241.5,296.1,240.2,295,238.2z"/>
		<path class="st0" d="M301.9,234.8c-0.3-0.2-0.4-0.3-0.5-0.3c-2.2-0.9-2.6-2.5-0.9-4.2c0.4-0.4,0.8-0.7,1.1-1.1
			c0.3-0.4,0.4-0.9,0.7-1.7c0.4,0.7,0.6,1.2,0.8,1.6c1,0.4,2,0.7,3,1.1c0.1,0.1,0.2,0.4,0.5,0.9c-1.3-0.4-2.3-0.6-3.5-0.9
			c0,1.2,0,2.1,0,3.1c0.3,0.1,0.7,0.2,1,0.2c1.3,0.2,2,0.9,2.1,2c0.1,1.1-0.3,1.7-1.5,2.2c-1.4,0.6-1.4,0.6-2,2.1
			c-0.3-0.6-0.5-1.1-0.8-1.5c-2.3-0.5-2.8-0.3-2-2.4c0.2,0.2,0.5,0.4,0.5,0.6c0.1,0.5,0.4,0.8,0.9,0.6c0.3-0.1,0.6-0.5,0.7-0.8
			C302,235.7,301.9,235.1,301.9,234.8z M303.1,236.8c1.6-0.1,2.2-0.5,2.2-1.2c0-0.8-0.8-1.2-2.2-1.1
			C303.1,235.3,303.1,236,303.1,236.8z M301.8,230.7c-0.9,0.5-1.3,1.1-1.2,1.9c0.1,0.3,0.6,0.5,1.2,1.1
			C301.8,232.5,301.8,231.7,301.8,230.7z"/>
	</g>
	<g>
		<g>
			<path class="st0" d="M97.5,111.3c4.8-1.9,5.8-6,6.3-10.5c0.3-2.9-0.5-5.6-2-8.3c0,0,0.1,0,0.1,0c-2.6-2.4-9.2-5.3-9.1-5
				c-1.3-0.1-2.6-0.3-3.8-0.2c-4.1,0.7-7.7,2.5-10,6.1c-1.5,2.2-2.3,4.9-1.4,7.5c1.2,3.4,2.8,6.6,5.9,8.8c0.8,0.6,1.7,1.1,2.3,1.5
				C89.5,113.2,97.4,111.4,97.5,111.3z M81,105c-0.4-0.8-0.8-1.6-1.3-2.4c-1.6-3-1.4-6.3,0.9-8.9c1.2-1.3,2.5-2.6,3.9-3.7
				c1.9-1.4,4.2-1.3,6.4-1.4c3.2-0.1,5.9,1.3,8.2,3.2c3.2,2.6,4,6.3,3.4,10.3c-0.1,0.7-0.3,1.3-0.5,1.9c-0.9,2.2-1.5,4.6-4.1,5.6
				c-3.6,1.4-7.2,2.1-10.9,0.6C84.4,109.3,82.3,107.6,81,105z"/>
			<path class="st0" d="M89.9,100.6c-0.4-0.3-0.5-0.4-0.6-0.4C86.4,99,86,97,88.1,94.7c0.5-0.5,1.1-0.8,1.4-1.4
				c0.4-0.5,0.5-1.2,0.8-2.2c0.5,0.9,0.8,1.5,1,2.1c1.3,0.5,2.6,0.9,3.8,1.4c0.2,0.1,0.3,0.5,0.6,1.2c-1.7-0.5-3-0.8-4.6-1.2
				c0,1.5,0,2.7,0,4c0.4,0.1,0.9,0.2,1.3,0.3c1.7,0.3,2.5,1.1,2.7,2.5c0.1,1.4-0.3,2.1-2,2.8c-1.8,0.8-1.8,0.8-2.6,2.7
				c-0.4-0.8-0.7-1.4-1-1.9c-3-0.6-3.7-0.4-2.6-3.1c0.3,0.3,0.6,0.5,0.6,0.8c0.1,0.7,0.6,1,1.1,0.7c0.4-0.2,0.8-0.7,0.9-1.1
				C90,101.7,89.9,101.1,89.9,100.6z M91.3,103.2c2-0.2,2.8-0.7,2.8-1.5c0-1.1-1-1.6-2.8-1.4C91.3,101.2,91.3,102.1,91.3,103.2z
				 M89.7,95.4c-1.2,0.7-1.7,1.5-1.5,2.5c0.1,0.4,0.7,0.7,1.5,1.4C89.7,97.6,89.7,96.7,89.7,95.4z"/>
		</g>
	</g>
	<g>
		<g>
			<path class="st2" d="M348,449c-24.1-3.1-46.3-15.7-59.4-33.5c-13.1-17.8-16.8-40.6-9.9-60.9c7.5-22.1,27.1-41.9,25.3-65
				c-1.6-21.4-22.3-39-45.6-46.3c-23.3-7.3-48.8-6.3-73.5-4.7c-24.7,1.7-49.8,4-73.9-0.9c-16.3-3.3-34-12.6-34.9-27.1
				c-0.6-9.3,6.3-18.1,15.3-23c8.5-4.6,18.7-6.4,28.8-7"/>
			<g>
				<path class="st1" d="M109.9,189.3c-0.3-0.4-0.2-0.9,0.2-1.1l9.8-7.4L109,175c-0.4-0.2-0.5-0.7-0.3-1.1c0.2-0.4,0.7-0.5,1.1-0.3
					l12,6.4c0.2,0.1,0.4,0.4,0.4,0.6s-0.1,0.5-0.3,0.7l-10.9,8.2c-0.1,0.1-0.3,0.1-0.4,0.2C110.3,189.6,110.1,189.5,109.9,189.3z"/>
			</g>
		</g>
	</g>
	<g>
		<g>
			<path class="st1" d="M413.2,169.5c0.1,3.2,0.2,6.1,0.1,9c-0.1,3.7-0.4,7.4-0.8,11c-0.5,4.8-1.2,9.5-1.8,14.2
				c-0.2,1.5-1,2.2-2.3,2.3c-4.9,0.3-9.9,0.9-14.9,0.8c-5.6-0.1-11.2-0.8-16.8-1.3c-6.4-0.6-12.8-1.3-19.3-1.8
				c-6.8-0.6-13.6-1.1-20.4-1.6c-8.2-0.5-16.3-1.1-24.5-1.4c-3.9-0.1-7.9,0.2-11.9,0.5c-4,0.3-8,0.9-12.1,1.4
				c-0.4,0-0.7,0.2-1.2,0.3c0,1.1,0,2.2-0.1,3.5c-5.8-0.1-11.6,1.6-17.2-1.3c-0.4-11.7-0.7-23.5-1.1-35.5c-1.4-0.4-2.9-0.8-4.4-1.3
				c-2.3-0.8-4.3-2-6.1-3.7c-5.2-4.9-11.1-8.2-18.3-8.8c-1.1-0.1-2.2-0.2-3.3-0.3c-1.5-0.1-3-0.3-4.5,0.5c-1.2,0.6-2.7,0.6-4.1,0.6
				c-2.8,0.1-4.9-1.1-6.4-3.8c-0.9,1.5-0.6,2.6,0.2,3.3c1,0.9,2.1,1.9,3.3,2.3c2.1,0.8,4.4,1.2,6.6,1.8c1.6,0.4,3.3,0.5,4.7,2.2
				c-1.1,0.6-1.9,1.2-2.7,1.4c-1.2,0.2-2.6,0.3-3.8,0.1c-4.2-0.5-8.4-1.1-12.6-1.7c-4.2-0.7-8.4-1-12.7-0.8
				c-3.8,0.2-7.5,0.2-11.2,1.1c-0.9,0.2-1.7,0.4-2.6,1c1,0.3,2,0.5,3,0.8c2,0.7,2.6,1.5,2.4,3.2c-0.2,1.6-1.1,2.4-3.1,2.5
				c-0.6,0.1-1.3,0-2,0.5c0.7,0.2,1.4,0.6,2,0.7c4.3,0.4,8.6,0.9,12.9,1.1c2.7,0.2,5.5,0.1,8.3,0c2.3-0.1,4.6-0.3,6.9-0.6
				c1.7-0.2,3.4-0.3,5,0.5c-0.1,1.3-1.1,1.2-1.8,1.3c-2.1,0.3-4.2,0.5-6.3,0.9c-1.1,0.2-2.2,0.6-3.1,1.1c-2,1.2-2.1,3-0.2,4.4
				c2,1.4,4.1,2.4,6.6,2.6c2.3,0.2,4.6,0.3,6.9,0.5c0.6,0,1.2,0.2,1.8,0.8c-0.5,0.2-1,0.6-1.5,0.7c-2.5,0.4-5.1,0.7-7.6,1.3
				c-1.4,0.3-2.8,1.1-3.9,1.9c-1.4,1.1-1.4,2.5,0,3.5c1.6,1,3.4,1.9,5.2,2.4c1.9,0.5,4,0.3,6,0.5c0.6,0.1,1.2,0.3,1.8,1
				c-0.6,0.2-1.2,0.4-1.8,0.6c-2,0.5-4.1,0.9-6.1,1.5c-1.1,0.4-2.3,1.1-2.2,2.5c0.1,1.3,1,2.1,2.1,2.7c2.6,1.4,5.5,1.3,8.4,1.5
				c7.6,0.5,14.8-1.4,22.1-3.1c2.3-0.6,4.4-1.8,6.7-2.6c2.6-0.9,5.3-1.6,8-2.3c0.4-0.1,0.9,0.1,1.5,0.7c-0.6,0.3-1.1,0.8-1.8,0.9
				c-4.2,0.9-8,2.9-12,4.1c-10.1,3.1-20.4,5-31,3c-1-0.2-1.9-0.6-2.8-1.1c-3.6-2-3.8-4.8-0.5-7.3c0.3-0.2,0.6-0.4,1.2-0.7
				c-1.7-0.8-3.2-1.5-4.6-2.2c-4.2-2.2-3-6.2,0-7.7c0.4-0.2,0.8-0.4,1.2-0.7c0.3-0.2,0.6-0.4,1.3-0.8c-1.2-0.5-2.2-1-3.1-1.4
				c-4.7-2.2-5.3-3.5-3.4-8.6c-1.4-0.1-2.7-0.3-4-0.4c-4.9-0.3-9.8-0.3-14.6-0.8c-2.2-0.2-4.4-1.2-6.5-2.2c-3.4-1.7-3.6-6.6,0.1-8.1
				c2.4-0.9,4.9-1.7,7.4-2.1c6.8-0.9,13.6-1.2,20.4-0.2c4.6,0.6,9.1,1.3,13.7,1.9c0.9,0.1,1.8,0.1,2.8-0.3c-0.7-0.2-1.5-0.4-2.2-0.6
				c-2.2-0.6-4.5-1.1-6.6-2c-2.1-0.9-4.1-2.3-4-5.1c0.1-4.4,3.4-6.7,7.9-4.4c1.4,0.7,2.7,1.5,4,2.4c1.9,1.2,4,1.8,6.3,1.9
				c2.2,0.2,4.4,0.4,6.6,0.8c5.7,1.2,10.5,4.3,14.8,8.2c3.3,3,5.9,4.2,10.1,3.9c-0.1-1.5-0.2-3-0.2-4.5c0-1.7,0.3-2.2,2.1-2.3
				c5-0.4,10.1-0.7,15.6-1c-0.5,2.8-1.7,5.3-0.5,8.3c0.7,0.1,1.6,0.3,2.4,0.2c7.8-0.1,15.6-0.3,23.5-0.5c1.2,0,2.4,0,3.6,0.1
				c2,0.2,4,0.4,6.1,0.6c7.2,0.9,14.5,1.4,21.8,1c3.7-0.2,7.4,0.1,11,0.4c7.2,0.6,14.3,1.7,21.5,1.5c5.6-0.1,11.2,0.4,16.8,0.2
				c5.8-0.2,11.5-0.9,17.3-1.4C411.2,169.7,412,169.6,413.2,169.5z M287.3,201c3.2-0.3,6.1-0.6,9-0.9c9.7-1.1,19.5-0.9,29.2-0.3
				c7.6,0.5,15.2,1.2,22.8,1.8c11.2,1,22.4,1.9,33.6,3c8.2,0.8,16.3,1.5,24.5,0.2c2.7-0.4,2.8-0.3,3.1-2.9
				c0.8-7.6,1.6-15.2,2.4-22.8c0.2-2.5,0-5.1-0.5-7.7c-1.2,0.1-2.2,0.3-3.2,0.4c-5.8,0.4-11.6,0.8-17.3,1.1c-3,0.1-6.1-0.4-9.1-0.3
				c-9.4,0.3-18.8-0.4-28.1-1.5c-2.4-0.3-4.8-0.4-7.2-0.4c-7.3,0-14.5,0.3-21.8-0.8c-6.7-1-13.4-1-20.1-0.5
				c-5.1,0.4-10.3,0.1-15.4,0.1c-2.5,0-3.1,0.5-3.1,3c0,1.8,0.1,3.7,0.2,5.5c0.2,4.6,0.4,9.2,0.6,13.8
				C287.1,194.6,287.2,197.6,287.3,201z M285.9,204.5c-0.6-14.5-1.1-28.9-1.7-43.6c-4.3,0.3-8.7,0.6-13.2,1c0,2.1,0.2,3.8,0,5.5
				c-0.4,5.4-0.8,10.8,0.3,16.2c0.1,0.6,0.1,1.3,0.1,1.9c-0.3,5.4-0.4,10.8,0.5,16.2c0.4,2.5,0.5,2.7,2.9,3.1
				C278.3,205.6,281.8,205.1,285.9,204.5z M187.8,165.1c-0.6,2.3-0.5,2.5,0.9,2.8c1.4,0.3,2.9,0.5,4.3,0.5c0.7,0,1.4-0.5,2.4-0.9
				C193.1,164.8,190.4,165.6,187.8,165.1z M223.7,150.8c0.4,3.8,3.4,5.1,8.2,3.2C228.9,153.1,227.2,150.4,223.7,150.8z"/>
			<path class="st1" d="M238.1,176.8c-0.9-0.7-1.7-1.2-2.5-1.7c1.9-0.9,3.4-0.3,4,1.3c0.5,1.5-0.2,2.7-2.4,3.4
				C237.5,178.8,237.8,177.9,238.1,176.8z"/>
			<path class="st1" d="M238.1,191.7c2-3.4,2-3.4-0.6-5.7c0.6-0.2,1.2-0.5,1.5-0.4c0.8,0.6,1.8,1.2,2,2c0.3,1.3,0.3,2.8-1,3.8
				C239.5,191.7,238.7,191.6,238.1,191.7z"/>
			<path class="st1" d="M241,199.9c-0.7-1.5-1.5-2.7-0.8-4.1C242.6,196.5,242.9,197.6,241,199.9z"/>
			<path class="st1" d="M277.1,166.6c0.3-2.3,1-3.2,2.4-3c1.6,0.3,2.8,1.8,2.6,3.3c-0.2,1.8-1.2,2.9-2.4,2.7
				C277.9,169.5,276.9,168.3,277.1,166.6z M279,165.5c-0.1,0.8-0.6,1.6,0.6,1.8c0.2,0.1,0.8-0.2,0.8-0.4
				C280.7,165.9,280.2,165.5,279,165.5z"/>
		</g>
		<g>
			<g>
				<g>
					<path class="st1" d="M160.6,103.1c-1.3-4.9,4.2-7.9,8.3-7.6c1.3,0.1,1.3-1.9,0-2c-5.5-0.5-11.9,4-10.3,10.1
						C159,104.9,161,104.3,160.6,103.1L160.6,103.1z"/>
				</g>
			</g>
			<g>
				<g>
					<path class="st1" d="M151.7,103.4c-2.6-10.2,7.6-19,17.2-14.6c1.2,0.5,2.2-1.2,1-1.7c-11.2-5-23.3,4.9-20.2,16.9
						C150.1,105.1,152,104.6,151.7,103.4L151.7,103.4z"/>
				</g>
			</g>
			<g>
				<g>
					<path class="st1" d="M139.9,105.8c-2-8.3,0.5-17.2,6.7-23.1c5.4-5,16-9.4,22.7-4.3c1,0.8,2.4-0.6,1.4-1.4
						c-7.2-5.6-18.1-2-24.4,3.3c-7.6,6.3-10.6,16.5-8.4,26.1C138.3,107.6,140.2,107.1,139.9,105.8L139.9,105.8z"/>
				</g>
			</g>
		</g>
		<g>
			<g>
				<g>
					<path class="st1" d="M151.6,155.9c-0.3,1.1-0.5,2-0.8,2.9c2-0.6,2.8-2,2.2-3.6c-0.6-1.5-1.9-1.9-4.1-1.1
						C149.9,154.8,150.7,155.3,151.6,155.9z"/>
					<path class="st1" d="M156.4,163.2c-0.3,1.1-0.5,2-0.8,2.9c2-0.6,2.8-2,2.2-3.6c-0.6-1.5-1.9-1.9-4.1-1.1
						C154.7,162.1,155.5,162.6,156.4,163.2z"/>
					<path class="st1" d="M142.4,145.2c3.7,1.3,3.7,1.3,3.3,4.7c0.6-0.3,1.3-0.4,1.3-0.7c0.2-0.9,0.6-2.1,0.2-2.8
						c-0.6-1.2-1.6-2.3-3.2-2.3C143.5,144.2,143,144.8,142.4,145.2z"/>
					<path class="st1" d="M139.4,137c0.5,1.6,0.6,3,2.1,3.6C142.8,138.5,142.3,137.5,139.4,137z"/>
				</g>
				<path class="st1" d="M285,42.3c-2.5-2.7-5.1-5.3-7.7-7.9c-3.5-3.3-7.1-6.5-10.6-9.7c-1.1-1-2.2-1-3.2-0.3c-4,2.9-8.1,5.7-11.9,9
					c-4.2,3.7-8,7.8-12,11.8c-4.5,4.6-9,9.2-13.5,13.8c-4.8,4.8-9.6,9.6-14.5,14.4c-6,5.8-12.1,11.7-18.3,17.4
					c-3.2,2.9-8.8,7.2-12.2,9.9c-3.5,2.7-15.4,18.5-18.8,20.7c-0.3,0.2-0.7,0.5-1.2,0.7c0,0,0,0,0,0c-3.7,2-7.9,2.9-11.8,4.6
					c-9.6,4.1-18.6,9.2-25.4,17.4c-0.6,0.7-1.4,2.1-1.7,3c-1.4,3.8,0.2,6.1,4.3,5.9c0.4,0,0.7-0.1,1.4-0.2c-0.8,1.8-1.5,3.2-2,4.6
					c-1.8,4.5,1.7,6.7,5,5.9c0.4-0.1,0.9-0.2,1.4-0.3c0.4-0.1,0.7-0.1,1.5-0.2c-0.6,1.2-1.1,2.1-1.5,3.1c-2.2,4.7-1.8,6.1,3,8.7
					c-1,1-3.5,5.5-1,9.2c0.7,1.1,1.9,1.7,3,2.3c3.8,2,8.4-2.3,9-2.9c3.1-3.4,6.1-6.9,9.2-10.3c0.6-0.7,1.3-1.2,2.3-1.5
					c-0.4,0.6-0.9,1.2-1.3,1.9c-1.3,1.9-2.7,3.7-3.7,5.8c-1,2.1-1.6,4.3,0.3,6.5c2.9,3.2,6.9,2.9,8.9-1.7c0.6-1.4,1.1-2.9,1.6-4.4
					c0.7-2.2,1.9-3.9,3.5-5.5c1.6-1.6,3.1-3.1,4.5-4.9c3.6-4.6,5.3-10.1,6-15.8c0.1-1.2,0.4-4.2,2.3-6.6
					c5.5-6.8,16.7-15.5,17.3-15.9c6.1-4.9,12.2-9.8,18.2-14.8c0.9-0.7,2.3-2,3.1-2.8c1.3-1.3,2.6-2.6,3.8-4
					c4.9-5.3,10.1-10.4,16-14.8c2.9-2.2,5.5-4.9,8.1-7.5c5.1-5.1,9.8-10.5,15.4-15c4.3-3.5,8.3-7.6,12.7-11.1
					c4.5-3.6,9.4-6.7,14.1-10.1c0.7-0.5,1.3-0.9,2.3-1.6C288.7,46.8,287,44.5,285,42.3z M158.1,185.9c-2.1-3.2-0.7-6.1,4.1-7.7
					C160.6,180.8,161,184,158.1,185.9z M288.2,49.1c-1,0.7-1.9,1.2-2.7,1.8c-4.7,3.4-9.4,6.8-13.9,10.4c-2.4,1.9-4.4,4.2-6.8,6.1
					c-7.3,5.8-13.9,12.3-20.3,19.1c-1.6,1.8-3.4,3.4-5.3,5c-5.5,4.6-11.2,9-15.9,14.5c-4.4,5-9.5,9.5-14.9,13.4
					c-4.3,3.1-8.2,6.8-12.2,10.2c-1.7,1.4-17.3,15.2-18.2,16.6c-1.3,2.1-2,4.3-2.3,6.7c-0.8,7-3.2,13.4-8.3,18.5
					c-0.8,0.8-1.5,1.6-2.3,2.4c-1.1,1.1-2.1,2.2-3.8,2.6c-1.3,0.3-2.4,1.3-3.5,2.1c-2.2,1.7-3.1,4-2.5,7.1c-1.7-0.6-2.1-1.6-2-2.7
					c0.1-1.3,0.4-2.8,1-3.9c1.1-2,2.6-3.8,3.9-5.7c0.9-1.3,2.2-2.5,2.2-4.8c-1.2,0.3-2.2,0.3-3,0.7c-1.1,0.6-2.1,1.5-3,2.4
					c-2.9,3.1-5.7,6.2-8.5,9.4c-0.5,0.6-1.1,1.2-1.6,1.8c-1.3,1.4-3.1,2.1-4.9,2c-0.5-0.1-1.1-0.2-1.5-0.4c-0.9-0.4-1.6-1-2.2-1.7
					c-0.9-1.2-1.9-1.9-1.5-3.4c0,0,0,0,0,0c0.4-1.5,1.3-2.8,2.5-3.7c0.1-0.1,0.3-0.2,0.4-0.4c1.8-1.4,3.7-2.7,5.7-3.9
					c1.5-0.9,2.8-2,3.5-3.6c-0.9-0.9-1.6-0.2-2.3,0.2c-1.8,1.1-3.5,2.3-5.4,3.4c-0.9,0.5-2,1-3.1,1.1c-2.4,0.4-3.6-0.9-3-3.2
					c0.6-2.3,1.6-4.5,3.3-6.3c1.6-1.6,3.3-3.2,5-4.8c0.4-0.4,0.7-0.9,0.9-1.8c-0.5,0.2-1.1,0.2-1.6,0.5c-2.2,1.3-4.3,2.8-6.6,4
					c-1.3,0.6-2.8,1-4.2,1.1c-1.7,0.1-2.7-1-2.3-2.6c0.5-1.8,1.3-3.6,2.4-5.2c1.2-1.6,2.9-2.8,4.3-4.3c0.4-0.4,0.7-1,0.7-1.9
					c-0.6,0.3-1.2,0.5-1.8,0.8c-1.9,0.9-3.7,2-5.7,2.8c-1.1,0.4-2.5,0.6-3.3-0.5c-0.8-1-0.6-2.3-0.1-3.4c1.1-2.8,3.4-4.5,5.4-6.5
					c5.4-5.3,12.2-8.5,18.9-11.9c2.1-1.1,4.5-1.5,6.8-2.4c2.3-0.9,4.5-2,6.8-3.1c0,0,0,0,0,0c0.2-0.1,0.4-0.2,0.7-0.3
					c0,0,0.1,0,0.1,0c0,0,0,0,0,0c4.9-3,17.5-19.6,19.8-21.2c8.1-5.4,15.1-12.4,22.2-19.2c5.5-5.3,10.9-10.7,16.3-16.1
					c7.9-8,15.9-15.9,23.7-23.9c5.7-5.9,11.5-11.7,18.6-16c2.3-1.4,2.3-1.6,4.2,0.2c5.5,5.3,11.1,10.5,16.5,15.9
					C285.4,44.6,286.8,46.7,288.2,49.1z"/>
			</g>
			<path class="st3" d="M189.1,135.4c4.8-4,9.6-8,14.4-12c-7.9-7.4-15.9-14.8-23.8-22.2c0.8,0.7-3.4,6.3-4,6.9c-0.9,1-1.9,2-3,2.8
				c-0.6,0.5-3.1,1.6-3.2,2.3c-0.2,1.2,5.5,5.4,6.6,6.4c2.2,2.2,4.4,4.6,6.4,7C184.9,129.5,187.1,132.4,189.1,135.4z"/>
			<path class="st4" d="M182.6,107c0.8-0.9,1.8-1.9,3-1.9c1.3,0,2.3,0.9,3.3,1.8c4.1,4,8.1,8.1,12.2,12.1
				c-6.1,4.2-12.2,8.4-18.3,12.7c-0.5,0.4-5.8-5.3-6.4-5.9c-1.5-1.6-4.6-4.3-4.5-6.6c0.1-2.1,2.6-3.6,3.9-4.9
				C178.3,111.9,180.4,109.4,182.6,107z"/>
			<g>
				<text transform="matrix(0.8081 -0.589 0.589 0.8081 180.7847 125.4014)" class="st1 st5 st6">PAY</text>
			</g>
		</g>
	</g>
</g>
<g id="DESIGNED_BY_FREEPIK">
</g>
</svg>
