<?xml version="1.0" encoding="utf-8"?>
<!-- Generator: Adobe Illustrator 21.0.0, SVG Export Plug-In . SVG Version: 6.00 Build 0)  -->
<svg version="1.1" xmlns="http://www.w3.org/2000/svg" xmlns:xlink="http://www.w3.org/1999/xlink" x="0px" y="0px"
	 viewBox="0 0 500 500" style="enable-background:new 0 0 500 500;" xml:space="preserve">
<style type="text/css">
	.st0{fill:#BED8F5;}
	.st1{fill:#5B80B9;}
	.st2{fill:none;stroke:#5B80B9;stroke-width:2;stroke-linecap:round;stroke-linejoin:round;stroke-dasharray:5,7;}
</style>
<g id="BACKGROUND">
</g>
<g id="OBJECTS">
	<g>
		<g>
			<path class="st0" d="M252.5,163.9c8.2-3.2,10-10.3,10.8-17.9c0.6-5-0.9-9.6-3.4-14.1c0.1,0,0.2,0,0.2,0c-4.5-4.2-15.6-9-15.5-8.5
				c-2.2-0.1-4.4-0.6-6.5-0.3c-7.1,1.1-13.1,4.3-17.1,10.4c-2.5,3.8-4,8.3-2.4,12.8c2,5.8,4.8,11.3,10,15c1.4,1,3,1.9,3.9,2.5
				C238.7,167,252.2,164,252.5,163.9z M224.2,153.2c-0.7-1.3-1.4-2.7-2.1-4c-2.8-5.2-2.3-10.8,1.5-15.2c2-2.3,4.2-4.5,6.7-6.3
				c3.2-2.3,7.2-2.2,11-2.3c5.4-0.1,10.1,2.1,14,5.4c5.5,4.5,6.8,10.8,5.9,17.6c-0.2,1.1-0.5,2.3-0.9,3.3c-1.6,3.7-2.6,7.9-7,9.5
				c-6.1,2.3-12.2,3.6-18.6,1.1C230.1,160.4,226.5,157.5,224.2,153.2z"/>
			<path class="st0" d="M239.4,145.6c-0.6-0.5-0.8-0.7-1-0.8c-4.8-1.9-5.6-5.4-1.9-9.3c0.8-0.8,1.8-1.4,2.5-2.4
				c0.6-0.9,0.8-2,1.4-3.8c0.8,1.6,1.3,2.6,1.8,3.5c2.3,0.8,4.4,1.5,6.5,2.4c0.3,0.1,0.4,0.8,1.1,2.1c-2.9-0.8-5.1-1.3-7.8-2
				c0,2.6,0,4.6,0,6.9c0.8,0.2,1.5,0.4,2.2,0.5c2.9,0.5,4.3,1.9,4.6,4.3c0.3,2.4-0.6,3.7-3.4,4.9c-3.1,1.3-3.1,1.3-4.4,4.6
				c-0.7-1.3-1.2-2.3-1.7-3.3c-5.1-1.1-6.2-0.7-4.4-5.3c0.5,0.5,1,0.9,1.1,1.3c0.2,1.2,1,1.6,1.9,1.3c0.7-0.3,1.3-1.1,1.5-1.8
				C239.6,147.5,239.4,146.4,239.4,145.6z M241.9,150.1c3.4-0.3,4.8-1.1,4.8-2.6c0-1.8-1.7-2.7-4.8-2.3
				C241.9,146.7,241.9,148.2,241.9,150.1z M239.1,136.7c-2.1,1.1-2.9,2.5-2.5,4.2c0.1,0.7,1.2,1.2,2.5,2.4
				C239.1,140.5,239.1,138.9,239.1,136.7z"/>
		</g>
	</g>
	<g>
		<path class="st1" d="M401.5,309.4c4.8-1.9,5.8-6,6.3-10.5c0.3-2.9-0.5-5.6-2-8.3c0,0,0.1,0,0.1,0c-2.6-2.4-9.2-5.3-9.1-5
			c-1.3-0.1-2.6-0.3-3.8-0.2c-4.1,0.7-7.7,2.5-10,6.1c-1.5,2.2-2.3,4.9-1.4,7.5c1.2,3.4,2.8,6.6,5.9,8.8c0.8,0.6,1.7,1.1,2.3,1.5
			C393.4,311.2,401.3,309.5,401.5,309.4z M384.9,303.1c-0.4-0.8-0.8-1.6-1.3-2.4c-1.6-3-1.4-6.3,0.9-8.9c1.2-1.3,2.5-2.6,3.9-3.7
			c1.9-1.4,4.2-1.3,6.4-1.4c3.2-0.1,5.9,1.3,8.2,3.2c3.2,2.6,4,6.3,3.4,10.3c-0.1,0.7-0.3,1.3-0.5,1.9c-0.9,2.2-1.5,4.6-4.1,5.6
			c-3.6,1.4-7.2,2.1-10.9,0.6C388.4,307.3,386.3,305.6,384.9,303.1z"/>
		<path class="st1" d="M393.8,298.6c-0.4-0.3-0.5-0.4-0.6-0.4c-2.8-1.1-3.3-3.2-1.1-5.4c0.5-0.5,1.1-0.8,1.4-1.4
			c0.4-0.5,0.5-1.2,0.8-2.2c0.5,0.9,0.8,1.5,1,2.1c1.3,0.5,2.6,0.9,3.8,1.4c0.2,0.1,0.3,0.5,0.6,1.2c-1.7-0.5-3-0.8-4.6-1.2
			c0,1.5,0,2.7,0,4c0.4,0.1,0.9,0.2,1.3,0.3c1.7,0.3,2.5,1.1,2.7,2.5c0.1,1.4-0.3,2.1-2,2.8c-1.8,0.8-1.8,0.8-2.6,2.7
			c-0.4-0.8-0.7-1.4-1-1.9c-3-0.6-3.7-0.4-2.6-3.1c0.3,0.3,0.6,0.5,0.6,0.8c0.1,0.7,0.6,1,1.1,0.7c0.4-0.2,0.8-0.7,0.9-1.1
			C393.9,299.8,393.8,299.1,393.8,298.6z M395.3,301.3c2-0.2,2.8-0.7,2.8-1.5c0-1.1-1-1.6-2.8-1.4
			C395.3,299.3,395.3,300.2,395.3,301.3z M393.7,293.4c-1.2,0.7-1.7,1.5-1.5,2.5c0.1,0.4,0.7,0.7,1.5,1.4
			C393.7,295.7,393.7,294.7,393.7,293.4z"/>
	</g>
	<g>
		<path class="st1" d="M328.2,346.7c6.2-2.4,7.5-7.7,8.1-13.5c0.4-3.7-0.7-7.2-2.6-10.6c0.1,0,0.1,0,0.2,0
			c-3.4-3.1-11.8-6.8-11.7-6.4c-1.7-0.1-3.3-0.4-4.9-0.2c-5.3,0.8-9.9,3.2-12.9,7.8c-1.9,2.9-3,6.3-1.8,9.6
			c1.5,4.4,3.6,8.5,7.6,11.3c1.1,0.8,2.2,1.4,2.9,1.9C317.9,349,328,346.8,328.2,346.7z M306.9,338.6c-0.5-1-1.1-2-1.6-3
			c-2.1-3.9-1.7-8.1,1.2-11.5c1.5-1.7,3.2-3.4,5-4.7c2.4-1.8,5.4-1.6,8.3-1.7c4.1-0.1,7.6,1.6,10.6,4.1c4.2,3.4,5.1,8.1,4.4,13.3
			c-0.1,0.8-0.3,1.7-0.7,2.5c-1.2,2.8-1.9,5.9-5.2,7.2c-4.6,1.7-9.2,2.7-14,0.8C311.4,344,308.7,341.9,306.9,338.6z"/>
		<path class="st1" d="M318.4,332.8c-0.5-0.4-0.6-0.5-0.7-0.6c-3.7-1.4-4.2-4.1-1.5-7c0.6-0.6,1.4-1.1,1.9-1.8
			c0.5-0.7,0.6-1.5,1.1-2.9c0.6,1.2,1,2,1.3,2.6c1.7,0.6,3.3,1.1,4.9,1.8c0.2,0.1,0.3,0.6,0.8,1.6c-2.2-0.6-3.9-1-5.9-1.5
			c0,1.9,0,3.5,0,5.2c0.6,0.1,1.1,0.3,1.6,0.4c2.1,0.4,3.3,1.4,3.4,3.2c0.2,1.8-0.4,2.8-2.5,3.7c-2.3,1-2.3,1-3.3,3.5
			c-0.5-1-0.9-1.7-1.3-2.5c-3.9-0.8-4.7-0.6-3.3-4c0.3,0.4,0.8,0.7,0.8,1c0.2,0.9,0.7,1.2,1.4,1c0.5-0.2,1-0.8,1.1-1.4
			C318.5,334.3,318.4,333.4,318.4,332.8z M320.3,336.2c2.6-0.2,3.6-0.8,3.6-1.9c0-1.4-1.3-2-3.6-1.8
			C320.3,333.7,320.3,334.9,320.3,336.2z M318.2,326.1c-1.6,0.8-2.2,1.9-1.9,3.2c0.1,0.5,0.9,0.9,1.9,1.8
			C318.2,329.1,318.2,327.8,318.2,326.1z"/>
	</g>
	<g>
		<path class="st1" d="M225.3,198.7c3.7-1.5,4.5-4.7,4.9-8.1c0.3-2.3-0.4-4.4-1.6-6.4c0,0,0.1,0,0.1,0c-2-1.9-7.1-4.1-7-3.9
			c-1-0.1-2-0.3-3-0.1c-3.2,0.5-6,2-7.8,4.7c-1.1,1.7-1.8,3.8-1.1,5.8c0.9,2.6,2.2,5.1,4.6,6.9c0.7,0.5,1.3,0.9,1.8,1.2
			C219.1,200.1,225.2,198.8,225.3,198.7z M212.4,193.8c-0.3-0.6-0.7-1.2-1-1.8c-1.3-2.4-1.1-4.9,0.7-6.9c0.9-1,1.9-2,3-2.9
			c1.5-1.1,3.3-1,5-1.1c2.5,0,4.6,1,6.4,2.5c2.5,2.1,3.1,4.9,2.7,8c-0.1,0.5-0.2,1-0.4,1.5c-0.7,1.7-1.2,3.6-3.2,4.3
			c-2.8,1.1-5.6,1.6-8.5,0.5C215.1,197.1,213.5,195.8,212.4,193.8z"/>
		<path class="st1" d="M219.3,190.3c-0.3-0.2-0.4-0.3-0.5-0.3c-2.2-0.9-2.6-2.5-0.9-4.2c0.4-0.4,0.8-0.7,1.1-1.1
			c0.3-0.4,0.4-0.9,0.7-1.7c0.4,0.7,0.6,1.2,0.8,1.6c1,0.4,2,0.7,3,1.1c0.1,0.1,0.2,0.4,0.5,0.9c-1.3-0.4-2.3-0.6-3.5-0.9
			c0,1.2,0,2.1,0,3.1c0.3,0.1,0.7,0.2,1,0.2c1.3,0.2,2,0.9,2.1,2c0.1,1.1-0.3,1.7-1.5,2.2c-1.4,0.6-1.4,0.6-2,2.1
			c-0.3-0.6-0.5-1.1-0.8-1.5c-2.3-0.5-2.8-0.3-2-2.4c0.2,0.2,0.5,0.4,0.5,0.6c0.1,0.5,0.4,0.8,0.9,0.6c0.3-0.1,0.6-0.5,0.7-0.8
			C219.4,191.2,219.3,190.7,219.3,190.3z M220.5,192.4c1.6-0.1,2.2-0.5,2.2-1.2c0-0.8-0.8-1.2-2.2-1.1
			C220.5,190.8,220.5,191.6,220.5,192.4z M219.2,186.3c-0.9,0.5-1.3,1.1-1.2,1.9c0.1,0.3,0.6,0.5,1.2,1.1
			C219.2,188,219.2,187.3,219.2,186.3z"/>
	</g>
	<g>
		<path class="st0" d="M413.9,252.7c3.7-1.5,4.5-4.7,4.9-8.1c0.3-2.3-0.4-4.4-1.6-6.4c0,0,0.1,0,0.1,0c-2-1.9-7.1-4.1-7-3.9
			c-1-0.1-2-0.3-3-0.1c-3.2,0.5-6,2-7.8,4.7c-1.1,1.7-1.8,3.8-1.1,5.8c0.9,2.6,2.2,5.1,4.6,6.9c0.7,0.5,1.3,0.9,1.8,1.2
			C407.7,254.1,413.8,252.8,413.9,252.7z M401.1,247.8c-0.3-0.6-0.7-1.2-1-1.8c-1.3-2.4-1.1-4.9,0.7-6.9c0.9-1,1.9-2,3-2.9
			c1.5-1.1,3.3-1,5-1.1c2.5,0,4.6,1,6.4,2.5c2.5,2.1,3.1,4.9,2.7,8c-0.1,0.5-0.2,1-0.4,1.5c-0.7,1.7-1.2,3.6-3.2,4.3
			c-2.8,1.1-5.6,1.6-8.5,0.5C403.8,251.1,402.1,249.8,401.1,247.8z"/>
		<path class="st0" d="M408,244.4c-0.3-0.2-0.4-0.3-0.5-0.3c-2.2-0.9-2.6-2.5-0.9-4.2c0.4-0.4,0.8-0.7,1.1-1.1
			c0.3-0.4,0.4-0.9,0.7-1.7c0.4,0.7,0.6,1.2,0.8,1.6c1,0.4,2,0.7,3,1.1c0.1,0.1,0.2,0.4,0.5,0.9c-1.3-0.4-2.3-0.6-3.5-0.9
			c0,1.2,0,2.1,0,3.1c0.3,0.1,0.7,0.2,1,0.2c1.3,0.2,2,0.9,2.1,2c0.1,1.1-0.3,1.7-1.5,2.2c-1.4,0.6-1.4,0.6-2,2.1
			c-0.3-0.6-0.5-1.1-0.8-1.5c-2.3-0.5-2.8-0.3-2-2.4c0.2,0.2,0.5,0.4,0.5,0.6c0.1,0.5,0.4,0.8,0.9,0.6c0.3-0.1,0.6-0.5,0.7-0.8
			C408.1,245.3,408,244.7,408,244.4z M409.1,246.4c1.6-0.1,2.2-0.5,2.2-1.2c0-0.8-0.8-1.2-2.2-1.1
			C409.1,244.9,409.1,245.6,409.1,246.4z M407.9,240.3c-0.9,0.5-1.3,1.1-1.2,1.9c0.1,0.3,0.6,0.5,1.2,1.1
			C407.9,242.1,407.9,241.3,407.9,240.3z"/>
	</g>
	<g>
		<g>
			<path class="st0" d="M246.2,344.1c4.8-1.9,5.8-6,6.3-10.5c0.3-2.9-0.5-5.6-2-8.3c0,0,0.1,0,0.1,0c-2.6-2.4-9.2-5.3-9.1-5
				c-1.3-0.1-2.6-0.3-3.8-0.2c-4.1,0.7-7.7,2.5-10,6.1c-1.5,2.2-2.3,4.9-1.4,7.5c1.2,3.4,2.8,6.6,5.9,8.8c0.8,0.6,1.7,1.1,2.3,1.5
				C238.1,346,246,344.2,246.2,344.1z M229.6,337.8c-0.4-0.8-0.8-1.6-1.3-2.4c-1.6-3-1.4-6.3,0.9-8.9c1.2-1.3,2.5-2.6,3.9-3.7
				c1.9-1.4,4.2-1.3,6.4-1.4c3.2-0.1,5.9,1.3,8.2,3.2c3.2,2.6,4,6.3,3.4,10.3c-0.1,0.7-0.3,1.3-0.5,1.9c-0.9,2.2-1.5,4.6-4.1,5.6
				c-3.6,1.4-7.2,2.1-10.9,0.6C233.1,342.1,231,340.4,229.6,337.8z"/>
			<path class="st0" d="M238.5,333.4c-0.4-0.3-0.5-0.4-0.6-0.4c-2.8-1.1-3.3-3.2-1.1-5.4c0.5-0.5,1.1-0.8,1.4-1.4
				c0.4-0.5,0.5-1.2,0.8-2.2c0.5,0.9,0.8,1.5,1,2.1c1.3,0.5,2.6,0.9,3.8,1.4c0.2,0.1,0.3,0.5,0.6,1.2c-1.7-0.5-3-0.8-4.6-1.2
				c0,1.5,0,2.7,0,4c0.4,0.1,0.9,0.2,1.3,0.3c1.7,0.3,2.5,1.1,2.7,2.5c0.1,1.4-0.3,2.1-2,2.8c-1.8,0.8-1.8,0.8-2.6,2.7
				c-0.4-0.8-0.7-1.4-1-1.9c-3-0.6-3.7-0.4-2.6-3.1c0.3,0.3,0.6,0.5,0.6,0.8c0.1,0.7,0.6,1,1.1,0.7c0.4-0.2,0.8-0.7,0.9-1.1
				C238.6,334.5,238.5,333.9,238.5,333.4z M240,336c2-0.2,2.8-0.7,2.8-1.5c0-1.1-1-1.6-2.8-1.4C240,334,240,334.9,240,336z
				 M238.3,328.2c-1.2,0.7-1.7,1.5-1.5,2.5c0.1,0.4,0.7,0.7,1.5,1.4C238.3,330.4,238.3,329.5,238.3,328.2z"/>
		</g>
	</g>
	<g>
		<g>
			<path class="st1" d="M101.4,347.9c1.4-0.8,3-1.6,4.3-2.5c4.7-3.4,9.6-6.4,14.7-9.1c5.8-3.1,10.9-7.4,16.9-10.3
				c4.7-2.2,9-5.1,13.5-7.7c8.9-5,17.6-10.2,26.8-14.6c5-2.3,9.7-5.2,14.6-7.7c5.6-2.8,11.3-5.3,17-7.9c0.5-0.2,1.1-0.3,1.6-0.5
				c0.3,0.5,0.5,0.9,0.7,1.2c0.2,0.4,0.3,0.8,0.6,1.1c1,1.6,1.6,1.6,3.2,0.8c2-1,4.1-1.7,6.2-2.5c2.9-1,5.8-2,8.7-3.1
				c0.4-0.2,0.7-0.6,1.2-1.1c-1.2-1.6-2.2-3.1-3.3-4.6c0.4-0.2,0.5-0.4,0.7-0.4c5.4,0.8,11,0.5,16.4,1.7c3.8,0.8,7.4,1.8,10.9,3.4
				c4,1.9,8.4,2.1,12.7,2.4c0.6,0.1,1.3-0.1,1.9-0.4c2.6-1.4,5.4-2.6,7.8-4.4c4.8-3.5,9.2-7.5,14.4-10.4c1.6-0.9,2.4-2.3,2.8-3.9
				c0.8-2.6,1.7-5.1,2.4-7.7c0.3-1,0.9-1.4,1.7-1.6c1.7-0.4,3.4-0.7,5.1-1c5.2-0.8,10.4-1.4,15.4-3c3.3-1.1,6.7-2.1,10-3.2
				c3-1,6-2,9-2.9c2.1-0.6,4.1-1.2,6.3-1.8c-0.2-0.7-0.2-1.3-0.4-1.8c-1-1.9-1.9-3.9-3-5.7c-3.1-4.9-5-10.3-6.1-16
				c-0.9-4.9-1.9-9.8-3.1-14.7c-0.8-3.4-1.9-3.8-5.2-2.8c-0.5,0.1-0.9,0.4-1.4,0.6c-2.3,0.9-4.6,2-7,2.7c-8.6,2.4-17.2,4.6-25.8,7
				c-9,2.4-17.8,5.8-27,7.6c-0.6,0.1-1.3,0.4-2.2,0.7c1.5,3.9,2.9,7.8,4.4,11.6c-0.1,0.1-0.3,0.2-0.4,0.3c-1.6-2.6-3.6-4.6-6.9-3.9
				c-2.2,0.5-2.7,2.4-3.1,4.5c-2.2-0.2-4.5-1-6.3,0.8c-1.7,1.7-1.5,3.9-1,6.2c-2,0.4-4,0.5-5.7,1.1c-5.2,1.7-9.5,4.9-13.4,8.5
				c-0.9,0.8-1.6,1.3-2.8,1.2c-2.5-0.2-5-0.2-7.5-0.3c-1.8-0.1-3.6-0.1-5.5-0.2c-0.9-2.1-1.7-4.1-2.5-6.1c-0.7-1.6-1.2-1.8-2.6-0.8
				c-0.4,0.3-0.8,0.7-1.2,0.9c-2.7,1.3-5.3,2.7-8.1,3.8c-1.6,0.6-3.3,0.8-5,1.2c-0.3,2.4,1,4.2,1.9,6.3c-1.2,0.7-2.3,1.3-3.4,1.8
				c-4.1,1.8-8.3,3.5-12.4,5.2c-7.4,3.1-14.8,6.2-22.3,9.1c-3.2,1.3-6.7,2-10.1,3c-7.7,2.5-15.4,5-23.1,7.5
				c-6.5,2.2-12.8,4.8-19.6,6.2c-3.2,0.7-6.3,1.4-9.5,2.2c-5.7,1.4-11.4,2.8-17.4,4.3c0.4,2.3,0.5,4.9,1.4,7.3
				c1,2.6,1.8,5.4,2.6,8.1c0.6,1.7,1,3.5,1.6,5.2c0.5,1.2,1.1,2.4,1.7,3.6c2.3,4.4,4.5,9,7.1,13.2c1.5,2.5,2.5,5,3.1,7.8
				c0.2,1.1,0.4,2.3,0.8,3.4C99.7,348.4,100.3,348.5,101.4,347.9z M333.5,243c2.5-1.1,5.2-1.7,8-2.6c1,1.6,1.9,3.2,2.9,4.9
				c-1.6,0.5-2.9,0.8-4.1,1.2c-5.8,1.9-11.6,4.1-17.5,5.8c-4.5,1.3-9.1,2-13.6,3c-5.5,1.1-10.9,2.2-16.4,3.3
				c-1.4,0.3-2.7,0.7-4.1,1.1c-3,0.8-6.1,1.7-9.2,2.6c-0.2-0.5-0.5-0.9-0.7-1.4c-0.9-2.7-0.7-2.8,2.1-3.2c2-0.3,3.9-1,5.8-1.5
				c6.1-1.4,12-3.3,17.9-5.3c3.1-1.1,6.5-1.6,9.7-2.5C320.7,246.5,327.3,245.6,333.5,243z M283.5,262.7c0.1,0,0.1,0.1,0.4,0.2
				c-1.6,1.8-3.1,3.2-5.9,2.7c-2.1-0.3-4.4,0.2-6.7,0.4c-2-5.2-2-5.2-6.4-7.2c3.7-0.3,7.3-0.6,11.4-0.9c0.3,0.9,0.7,2.1,1.1,3.3
				c0.8,2.6,1.4,2.9,4,2.2C282.1,263.1,282.8,262.9,283.5,262.7z M326.7,233.7c2.4-0.6,4.8-1.5,7.1-2.3c2.6-0.9,3-0.6,4.2,1.9
				c0.8,1.9,1.9,3.7,3,5.8c-1.1,0.4-2.1,0.9-3.2,1.3c-2.4,0.8-4.7,1.7-7.1,2.4c-3.6,1-7.2,2-10.9,2.9c-5.6,1.5-11.1,2.9-16.7,4.4
				c-1.5,0.4-2.9,1.2-4.5,1.6c-3.4,1-6.9,1.9-10.4,2.9c-2.3,0.6-4.7,1.3-7,1.8c-0.5,0.1-1,0.1-1.5,0.2c1.5-1.3,3.1-2.1,5.1-2.4
				c2.9-0.3,5.6-1.3,7.9-3.3c2.4-2.2,3.6-4.6,2.3-7.9c0.6-0.3,1-0.6,1.5-0.8c4.8-1.6,9.6-3.3,14.5-4.6
				C316.3,236.1,321.5,235,326.7,233.7z M267.6,228.1c-0.4-1-0.6-2-0.9-3.2c0.7-0.3,1.2-0.5,1.8-0.7c6.8-1.9,13.7-3.8,20.4-5.8
				c10.4-3.1,20.8-5.9,31.4-8.5c2.2-0.6,4.3-1.7,6.5-2.5c0.8-0.3,1.5-0.7,2.3-0.9c1.5-0.3,2.2,0,2.7,1.5c0.6,2,1.3,4,1.7,6
				c1,4.7,1.9,9.5,2.8,14.2c0,0.2,0,0.5,0,1.1c-3.8,1.1-7.6,2.2-11.4,3.2c-5.3,1.5-10.6,2.8-15.9,4.3c-4.7,1.3-9.2,2.9-13.9,4.2
				c-0.9,0.3-2,0.3-2.9,0.2c-2.9-0.4-5.8-0.1-8.7,0.5c-2.6,0.5-5.3,0.8-7.9,1.2c-1.7,0.2-2.2-0.1-3-1.6c-0.3-0.7-0.6-1.4-0.9-2.1
				C270.3,235.6,269,231.9,267.6,228.1z M279.5,243.9c3.2-0.4,5.9-1.5,8.9-1.2C286.8,246.4,282.6,247.1,279.5,243.9z M261.6,233.5
				c1.1-0.7,2.9-0.5,4,0.8c1.4,1.6,2.6,3.5,3.7,5.3c0.7,1.1,1.2,2.3,2,3.9c-2.1,0.1-3.9,0.2-5.8,0.3c-0.3,0-0.7-0.1-0.9-0.3
				c-1.6-1.8-3.8-3.3-4.5-5.8C259.7,236.2,260.4,234.2,261.6,233.5z M252.8,242.4c-1-1.5-0.4-3.6,1.1-4.6c1.4-0.9,3.8-0.6,4.8,0.7
				c0.6,0.8,0.8,1.8,1.4,2.6c0.5,0.7,1.4,1.1,2.5,2c-3.1,0.1-5.7,0.3-8.2,0.2C253.9,243.4,253.2,242.9,252.8,242.4z M224.9,255.4
				c0.7,0,1.5,0.2,2.2,0.2c2.6,0.1,4.8-0.2,7-2.3c3-2.7,6.6-4.9,10.1-6.8c2.6-1.4,5.7-1.5,8.7-1.7c1-0.1,2-0.3,3-0.3
				c2.1,0,4.2,0,6.2,0.2c4.5,0.5,9,0.1,13.5-0.4c1-0.1,1.9-0.2,2.8,0.6c3.4,3.2,7.3,3.1,10.6-0.2c0.3-0.3,0.6-0.6,0.8-0.9
				c0.5-0.8,0.9-1.7,2.1-1.3c1,0.3,2.2,1.6,2.3,2.7c0.1,1.2-0.3,2.3-1.1,3.2c-2.5,2.7-5.6,4.3-9.2,4.4c-1.2,0.1-2.2,0.5-3.3,1
				c-4.1,1.9-8.2,3.7-12.9,3.3c-1.2-0.1-2.5-0.1-3.7,0c-0.9,0.1-1.7,0.5-3,0.9c0.8,0.7,1.1,1.1,1.6,1.3c0.5,0.3,1.1,0.4,1.6,0.6
				c3.2,0.9,5.3,2.8,5.5,6.3c0,0.5,0,1,0.1,1.5c0.1,0.4,0.4,0.9,0.7,1.1c0.2,0.1,0.9-0.2,1-0.4c0.9-1.5,2.4-1.7,3.9-1.9
				c2.6-0.4,4.2,0.7,4.7,3.3c0.2,0.8,0.3,1.7,0.5,2.5c0.2,0,0.5-0.1,0.7-0.1c0.8-1.8-0.1-3.4-0.4-4.7c2-1.9,3.8-3.8,5.6-5.6
				c0.2-0.2,0.5-0.5,0.8-0.6c3-0.8,5.9-1.5,9.1-2.4c0,0.9,0,1.5-0.1,2c-0.6,2.2-1.3,4.3-1.9,6.5c-0.4,1.2-1,2-2.1,2.6
				c-5.1,3-9.6,7-14.4,10.5c-2.5,1.9-5.5,3.1-8.3,4.5c-0.4,0.2-1,0.3-1.5,0.2c-4.3-0.4-8.6-0.9-12.6-2.8c-2.9-1.4-5.9-2.3-9.1-2.7
				c-3-0.3-5.9-1-8.9-1.4c-2.3-0.3-4.7-0.3-7-0.5c-2.5-0.2-4.1-1.3-5.1-3.9c-2.4-6-5.1-11.8-7.8-17.6c-0.2-0.4-0.3-0.8-0.5-1.5
				C219.9,255.2,222.4,255.3,224.9,255.4z M198.3,254c5-1.2,9.7-2.9,14.1-6.2c0.6,1.3,1.1,2.3,1.5,3.3c2.2,4.8,4.4,9.5,6.5,14.3
				c1.2,2.6,2.3,5.2,3.3,7.8c1.4,3.7,3.1,7.4,5.9,10.6c-4.9,2.9-10.8,3-15.7,6.1c-0.4-0.7-0.8-1.3-1.1-1.9c-0.4-0.8-0.5-1.8-1-2.6
				c-2.4-4-3.4-8.5-4.8-12.8c-1.4-4.7-3.4-9.2-6.3-13.3C199.6,257.8,198.6,256.2,198.3,254z M99.8,343.4c-0.5-3-1.6-5.7-3.2-8.3
				c-2.5-4.1-4.6-8.5-6.9-12.8c-0.7-1.3-1.3-2.5-1.8-3.8c-0.6-1.6-1-3.3-1.5-5c-0.8-2.7-1.7-5.4-2.5-8.1c-0.6-1.9-0.9-3.8-1.4-5.8
				c2.7-0.7,5.1-1.4,7.6-2c8.5-2.1,17.1-3.9,25.5-6.3c6.3-1.8,12.4-4.4,18.7-6.4c7.1-2.3,14.2-4.3,21.3-6.6c2.9-0.9,5.8-2.1,8.7-3.1
				c0.8-0.3,1.5-0.7,2.3-1c5.7-2.3,11.3-4.5,17-6.8c4.2-1.7,8.4-3.5,12.7-5.3c1.2-0.5,2.4-1.2,3.8-1.9c0.8,1.4,1.4,2.3,1.9,3.4
				c2.1,4.4,4,8.8,5.2,13.5c0.6,2.5,1.8,4.8,2.7,7.2c0.2,0.5,0.4,1.1,0.7,1.8c-2.9,1.4-5.6,2.9-8.4,4c-4.5,1.8-8.8,4-13.1,6.3
				c-5.6,3-11.3,5.7-16.9,8.7c-6.4,3.4-12.7,7.1-19,10.6c-7.3,4-14.6,8-21.9,12.1c-1.7,1-3.2,2.4-4.9,3.4c-3,1.9-6.2,3.6-9.3,5.5
				c-3.6,2.2-7.2,4.6-10.8,6.8c-1.7,1.1-3.4,2-5.4,3.2C100.3,345.4,99.9,344.4,99.8,343.4z"/>
			<path class="st1" d="M279.2,235c6-2,12-3.9,18-5.9c3.3-1.1,3.3-1.2,1.3-4.2c-1.2-1.8-1.6-1.9-3.8-1.1c-2.4,0.8-4.7,1.8-7.1,2.3
				c-4.8,1.1-9.3,3.1-14,4.6c-0.4,0.1-0.8,0.3-1.1,0.5c-0.2,0.2-0.4,0.5-0.6,0.8c0.6,1.3,1.1,2.5,1.7,3.7c0.6,1.3,1,1.4,2.4,0.7
				C277.1,235.9,278.1,235.4,279.2,235z M275.1,235c-0.4-0.9-0.9-1.8-1.3-2.6c5.2-2.6,10.5-4.2,15.9-5.5c1.6-0.4,3.2-1,4.7-1.6
				c2.2-0.8,2.6-0.6,3.6,2C290.6,230.4,282.8,232.3,275.1,235z"/>
		</g>
		<g>
			<g>
				<g>
					<path class="st1" d="M290.6,202.4c0.9-4.9,6.9-5.7,10.6-3.6c1.1,0.6,2.1-1.1,1-1.7c-4.8-2.6-12.4-1.4-13.6,4.8
						C288.4,203.2,290.3,203.7,290.6,202.4L290.6,202.4z"/>
				</g>
			</g>
			<g>
				<g>
					<path class="st1" d="M282.3,199c1.8-10.5,14.7-14.3,21.9-6.3c0.9,1,2.3-0.5,1.4-1.4c-8.1-9.1-23.1-4.9-25.2,7.1
						C280.2,199.8,282.1,200.3,282.3,199L282.3,199z"/>
				</g>
			</g>
			<g>
				<g>
					<path class="st1" d="M270.6,196.5c1.6-8.1,7-15.1,14.8-18.1c7.2-2.8,19.2-2.6,23.4,5.2c0.6,1.1,2.3,0.1,1.7-1
						c-4.4-8.4-16.9-9.2-24.9-6.4c-8.8,3-15.2,10.7-17,19.8C268.4,197.2,270.3,197.7,270.6,196.5L270.6,196.5z"/>
				</g>
			</g>
		</g>
	</g>
	<g>
		<g>
			<path class="st2" d="M289.7,286c14.9,8.9,34.4,9.8,50.1,2.1c20.9-10.3,33-34.7,31-57.9c-2-23.2-16.7-44.3-36.5-56.5
				c-6.8-4.2-14.3-7.5-21-11.9c-6.7-4.4-15.9-9.2-18.7-16.8c-2.6-7,3.6-16.6,9.5-22"/>
			<g>
				<path class="st1" d="M301.6,134.4c-0.4-0.1-0.6-0.5-0.5-0.9l2.8-10.3l-10.6,1.8c-0.4,0.1-0.7-0.2-0.8-0.6
					c-0.1-0.4,0.2-0.7,0.6-0.8l11.6-2c0.2,0,0.5,0,0.6,0.2c0.2,0.2,0.2,0.4,0.2,0.7l-3.1,11.4c0,0.1-0.1,0.2-0.2,0.3
					C302.1,134.4,301.8,134.5,301.6,134.4z"/>
			</g>
		</g>
	</g>
</g>
<g id="DESIGNED_BY_FREEPIK">
</g>
</svg>
