<?xml version="1.0" encoding="utf-8"?>
<!-- Generator: Adobe Illustrator 21.0.0, SVG Export Plug-In . SVG Version: 6.00 Build 0)  -->
<svg version="1.1" xmlns="http://www.w3.org/2000/svg" xmlns:xlink="http://www.w3.org/1999/xlink" x="0px" y="0px"
	 viewBox="0 0 500 500" style="enable-background:new 0 0 500 500;" xml:space="preserve">
<style type="text/css">
	.st0{fill:#BED8F5;}
	.st1{fill:#5B80B9;}
	.st2{font-family:'!PaulMaul-Bold';}
	.st3{font-size:21.5917px;}
	.st4{fill:none;stroke:#5B80B9;stroke-width:2;stroke-linecap:round;stroke-linejoin:round;stroke-dasharray:5,7;}
</style>
<g id="BACKGROUND">
</g>
<g id="OBJECTS">
	<g>
		<g>
			<path class="st0" d="M157.1,199.3c4.8-1.9,5.8-6,6.3-10.5c0.3-2.9-0.5-5.6-2-8.3c0,0,0.1,0,0.1,0c-2.6-2.4-9.2-5.3-9.1-5
				c-1.3-0.1-2.6-0.3-3.8-0.2c-4.1,0.7-7.7,2.5-10,6.1c-1.5,2.2-2.3,4.9-1.4,7.5c1.2,3.4,2.8,6.6,5.9,8.8c0.8,0.6,1.7,1.1,2.3,1.5
				C149,201.1,156.9,199.3,157.1,199.3z M140.5,193c-0.4-0.8-0.8-1.6-1.3-2.4c-1.6-3-1.4-6.3,0.9-8.9c1.2-1.3,2.5-2.6,3.9-3.7
				c1.9-1.4,4.2-1.3,6.4-1.4c3.2-0.1,5.9,1.3,8.2,3.2c3.2,2.6,4,6.3,3.4,10.3c-0.1,0.7-0.3,1.3-0.5,1.9c-0.9,2.2-1.5,4.6-4.1,5.6
				c-3.6,1.4-7.2,2.1-10.9,0.6C144,197.2,141.9,195.5,140.5,193z"/>
			<path class="st0" d="M149.4,188.5c-0.4-0.3-0.5-0.4-0.6-0.4c-2.8-1.1-3.3-3.2-1.1-5.4c0.5-0.5,1.1-0.8,1.4-1.4
				c0.4-0.5,0.5-1.2,0.8-2.2c0.5,0.9,0.8,1.5,1,2.1c1.3,0.5,2.6,0.9,3.8,1.4c0.2,0.1,0.3,0.5,0.6,1.2c-1.7-0.5-3-0.8-4.6-1.2
				c0,1.5,0,2.7,0,4c0.4,0.1,0.9,0.2,1.3,0.3c1.7,0.3,2.5,1.1,2.7,2.5c0.1,1.4-0.3,2.1-2,2.8c-1.8,0.8-1.8,0.8-2.6,2.7
				c-0.4-0.8-0.7-1.4-1-1.9c-3-0.6-3.7-0.4-2.6-3.1c0.3,0.3,0.6,0.5,0.6,0.8c0.1,0.7,0.6,1,1.1,0.7c0.4-0.2,0.8-0.7,0.9-1.1
				C149.5,189.6,149.4,189,149.4,188.5z M150.9,191.1c2-0.2,2.8-0.7,2.8-1.5c0-1.1-1-1.6-2.8-1.4
				C150.9,189.1,150.9,190.1,150.9,191.1z M149.3,183.3c-1.2,0.7-1.7,1.5-1.5,2.5c0.1,0.4,0.7,0.7,1.5,1.4
				C149.3,185.5,149.3,184.6,149.3,183.3z"/>
		</g>
	</g>
	<path class="st1" d="M293.5,222.5c0-3.3,1.6-5.6,3.9-5.7c3.6-0.1,5.9,1.8,6,4.9c0,3.5-2,5.8-5.1,5.9
		C295.1,227.7,293.5,226,293.5,222.5z M301.3,222.3c0.2-1.8-0.6-2.9-2.1-3c-2-0.2-3.7,0.9-3.9,2.7c-0.3,1.9,1,3.7,2.7,3.8
		C299.6,225.9,301.2,224.2,301.3,222.3z"/>
	<path class="st1" d="M350.7,452.2c-0.7-0.1-1.7,0-1.9-0.4c-1.7-2.6-3.9-4.9-4.1-8.4c-0.1-1.6-0.9-3.1-1.4-4.7c-2.7-8-5.4-16-8-24
		c-4.1-12.5-8.9-24.7-14.6-36.6c-3.6-7.5-7.4-14.9-10.9-22.5c-5.1-10.8-10-21.7-15.1-32.5c-6-12.7-12.9-25-20.7-36.7
		c-2.8-4.2-5.3-8.6-7.8-12.9c-1.9-3.2-2.1-3.3-5.6-2.3c-3.6,1-3.7,1.1-5.7-1.9c-4-5.9-8.5-11.5-11-18.3c-1.2-3.2-1.2-3.4,1.5-5.7
		c1.6-1.4,3.1-2.8,4.8-4.4c-1.2-2.6-2.9-4.4-5.2-5.6c-2.2-1.2-4.3-2.5-6.5-3.5c-8.2-3.5-14.4-9.7-20.4-15.9c-2.9-3.1-4.9-7.1-7-10.9
		c-3.2-5.6-6.1-11.4-10.2-16.4c-0.3-0.4-0.6-0.8-0.8-1.2c-2.1-5.1-6.1-7.9-11.1-9.6c-4.7-1.6-6.3-4.9-5.9-9.5
		c0.1-0.9,0.2-1.9,0.1-2.8c0-0.7-0.2-1.5-0.6-1.9c-2.9-2.4-3.8-5.5-4-9c-0.1-3.8,1.2-7.1,3.4-10.2c0.2-0.3,0.3-0.6,0.6-1
		c-0.9-2-1.9-4-2.6-6c-0.6-1.6-1.1-3.4-1.2-5.1c-0.2-3.5,1.4-5.8,4.7-7.1c1.5-0.6,3.1-0.9,5.3-1.6c-1.6-0.2-2.5-0.4-3.3-0.4
		c-5.8,0.1-9.7-3.3-12.9-7.5c-3-4.1-1-9.5,3.8-11c1.4-0.5,3-0.6,4.5-0.6c3.3-0.1,6.5,0,9.8,0c1.1-2.2,0.8-4.3,0.5-6.4
		c-1.1-11-2-22-1.7-33c0-1.4,0.2-2.7,0.3-4.5c6.1-0.1,12-0.3,17.8-0.3c10.7,0,21.3,1.2,32-0.4c3.1-0.4,3.6,0,3.5,3.1
		c-0.3,8.3-0.8,16.6-1.2,24.9c-0.2,3.5-0.5,7,0.5,10.8c1-1.8,1.7-3.4,2.6-4.9c0.5-0.8,1-1.6,1.6-2.3c1.6-1.6,3.3-3.1,5.9-2.4
		c2.7,0.7,3.3,2.8,3.5,5.1c0.5,6.1,3.4,11.1,7.2,15.7c0.5,0.6,1,1.4,1.2,2.1c2.9,8.8,5.9,17.6,8.6,26.4c0.7,2.4,0.6,5.1,0.6,7.6
		c0.1,10.8,0.2,21.6,0,32.4c-0.1,4.9,1.7,9,4.1,13.1c2,3.4,4.5,6.3,7.7,9.1c0.7-0.5,1.6-1.1,2.3-1.8c1.2-1.3,2.5-1.2,3.8-0.3
		c1.5,1,3,1.9,4.3,3.1c9.1,8.4,18.2,16.9,27.3,25.4c0.3,0.3,0.6,0.7,1.2,1.5c-1.4,0.8-2.6,1.6-3.9,2.4c-3.7,2.3-4.1,3.1-2.3,7.1
		c2.7,6,5.7,11.8,8.6,17.7c4.1,8.2,8.2,16.3,12.3,24.5c2.7,5.5,5.4,10.9,7.9,16.5c4.2,9.2,8.2,18.4,12.5,27.5
		c2.7,5.8,6.2,11.3,8.7,17.3c3.4,7.8,6.1,16,9.3,23.9c2.6,6.5,5.2,13.1,8,19.5c3.7,8.6,7.3,17.3,11.4,25.7c2.3,4.8,5.5,9.3,8.3,13.9
		c0.5,0.8,1.1,1.6,1.4,2.4c0.5,1.3,0.1,2.5-1.5,2.5c-2,0-3.4,1.3-5.1,2c-2.8,1.2-5.7,2.3-8.6,2.9c-5.9,1.2-11.6,2.6-16.7,6
		c-5.1,3.3-10.7,5.8-15.9,8.9c-2.6,1.5-4.7,3.8-7.1,5.7c-0.9,0.7-1.7,1.6-2.7,2.3c-0.8,0.6-1.8,0.7-2.3-0.5
		C347.9,454.9,349.3,453.5,350.7,452.2c4.9-4.6,11-7.5,16.6-11c2.4-1.5,5.2-2.3,7.5-3.7c3.6-2.2,7.3-3.7,11.4-4.4
		c2.6-0.5,5.3-0.9,7.9-1.8c3.4-1.2,6.8-2.8,10.3-4.4c-1.6-2.4-3.1-4.7-4.6-6.9c-4.6-7.1-7.9-14.9-11.3-22.6
		c-2.7-6.1-5.1-12.3-7.6-18.5c-2.2-5.5-4.6-11-6.5-16.7c-3.3-9.5-7-18.9-11.8-27.8c-4.7-8.9-9-18.1-13.2-27.2
		c-4.6-9.9-9-19.8-13.6-29.7c-2.1-4.5-4.3-8.9-6.5-13.2c-3.4-6.6-6.8-13.1-10.2-19.7c-1.5-2.9-2.7-5.9-4.2-9
		c-0.8,0.4-1.3,0.5-1.8,0.9c-4.8,3.7-9.7,7.4-14.4,11.3c-8.2,6.7-16.5,13.1-25.9,18.2c-2.1,1.1-4.2,2.5-6.7,4
		c3.9,6.4,7.5,12.7,11.5,18.8c7,10.9,13.3,22.1,18.8,33.8c5.1,10.8,10.2,21.6,15,32.5c5.8,13.1,13.2,25.4,18.1,38.9
		c4.6,12.9,9.3,25.8,13.9,38.7c1.8,5,3.6,9.9,5.3,14.9C349.5,448.9,350.1,450.5,350.7,452.2z M199.7,183.9c1.1,1.8,1.6,3,2.4,4
		c3.9,5,6.9,10.6,9.9,16.1c2.9,5.3,5.8,10.8,10.7,14.7c2.5,2.1,4.9,4.4,7.4,6.5c1.4,1.2,3,2.2,4.7,3.1c5.8,3.2,12.2,5.4,16.5,10.8
		c7.3-4.5,30.4-32.5,32.6-37.8c-0.4-0.6-0.8-1.4-1.4-1.9c-2.7-2.2-4.5-5.1-6.1-8.1c-0.7-1.2-1.4-2.4-2.3-3.5c-1-1.2-1.5-2.6-1.5-4.2
		c-0.1-3-0.3-6.1-0.4-9.1c-0.1-8.3-0.3-16.6,0.1-24.9c0.3-5.6,0.1-11-1.8-16.3c-2.5-6.8-4.7-13.7-7-20.6c-0.7-2-2-3.4-3.8-4.4
		c-1-0.6-2-1.2-3-1.9c-4-2.9-4.6-6.8-3.6-11.2c0.2-0.7,0.5-1.3,0.7-2c0.5-1.9-0.3-3.2-2.2-3c-1.3,0.1-2.8,0.8-3.6,1.7
		c-3.9,4.6-5.9,9.9-4.3,15.9c1.2,4.5,2.9,8.9,5.8,12.6c-2,6.8-2.1,13.4,2.5,20.1c-3.2-0.7-4.1,1-5,2.8c-2.3,4.5-4.9,8.8-6.9,13.4
		c-4.5,10.7-4.8,21,3.9,30c1.1,1.1,2.2,2.1,3.3,3.1c0.4,0.4,0.7,0.9,1.1,1.4c-3.4-0.9-5.4-3.4-7.1-5.9c-1.8-2.6-3.6-5.3-4.6-8.2
		c-1-2.9-0.9-6.2-1.4-9.7c-9.7,0.4-19.2,1.7-29.2,0c0.7,1.2,1,1.8,1.4,2.4c2.2,3.2,3.2,6.8,2.6,10.7c-0.5,3.5-2.8,5-6.2,4.1
		C202.8,184.5,201.7,184.3,199.7,183.9z M321.2,227.2c-1-0.5-1.6-0.7-2-1.1c-6.1-5.7-12.2-11.4-18.3-17c-2.7-2.5-5.3-5-8.1-7.3
		c-2.7-2.2-2.8-2.1-5.3,0.1c-1.1,0.9-2.1,1.9-3,3c-2.9,3.5-5.8,7.1-8.5,10.8c-8.2,11.5-18.6,21.1-28.7,30.9
		c-2.2,2.1-2.6,2.2-1.1,4.7c3.3,5.8,6.9,11.4,10.5,17.1c0.7,1.1,1.7,1.5,3,1c2.6-1,5.5-1.4,7.9-2.8c6.9-4.1,13.8-8.5,20.4-13
		c3.9-2.6,7.4-5.8,11.1-8.7C306.2,239,313.3,233.5,321.2,227.2z M197.9,143.5c1.5,0,2.7,0,4,0c7.5,0.1,15,0.1,22.5,0.3
		c4.4,0.1,8.9,0.6,13.3,0.6c2.7,0,3-0.4,3-3.1c0-5.7-0.1-11.5-0.2-17.2c0-5.9,0-11.7,0-17.6c0-3.2,0-6.3,0.1-9.5
		c0.1-5.6,0-11.2,0.3-16.8c0.4-5.4,0.6-5.3-5-5.4c-11-0.2-22,0.6-33-0.6c-2.5-0.3-5.2-0.2-7.7-0.2c-3.3,0.1-3.9,0.7-3.7,4
		c0.4,5.4,1,10.7,1.2,16.1c0.6,11,1,22,1.4,33c0.1,2.2,0.5,4.1,2,5.8c2.1,2.4,2.7,5.1,1.9,8.2C197.9,141.8,198,142.5,197.9,143.5z
		 M191.4,148.4c0.6,0.9,0.9,1.8,1.6,2.4c2.9,3,4.5,6.5,4.1,10.8c-0.1,0.6,0.5,1.7,1,2c2,0.9,4.1,1.9,6.2,2.3c3.6,0.6,7.2,0.9,10.8,1
		c6.8,0.3,13.6,0,20.4-1.1c1.6-4.4,3.3-8.6,4.8-12.9c0.4-1.3,0.3-2.8,0.4-4.2c0.1-1.7-0.8-2.3-2.4-2.3c-1.8,0-3.5,0.1-5.3-0.1
		c-11.3-1.3-22.7-1.1-34-1c-1,0-2.1,0.3-3,0.7C194.6,146.6,193.2,147.5,191.4,148.4z M242,61c-1.2-0.1-1.8-0.2-2.4-0.2
		c-7,0.2-14,0.5-21.1,0.6c-4.1,0.1-8.2-0.2-12.3-0.2c-4.2,0-8.4,0.1-12.6,0.4c-0.7,0-1.9,0.9-2,1.5c-0.4,3-0.6,6,0.3,9.2
		c4.3,0,8.4-0.1,12.5,0c4.1,0.1,8.2,0.5,12.3,0.6c4.1,0.1,8.2,0.1,12.3,0c4,0,8.1,0.2,12.3-0.2C241.6,68.7,241.8,65,242,61z
		 M191.5,121.3c0-4.4,0.1-8.8-0.1-13.2c0-0.6-0.9-1.5-1.4-1.6c-4.3-0.7-8.6-1.1-12.8,0.1c-4,1.2-5.1,5.3-2.4,8.6
		C179,120.3,184.8,122.4,191.5,121.3z M192,126.2c-3.2-0.4-5.9-0.4-8.5,1c-2.7,1.5-3.7,3.5-2.7,6.4c0.9,2.9,2.2,5.6,3.7,8.3
		c0.6,1.2,1.8,2.2,3,2.9c3.6,2.2,7.4,0.6,8.6-3.4c0.9-2.8,0.5-5.3-1.4-7.6C192.9,131.8,191.7,129.4,192,126.2z M195.9,179.5
		c0.3-1,0.5-1.5,0.7-2c0.8-2.6,1.8-3.4,4.3-2.9c1.8,0.3,3.4,1.3,5.1,2.1c0.9,0.4,1.7,1,2.7,1.6c0-7-6.7-12-11.2-13.3
		c-0.6-0.2-1.6,0.2-2.2,0.7c-2.3,1.5-4.8,1.7-7.4,0.9c-0.9-0.3-1.8-0.4-2.6-0.5c-1.3,4-0.9,7.5,1.4,8.8
		C189.6,176.6,192.7,177.9,195.9,179.5z M184.2,145.5c-2.2,1.8-2.4,2.5-3.5,6.2c-1.7,6,2.9,12.9,10.1,13.5c2.1,0.2,3.5-0.8,4-2.7
		c0.6-2.4,0.7-5-0.8-7.1C191.4,151.7,189.3,147.3,184.2,145.5z M242.5,148.1c2.4-3.7,4.3-6.8,6.4-10c-2.7-4.5-2.3-9.6-1.6-14.6
		c0.5-3.3-1.2-5.3-2.5-7.7c-0.4-0.7-1.6-1-3-1.7C242,125.6,242.2,136.4,242.5,148.1z M207.9,182.4c-0.2-0.5-0.2-1.1-0.5-1.4
		c-1.7-2.3-4.1-3.9-6.9-4.6c-1.2-0.3-1.9,0.6-1.9,1.9c0,3,4.8,6.4,7.7,5.5C207,183.5,207.4,182.9,207.9,182.4z M257.2,104
		c-0.9-2.5-1.5-4.6-2.4-7.3C254,100,254.8,102,257.2,104z M242.4,108.9c-0.3,0-0.5,0-0.8,0.1c0.2,0.9,0.4,1.7,0.6,2.6
		c0.2-0.1,0.5-0.1,0.7-0.2C242.7,110.6,242.6,109.7,242.4,108.9z"/>
	<path class="st1" d="M219.9,154.9c0,3-1.9,4.9-4.8,4.8c-3-0.1-5.3-2.2-5.4-4.9c-0.1-2.9,2.3-5.1,5.6-5
		C218.2,149.9,219.9,151.8,219.9,154.9z M215.2,151.8c-1.2-0.1-3.5,1.8-3.7,2.9c-0.1,1.2,1.7,2.9,3.4,3c1.6,0.1,3-1.2,3-2.7
		C218.1,153.5,216.6,151.9,215.2,151.8z"/>
	<path class="st1" d="M203.5,65.9c1.6-0.1,3.2-0.5,4.7-0.2c7.6,1.3,15.2-1.2,22.8,0.4c-2,1.7-4.3,0.8-6.5,1.2
		c-2.4,0.4-4.9,0.5-7.3,0.6c-2.3,0.1-4.7,0.1-7,0c-2.3-0.1-4.5-0.4-6.7-0.6C203.4,66.7,203.5,66.3,203.5,65.9z"/>
	<g>
		<g>
			<g>
				<path class="st1" d="M242.3,53.4c4.8-0.7,7.3,5,6.6,8.9c-0.2,1.3,1.7,1.8,1.9,0.5c1.1-5.6-2.6-12.3-9-11.4
					C240.5,51.7,241,53.6,242.3,53.4L242.3,53.4z"/>
			</g>
		</g>
		<g>
			<g>
				<path class="st1" d="M242.9,44.6c10.5-1.5,17.8,9.7,12.6,18.8c-0.6,1.1,1.1,2.1,1.7,1c2.9-5,2.8-11.5-0.7-16.2
					c-3.3-4.4-8.8-6.3-14.1-5.5C241.1,42.8,241.7,44.7,242.9,44.6L242.9,44.6z"/>
			</g>
		</g>
		<g>
			<g>
				<path class="st1" d="M241.4,32.6c8.5-1.1,17.3,2.2,22.5,9.1c4.5,6,7.7,16.9,1.8,23c-0.9,0.9,0.5,2.3,1.4,1.4
					c6.3-6.6,3.7-18.1-1-24.8c-5.5-7.9-15.1-12-24.7-10.8C240.2,30.8,240.1,32.8,241.4,32.6L241.4,32.6z"/>
			</g>
		</g>
	</g>
	<g>
		<text transform="matrix(1 0 0 1 201.7223 114.2018)" class="st1 st2 st3">PAY</text>
	</g>
	<g>
		<g>
			<path class="st4" d="M219.2,228.8c-37,12.8-79.5,8.5-113.3-11.3c-8.4-4.9-16.4-11-21.4-19.4c-4.9-8.4-6.1-19.5-0.9-27.7
				c10.1-15.8,36.3-12.8,47.7-27.7c7-9.1,5.2-23.6-3.5-30.9"/>
			<g>
				<path class="st1" d="M139.5,112.5c0,0.4-0.4,0.7-0.8,0.6l-10.7-1.1l3.5,10.1c0.1,0.4-0.1,0.8-0.4,0.9c-0.4,0.1-0.8-0.1-0.9-0.4
					l-3.8-11.2c-0.1-0.2,0-0.5,0.1-0.7s0.4-0.3,0.6-0.3l11.7,1.2c0.1,0,0.3,0.1,0.4,0.1C139.4,112.1,139.5,112.3,139.5,112.5z"/>
			</g>
		</g>
	</g>
</g>
<g id="DESIGNED_BY_FREEPIK">
</g>
</svg>
