<?xml version="1.0" encoding="utf-8"?>
<!-- Generator: Adobe Illustrator 21.0.0, SVG Export Plug-In . SVG Version: 6.00 Build 0)  -->
<svg version="1.1" xmlns="http://www.w3.org/2000/svg" xmlns:xlink="http://www.w3.org/1999/xlink" x="0px" y="0px"
	 viewBox="0 0 500 500" style="enable-background:new 0 0 500 500;" xml:space="preserve">
<style type="text/css">
	.st0{fill:#5B80B9;}
	.st1{fill:#BED8F5;}
	.st2{fill:none;stroke:#5B80B9;stroke-width:2;stroke-linecap:round;stroke-linejoin:round;}
	.st3{fill:none;stroke:#5B80B9;stroke-width:2;stroke-linecap:round;stroke-linejoin:round;stroke-dasharray:5.0421,7.059;}
</style>
<g id="BACKGROUND">
</g>
<g id="OBJECTS">
	<g>
		<path class="st0" d="M373.2,234.2c3.7-1.5,4.5-4.7,4.9-8.1c0.3-2.3-0.4-4.4-1.6-6.4c0,0,0.1,0,0.1,0c-2-1.9-7.1-4.1-7-3.9
			c-1-0.1-2-0.3-3-0.1c-3.2,0.5-6,2-7.8,4.7c-1.1,1.7-1.8,3.8-1.1,5.8c0.9,2.6,2.2,5.1,4.6,6.9c0.7,0.5,1.3,0.9,1.8,1.2
			C366.9,235.6,373.1,234.3,373.2,234.2z M360.3,229.3c-0.3-0.6-0.7-1.2-1-1.8c-1.3-2.4-1.1-4.9,0.7-6.9c0.9-1,1.9-2,3-2.9
			c1.5-1.1,3.3-1,5-1.1c2.5,0,4.6,1,6.4,2.5c2.5,2.1,3.1,4.9,2.7,8c-0.1,0.5-0.2,1-0.4,1.5c-0.7,1.7-1.2,3.6-3.2,4.3
			c-2.8,1.1-5.6,1.6-8.5,0.5C363,232.6,361.4,231.3,360.3,229.3z"/>
		<path class="st0" d="M367.2,225.9c-0.3-0.2-0.4-0.3-0.5-0.3c-2.2-0.9-2.6-2.5-0.9-4.2c0.4-0.4,0.8-0.7,1.1-1.1
			c0.3-0.4,0.4-0.9,0.7-1.7c0.4,0.7,0.6,1.2,0.8,1.6c1,0.4,2,0.7,3,1.1c0.1,0.1,0.2,0.4,0.5,0.9c-1.3-0.4-2.3-0.6-3.5-0.9
			c0,1.2,0,2.1,0,3.1c0.3,0.1,0.7,0.2,1,0.2c1.3,0.2,2,0.9,2.1,2c0.1,1.1-0.3,1.7-1.5,2.2c-1.4,0.6-1.4,0.6-2,2.1
			c-0.3-0.6-0.5-1.1-0.8-1.5c-2.3-0.5-2.8-0.3-2-2.4c0.2,0.2,0.5,0.4,0.5,0.6c0.1,0.5,0.4,0.8,0.9,0.6c0.3-0.1,0.6-0.5,0.7-0.8
			C367.3,226.7,367.2,226.2,367.2,225.9z M368.4,227.9c1.6-0.1,2.2-0.5,2.2-1.2c0-0.8-0.8-1.2-2.2-1.1
			C368.4,226.4,368.4,227.1,368.4,227.9z M367.1,221.8c-0.9,0.5-1.3,1.1-1.2,1.9c0.1,0.3,0.6,0.5,1.2,1.1
			C367.1,223.6,367.1,222.8,367.1,221.8z"/>
	</g>
	<g>
		<g>
			<path class="st1" d="M211.3,249.2c4.8-1.9,5.8-6,6.3-10.5c0.3-2.9-0.5-5.6-2-8.3c0,0,0.1,0,0.1,0c-2.6-2.4-9.2-5.3-9.1-5
				c-1.3-0.1-2.6-0.3-3.8-0.2c-4.1,0.7-7.7,2.5-10,6.1c-1.5,2.2-2.3,4.9-1.4,7.5c1.2,3.4,2.8,6.6,5.9,8.8c0.8,0.6,1.7,1.1,2.3,1.5
				C203.2,251,211.1,249.2,211.3,249.2z M194.7,242.9c-0.4-0.8-0.8-1.6-1.3-2.4c-1.6-3-1.4-6.3,0.9-8.9c1.2-1.3,2.5-2.6,3.9-3.7
				c1.9-1.4,4.2-1.3,6.4-1.4c3.2-0.1,5.9,1.3,8.2,3.2c3.2,2.6,4,6.3,3.4,10.3c-0.1,0.7-0.3,1.3-0.5,1.9c-0.9,2.2-1.5,4.6-4.1,5.6
				c-3.6,1.4-7.2,2.1-10.9,0.6C198.2,247.1,196.1,245.4,194.7,242.9z"/>
			<path class="st1" d="M203.6,238.4c-0.4-0.3-0.5-0.4-0.6-0.4c-2.8-1.1-3.3-3.2-1.1-5.4c0.5-0.5,1.1-0.8,1.4-1.4
				c0.4-0.5,0.5-1.2,0.8-2.2c0.5,0.9,0.8,1.5,1,2.1c1.3,0.5,2.6,0.9,3.8,1.4c0.2,0.1,0.3,0.5,0.6,1.2c-1.7-0.5-3-0.8-4.6-1.2
				c0,1.5,0,2.7,0,4c0.4,0.1,0.9,0.2,1.3,0.3c1.7,0.3,2.5,1.1,2.7,2.5c0.1,1.4-0.3,2.1-2,2.8c-1.8,0.8-1.8,0.8-2.6,2.7
				c-0.4-0.8-0.7-1.4-1-1.9c-3-0.6-3.7-0.4-2.6-3.1c0.3,0.3,0.6,0.5,0.6,0.8c0.1,0.7,0.6,1,1.1,0.7c0.4-0.2,0.8-0.7,0.9-1.1
				C203.7,239.5,203.6,238.9,203.6,238.4z M205.1,241c2-0.2,2.8-0.7,2.8-1.5c0-1.1-1-1.6-2.8-1.4C205.1,239,205.1,240,205.1,241z
				 M203.4,233.2c-1.2,0.7-1.7,1.5-1.5,2.5c0.1,0.4,0.7,0.7,1.5,1.4C203.4,235.4,203.4,234.5,203.4,233.2z"/>
		</g>
	</g>
	<g>
		<g>
			<path class="st2" d="M321.9,239.9c-0.6-0.6-1.3-1.1-1.9-1.6"/>
			<path class="st3" d="M314.1,234.4c-9.9-5.5-21.8-7.4-33.1-5.5c-15,2.6-28.5,11.5-37.9,23.4c-9.2,11.7-15.1,26.5-27.3,35
				c-9.8,6.8-22.9,8.5-34.1,4.3c-11.1-4.2-20-14-22.9-25.5c-4.4-17.3,4.6-36,18.5-47.2c13.9-11.3,31.8-16.3,49.4-19.2
				c6.4-1,13-1.9,18.4-5.6c3.6-2.5,6.3-6.7,6.7-11"/>
			<path class="st2" d="M251.4,179.6c-0.2-0.8-0.5-1.6-0.9-2.3"/>
			<g>
				<path class="st0" d="M319.1,227.5c-0.4,0.1-0.6,0.5-0.5,0.9l3.1,11.2l-11.5-2c-0.4-0.1-0.8,0.2-0.9,0.6
					c-0.1,0.4,0.2,0.8,0.6,0.9l12.6,2.2c0.3,0,0.5,0,0.7-0.2s0.2-0.5,0.2-0.7l-3.4-12.4c0-0.1-0.1-0.3-0.2-0.4
					C319.6,227.5,319.4,227.5,319.1,227.5z"/>
			</g>
		</g>
	</g>
</g>
<g id="DESIGNED_BY_FREEPIK">
</g>
</svg>
