<svg id="api" xmlns="http://www.w3.org/2000/svg" xmlns:xlink="http://www.w3.org/1999/xlink" width="122.875" height="122.875" viewBox="0 0 122.875 122.875">
  <defs>
    <style>
      .cls-1 {
        fill: #d4d4d4;
      }

      .cls-1, .cls-2 {
        fill-rule: evenodd;
      }

      .cls-2 {
        fill: url(#linear-gradient);
      }
    </style>
    <linearGradient id="linear-gradient" x1="431.563" y1="724" x2="554.438" y2="724" gradientUnits="userSpaceOnUse">
      <stop offset="0" stop-color="#4070F4"/>
      <stop offset="1" stop-color="#4070F4"/>
    </linearGradient>
  </defs>
  <path id="Forma_1_копия" data-name="Forma 1 копия" class="cls-1" d="M503.581,695.153a2.4,2.4,0,0,0-1.654,4.506,25.92,25.92,0,1,1-19.424.633,2.4,2.4,0,0,0-1.945-4.388A30.718,30.718,0,1,0,503.581,695.153Zm-10.456-1.873H493a2.4,2.4,0,1,0,0,4.8h0.12A2.4,2.4,0,0,0,493.125,693.28Zm53.155-30.72a8.155,8.155,0,0,0-7.211,11.973l-9.182,9.182a2.4,2.4,0,1,0,3.394,3.394l9.18-9.181A8.159,8.159,0,1,0,546.28,662.56Zm0,11.52a3.36,3.36,0,1,1,3.36-3.36A3.363,3.363,0,0,1,546.28,674.08Zm-90.172,86.81a2.4,2.4,0,0,0-3.394,0l-9.179,9.179a8.167,8.167,0,1,0,3.394,3.394l9.179-9.179A2.4,2.4,0,0,0,456.108,760.89ZM439.72,780.64a3.36,3.36,0,1,1,3.359-3.36A3.363,3.363,0,0,1,439.72,780.64Zm93.562-19.75a2.4,2.4,0,1,0,.7,1.7A2.43,2.43,0,0,0,533.282,760.89Zm13,8.23a8.1,8.1,0,0,0-3.818.952l-4.055-4.055a2.4,2.4,0,1,0-3.394,3.394l4.056,4.057A8.158,8.158,0,1,0,546.28,769.12Zm0,11.52a3.36,3.36,0,1,1,3.36-3.36A3.363,3.363,0,0,1,546.28,780.64Zm-90.172-96.925-9.179-9.179a8.167,8.167,0,1,0-3.394,3.394l9.179,9.179A2.4,2.4,0,0,0,456.108,683.715ZM439.72,674.08a3.36,3.36,0,1,1,3.359-3.36A3.363,3.363,0,0,1,439.72,674.08Z" transform="translate(-431.563 -662.563)"/>
  <path id="Прямоугольник_9" data-name="Прямоугольник 9" class="cls-2" d="M552.036,726.4h-10.56v4.63a2.4,2.4,0,0,1-1.82,2.329l-7.106,1.771-3.716,8.966,3.771,6.275a2.4,2.4,0,0,1-.36,2.933l-9.944,9.945a2.4,2.4,0,0,1-2.933.36l-6.274-3.772-8.967,3.716-1.77,7.107a2.4,2.4,0,0,1-2.329,1.82H495.4v10.56a2.4,2.4,0,0,1-4.8,0V772.48h-4.63a2.4,2.4,0,0,1-2.329-1.82l-1.771-7.107-8.966-3.716-6.274,3.772a2.4,2.4,0,0,1-2.934-.36L453.75,753.3a2.4,2.4,0,0,1-.36-2.933l3.772-6.275-3.716-8.966-7.107-1.771a2.4,2.4,0,0,1-1.82-2.329V726.4H433.96a2.4,2.4,0,0,1,0-4.8h10.559v-4.63a2.4,2.4,0,0,1,1.82-2.329l7.107-1.771,3.716-8.966-3.772-6.275a2.4,2.4,0,0,1,.36-2.933l9.944-9.945a2.4,2.4,0,0,1,2.934-.36l6.274,3.772,8.966-3.716,1.771-7.107a2.4,2.4,0,0,1,2.328-1.82H490.6V664.96a2.4,2.4,0,1,1,4.8,0v10.56h4.629a2.4,2.4,0,0,1,2.329,1.82l1.77,7.107,8.967,3.716,6.274-3.772a2.4,2.4,0,0,1,2.933.36l9.944,9.945a2.4,2.4,0,0,1,.36,2.933l-3.771,6.275,3.716,8.966,7.107,1.771a2.4,2.4,0,0,1,1.82,2.329v4.63h10.559A2.4,2.4,0,1,1,552.036,726.4Zm-15.36-7.555-6.461-1.61a2.4,2.4,0,0,1-1.637-1.41l-4.642-11.2a2.4,2.4,0,0,1,.16-2.155l3.428-5.7-7.291-7.292-5.7,3.428a2.4,2.4,0,0,1-2.155.16l-11.2-4.642a2.4,2.4,0,0,1-1.41-1.637l-1.61-6.461H487.843l-1.61,6.461a2.4,2.4,0,0,1-1.41,1.637l-11.2,4.642a2.4,2.4,0,0,1-2.155-.16l-5.7-3.428-7.292,7.292,3.429,5.7a2.4,2.4,0,0,1,.16,2.155l-4.642,11.2a2.4,2.4,0,0,1-1.637,1.41l-6.461,1.61v10.31l6.46,1.61a2.4,2.4,0,0,1,1.638,1.41l4.642,11.2a2.4,2.4,0,0,1-.16,2.155l-3.429,5.7,7.292,7.293,5.7-3.429a2.4,2.4,0,0,1,2.155-.16l11.2,4.642a2.4,2.4,0,0,1,1.41,1.637l1.61,6.461h10.309l1.61-6.461a2.4,2.4,0,0,1,1.41-1.637l11.2-4.642a2.4,2.4,0,0,1,2.155.16l5.7,3.429,7.292-7.293-3.429-5.7a2.4,2.4,0,0,1-.16-2.155l4.642-11.2a2.4,2.4,0,0,1,1.637-1.41l6.461-1.61v-10.31Zm-26.388,14.876a2.5,2.5,0,0,1-2.5-2.5V716.649a2.5,2.5,0,0,1,5,0V731.22A2.5,2.5,0,0,1,510.288,733.721Zm-12.123-6.177h-2.651v3.676a2.5,2.5,0,0,1-5,0V716.649a2.5,2.5,0,0,1,2.5-2.5h5.151a6.332,6.332,0,0,1,6.325,6.325v0.745A6.332,6.332,0,0,1,498.165,727.544Zm1.325-7.07a1.327,1.327,0,0,0-1.325-1.326h-2.651v3.4h2.651a1.327,1.327,0,0,0,1.325-1.326v-0.744ZM485.541,734.1a2.5,2.5,0,0,1-2.3-1.515L482,730h-6l-1,2.588a2.5,2.5,0,0,1-4.6-1.971l6.416-14.954a2.5,2.5,0,0,1,4.6,0l6.417,14.954A2.5,2.5,0,0,1,485.541,734.1Zm-6.418-12.115-2.225,3.856h4.45Z" transform="translate(-431.563 -662.563)"/>
</svg>
