<svg width="12" height="17" viewBox="0 0 12 17" fill="none" xmlns="http://www.w3.org/2000/svg">
<path d="M0.758337 6.08333C1.08334 6.40833 1.60834 6.40833 1.93334 6.08333L5.16667 2.85833V15.5C5.16667 15.9583 5.54167 16.3333 6 16.3333C6.45834 16.3333 6.83334 15.9583 6.83334 15.5V2.85833L10.0667 6.09167C10.3917 6.41667 10.9167 6.41667 11.2417 6.09167C11.5667 5.76667 11.5667 5.24167 11.2417 4.91667L6.58334 0.249999C6.25834 -0.0750015 5.73334 -0.0750015 5.40834 0.249999L0.758337 4.90833C0.433337 5.23333 0.433337 5.76667 0.758337 6.08333Z" fill="url(#paint0_linear)"/>
<defs>
<linearGradient id="paint0_linear" x1="9.93122" y1="3.3416" x2="1.934" y2="4.33482" gradientUnits="userSpaceOnUse">
<stop stop-color="#4171F4"/>
<stop offset="1" stop-color="#83A1F7"/>
</linearGradient>
</defs>
</svg>
