<svg width="204" height="204" viewBox="0 0 204 204" fill="none" xmlns="http://www.w3.org/2000/svg">
<path d="M102 0C158.352 0 204 45.6482 204 102C204 158.352 158.352 204 102 204" fill="#E2EAFD"/>
<path d="M102 203.843C45.6482 203.843 0 158.194 0 102C0 45.6482 45.6482 0 102 0" fill="#E2EAFD"/>
<path d="M102 136.63C123.908 136.63 141.667 113.655 141.667 85.3148C141.667 56.9744 123.908 34 102 34C80.0929 34 62.3336 56.9744 62.3336 85.3148C62.3336 113.655 80.0929 136.63 102 136.63Z" fill="white"/>
<path d="M102 203.843C134.111 203.843 162.759 189.046 181.491 165.75C164.491 150.324 135.213 140.25 102 140.25C68.787 140.25 39.6666 150.324 22.5092 165.75C41.2407 189.046 69.8889 203.843 102 203.843Z" fill="white"/>
<path d="M106.407 166.694H97.5924C89.2498 166.694 82.4813 159.926 82.4813 151.583V117.111C82.4813 108.769 89.2498 102 97.5924 102H106.407C114.75 102 121.518 108.769 121.518 117.111V151.583C121.518 159.926 114.75 166.694 106.407 166.694Z" fill="white"/>
<path d="M67.6851 87.6757C70.0462 94.2869 69.1018 100.741 65.6388 101.842C62.1758 102.944 57.611 98.5369 55.2499 91.9257C52.8888 85.3146 53.8333 78.8609 57.2962 77.7591C60.7592 76.4998 65.4814 80.9072 67.6851 87.6757Z" fill="white"/>
<path d="M148.516 91.9746C150.825 85.3224 149.901 78.9588 146.452 77.7612C143.003 76.5636 138.334 80.9855 136.024 87.6377C133.715 94.2899 134.639 100.653 138.088 101.851C141.537 103.049 146.206 98.6268 148.516 91.9746Z" fill="white"/>
<path d="M67.213 87.3609C62.0186 77.9165 56.8241 67.9998 56.9815 57.2961C57.2964 46.5924 65.3241 35.2591 76.0278 35.7313C77.9167 35.7313 79.8056 36.2035 81.5371 35.8887C85.1575 35.4165 87.9908 32.2683 90.9815 30.0646C97.7501 25.0276 107.195 23.9257 114.907 27.0739C119.787 28.9628 123.88 32.4257 128.445 34.6295C137.259 38.722 147.963 38.4072 156.463 33.5276C154.732 36.8332 151.741 39.5091 148.278 40.7683C151.426 41.7128 155.046 41.7128 158.195 40.4535C156.306 43.9165 153.157 46.5924 149.537 48.0091C152.213 48.1665 154.889 48.3239 157.722 48.6387C155.361 51.9443 152.056 54.4628 148.278 55.8794C150.482 55.8794 152.528 56.0369 154.732 56.0369C153.157 60.7591 149.065 64.5369 144.185 65.6387C145.602 65.6387 146.861 65.6387 148.278 65.6387C143.713 72.0924 139.306 78.5461 134.741 85.1572C133.482 87.0461 132.065 88.935 130.176 90.1943C128.602 91.1387 126.713 91.6109 124.982 92.0832C111.602 95.0739 97.9075 96.0183 84.3704 94.7591C79.6482 94.2869 74.926 93.4998 71.1482 90.6665C67.5278 87.8331 65.4815 82.1665 68.0001 78.3887" fill="white"/>
<path d="M76.3425 150.009C76.6573 144.657 77.2869 139.305 78.3888 133.954C81.0647 136.944 85.6295 137.417 89.5647 137.574C95.7036 137.889 101.842 138.046 107.824 138.361C108.611 142.454 109.083 147.491 106.092 150.324C104.676 151.741 102.787 152.37 100.898 152.843C96.8054 153.944 92.5554 154.574 88.3054 154.574C83.2684 154.574 77.1295 153.157 75.5555 148.278C76.0277 147.805 76.6573 147.333 77.1295 146.861" fill="white"/>
<path d="M127.5 150.009C127.185 144.657 126.556 139.305 125.454 133.954C122.778 136.944 118.213 137.417 114.278 137.574C108.139 137.889 102 138.046 96.0186 138.361C95.2316 142.454 94.7593 147.491 97.7501 150.324C99.1667 151.741 101.056 152.37 102.945 152.843C107.037 153.944 111.287 154.574 115.537 154.574C120.574 154.574 126.713 153.157 128.287 148.278C127.815 147.805 127.185 147.333 126.713 146.861" fill="white"/>
</svg>
