<svg width="532" height="846" viewBox="0 0 532 846" fill="none" xmlns="http://www.w3.org/2000/svg">
<path d="M8.5055 737.197L-1.70516 630.141L-30.65 598.25L-121.143 594.351L-137.333 531.496L-210.158 481.27L-121.408 412.836L-160.001 370.314L-118.035 309.202L-32.3341 284.734L-64.1737 205.79L65.8001 45.4147L179.771 170.986L231.611 154.228L314.827 245.915L327.57 311.899L454.702 374.634L456.073 431.551L384.267 496.723L374.724 563.546L283.165 588.485L220.55 645.315L250.409 715.151L154.477 802.22L8.5055 737.197Z" stroke="#4574F5" stroke-opacity="0.25"/>
<path d="M115.137 463.044L99.5658 456.141L85.757 440.926L85.7741 421.552L95.3178 407.857L91.9376 399.439L105.857 382.288L117.996 395.663L133.743 410.666L147.303 417.331L147.435 423.405L139.751 430.379L122.232 446.28L125.403 453.727L115.137 463.044Z" stroke="#4574F5" stroke-opacity="0.25"/>
<path d="M15.9126 716.021L5.88851 616.934L-21.892 586.326L-105.424 581.982L-120.367 523.217L-187.224 476.327L-104.933 412.631L-140.818 372.732L-101.544 315.662L-21.9005 292.417L-50.8241 220.06L69.6187 72.535L175.428 189.024L223.886 174.132L301.744 259.279L313.512 320.421L430.87 378.563L431.84 431.371L365.262 491.798L355.105 554.704L270.711 578.011L213.035 630.755L240.202 695.578L151.254 776.308L15.9126 716.021Z" stroke="#4574F5" stroke-opacity="0.25"/>
<path d="M23.3202 694.845L13.4826 603.728L-13.1336 574.402L-89.7036 569.613L-103.401 514.938L-164.289 471.385L-88.4579 412.426L-121.634 375.151L-85.0532 322.122L-11.4663 300.099L-37.4738 234.329L73.4378 99.655L171.086 207.062L216.162 194.036L288.662 272.643L299.455 328.942L407.038 382.493L407.607 431.19L346.257 486.872L335.487 545.861L258.257 567.536L205.52 616.196L229.995 676.004L148.032 750.396L23.3202 694.845Z" stroke="#4574F5" stroke-opacity="0.25"/>
<path d="M30.7274 673.669L21.0763 590.521L-4.37558 562.479L-73.9839 557.244L-86.4356 506.659L-141.354 466.443L-71.983 412.221L-102.45 377.569L-68.5624 328.582L-1.03262 307.781L-24.124 248.598L77.2565 126.775L166.743 225.1L208.437 213.941L275.579 286.007L285.397 337.464L383.205 386.423L383.374 431.01L327.252 481.947L315.868 537.019L245.804 557.062L198.004 601.636L219.788 656.432L144.809 724.483L30.7274 673.669Z" stroke="#4574F5" stroke-opacity="0.25"/>
<path d="M38.1345 652.493L28.6701 577.315L4.38245 550.555L-58.2642 544.876L-69.4698 498.38L-118.419 461.5L-55.5082 412.016L-83.2666 379.988L-52.0717 335.041L9.40109 315.463L-10.7742 262.868L81.0752 153.896L162.401 243.138L200.712 233.845L262.496 299.371L271.339 345.986L359.373 390.353L359.141 430.83L308.247 477.022L296.249 528.177L233.35 546.588L190.489 587.077L209.581 636.859L141.587 698.571L38.1345 652.493Z" stroke="#4574F5" stroke-opacity="0.25"/>
<path d="M45.5421 631.317L36.2642 564.108L13.1409 538.631L-42.544 532.506L-52.5037 490.1L-95.4839 456.558L-39.0329 411.811L-64.0826 382.406L-35.5805 341.501L19.8352 323.146L2.57604 277.137L84.8943 181.016L158.058 261.176L192.988 253.749L249.414 312.735L257.281 354.508L335.541 394.282L334.908 430.649L289.242 472.096L276.631 519.334L220.896 536.113L182.974 572.518L199.375 617.285L138.365 672.659L45.5421 631.317Z" stroke="#4574F5" stroke-opacity="0.25"/>
<path d="M52.9492 610.141L43.8578 550.902L21.8989 526.707L-26.8244 520.137L-35.538 481.821L-72.5493 451.616L-22.5581 411.606L-44.8992 384.825L-19.0898 347.961L30.2689 330.828L15.9257 291.406L88.713 208.136L153.716 279.214L185.264 273.653L236.331 326.099L243.223 363.03L311.709 398.212L310.674 430.469L270.236 467.171L257.012 510.492L208.442 525.639L175.458 557.958L189.167 597.712L135.142 646.746L52.9492 610.141Z" stroke="#4574F5" stroke-opacity="0.25"/>
<path d="M60.3565 588.965L51.4516 537.695L30.657 514.784L-11.1046 507.769L-18.5722 473.542L-49.6144 446.674L-6.08318 411.402L-25.7155 387.243L-2.59903 354.421L40.7027 338.51L29.2756 305.675L92.5317 235.257L149.373 297.252L177.539 293.557L223.248 339.463L229.165 371.552L287.877 402.142L286.441 430.289L251.231 462.246L237.393 501.65L195.989 515.165L167.943 543.399L178.96 578.139L131.92 620.834L60.3565 588.965Z" stroke="#4574F5" stroke-opacity="0.25"/>
<path d="M67.7637 567.789L59.0454 524.489L39.415 502.86L4.61515 495.4L-1.60641 465.263L-26.6797 441.731L10.3917 411.197L-6.53198 389.662L13.8917 360.88L51.1364 346.193L42.6254 319.945L96.3504 262.377L145.031 315.29L169.814 313.461L210.165 352.827L215.107 380.074L264.045 406.072L262.208 430.109L232.226 457.321L217.774 492.808L183.535 504.691L160.428 528.84L168.753 558.567L128.698 594.922L67.7637 567.789Z" stroke="#4574F5" stroke-opacity="0.25"/>
<path d="M75.1712 546.612L66.6394 511.282L48.1734 490.936L20.3352 483.031L15.3597 456.984L-3.74455 436.789L26.8669 410.992L12.6519 392.08L30.3828 367.34L61.5705 353.875L55.9756 334.214L100.169 289.497L140.688 333.328L162.09 333.365L197.083 366.19L201.05 388.596L240.213 410.002L237.975 429.929L213.221 452.396L198.156 483.965L171.081 494.216L152.913 514.28L158.547 538.993L125.475 569.009L75.1712 546.612Z" stroke="#4574F5" stroke-opacity="0.25"/>
<path d="M82.5784 525.436L74.2332 498.076L56.9315 479.013L36.0549 470.662L32.3254 448.705L19.1902 431.847L43.3418 410.787L31.8355 394.499L46.8736 373.8L72.0042 361.557L69.3254 348.483L103.988 316.617L136.346 351.366L154.366 353.269L184 379.554L186.992 397.118L216.381 413.931L213.742 429.749L194.216 447.471L178.537 475.123L158.627 483.742L145.397 499.721L148.34 519.42L122.253 543.097L82.5784 525.436Z" stroke="#4574F5" stroke-opacity="0.25"/>
<path d="M89.9855 504.26L81.8269 484.869L65.6895 467.089L51.7746 458.293L49.2912 440.426L42.125 426.905L59.8166 410.582L51.019 396.917L63.3643 380.26L82.4379 369.239L82.6752 362.753L107.807 343.738L132.003 369.404L146.641 373.174L170.917 392.918L172.934 405.64L192.548 417.861L189.508 429.568L175.21 442.545L158.918 466.281L146.173 473.268L137.882 485.161L138.133 499.847L119.03 517.185L89.9855 504.26Z" stroke="#4574F5" stroke-opacity="0.25"/>
<path d="M97.393 483.084L89.4209 471.662L74.4478 455.165L67.4947 445.923L66.2572 432.147L65.0601 421.962L76.2918 410.377L70.2029 399.336L79.8553 386.719L92.872 376.921L96.0253 377.022L111.626 370.858L127.661 387.442L138.917 393.078L157.835 406.282L158.876 414.161L168.716 421.791L165.275 429.388L156.205 437.62L139.299 457.438L133.72 462.793L130.367 470.602L127.926 480.274L115.808 491.272L97.393 483.084Z" stroke="#4574F5" stroke-opacity="0.25"/>
</svg>
