<svg width="471" height="806" viewBox="0 0 471 806" fill="none" xmlns="http://www.w3.org/2000/svg">
<path d="M411.356 72.5776L454.46 171.104L491.91 192.372L579.102 167.841L614.095 222.507L698.956 247.504L635.988 340.212L685.922 368.57L665.118 439.724L591.33 489.711L646.212 554.779L572.765 747.702L425.305 663.959L381.281 696.055L273.612 634.91L240.917 576.196L100.558 556.26L81.4966 502.612L129.383 418.289L117.6 351.824L196.808 299.563L238.565 226.034L188.407 169L252.384 56.3452L411.356 72.5776Z" stroke="#4574F5" stroke-opacity="0.25"/>
<path d="M395.586 366.315L412.534 368.015L430.401 378.162L436.429 396.574L431.635 412.563L437.473 419.507L429.6 440.144L413.894 431.224L394.252 421.883L379.289 419.783L377.268 414.052L382.393 405.029L394.076 384.455L388.74 378.37L395.586 366.315Z" stroke="#4574F5" stroke-opacity="0.25"/>
<path d="M410.926 95.0076L451.366 186.02L487.31 206.433L568.026 184.497L600.56 235.666L678.709 259.355L620.4 345.547L666.942 372.258L647.436 438.732L579.021 485.667L629.076 545.388L560.676 723.127L423.803 645.467L382.41 674.735L281.872 618.131L251.615 563.714L121.975 545.09L104.576 495.222L148.977 417.039L138.999 354.104L211.908 305.629L250.248 237.521L204.212 184.411L263.531 79.9584L410.926 95.0076Z" stroke="#4574F5" stroke-opacity="0.25"/>
<path d="M410.495 117.438L448.271 200.937L482.709 220.494L556.95 201.153L587.024 248.826L658.46 271.207L604.811 350.883L647.961 375.946L629.752 437.741L566.71 481.624L611.94 535.996L548.585 698.553L422.3 626.975L383.538 653.414L290.131 601.353L262.311 551.231L143.391 533.921L127.656 487.833L168.57 415.789L160.397 356.384L227.008 311.695L261.931 249.009L220.016 199.823L274.677 103.572L410.495 117.438Z" stroke="#4574F5" stroke-opacity="0.25"/>
<path d="M410.065 139.868L445.177 215.854L478.108 234.555L545.875 217.809L573.488 261.985L638.213 283.058L589.223 356.218L628.981 379.633L612.069 436.749L554.401 477.581L594.805 526.604L536.495 673.977L420.798 608.482L384.667 632.094L298.392 584.574L273.009 538.748L164.807 522.751L150.736 480.443L188.163 414.538L181.795 358.663L242.108 317.76L273.614 260.497L235.821 215.234L285.823 127.185L410.065 139.868Z" stroke="#4574F5" stroke-opacity="0.25"/>
<path d="M409.635 162.298L442.083 230.77L473.508 248.616L534.799 234.466L559.952 275.144L617.965 294.909L573.634 361.552L610 383.321L594.386 435.757L542.091 473.537L577.669 517.213L524.406 649.403L419.295 589.99L385.796 610.773L306.651 567.795L283.706 526.266L186.223 511.582L173.815 473.053L207.756 413.287L203.194 360.943L257.209 323.826L285.297 271.984L251.625 230.645L296.97 150.799L409.635 162.298Z" stroke="#4574F5" stroke-opacity="0.25"/>
<path d="M409.204 184.728L438.989 245.687L468.907 262.678L523.723 251.122L546.416 288.304L597.717 306.761L558.045 366.888L591.019 387.009L576.703 434.765L529.78 469.494L560.533 507.821L512.315 624.828L417.793 571.497L386.924 589.453L314.911 551.017L294.403 513.783L207.639 500.413L196.895 465.663L227.349 412.037L224.592 363.223L272.309 329.892L296.979 283.472L267.429 246.057L308.116 174.412L409.204 184.728Z" stroke="#4574F5" stroke-opacity="0.25"/>
<path d="M408.774 207.158L435.895 260.604L464.306 276.739L512.647 267.778L532.881 301.463L577.469 318.613L542.457 372.223L572.039 390.697L559.02 433.773L517.471 465.451L543.398 498.43L500.225 600.253L416.291 553.005L388.053 568.132L323.171 534.238L305.1 501.3L229.056 489.243L219.974 458.273L246.942 410.787L245.99 365.502L287.409 335.957L308.662 294.96L283.234 261.468L319.263 198.025L408.774 207.158Z" stroke="#4574F5" stroke-opacity="0.25"/>
<path d="M408.344 229.588L432.801 275.52L459.706 290.799L501.571 284.434L519.345 314.622L557.221 330.464L526.868 377.557L553.058 394.384L541.337 432.781L505.161 461.408L526.262 489.038L488.136 575.678L414.788 534.512L389.181 546.811L331.431 517.459L315.797 488.818L250.472 478.073L243.054 450.883L266.535 409.536L267.388 367.782L302.509 342.023L320.345 306.448L299.038 276.879L330.409 221.639L408.344 229.588Z" stroke="#4574F5" stroke-opacity="0.25"/>
<path d="M407.913 252.018L429.706 290.436L455.105 304.86L490.496 301.091L505.809 327.781L536.973 342.315L511.28 382.892L534.078 398.072L523.654 431.789L492.851 457.364L509.127 479.646L476.046 551.103L413.286 516.02L390.31 525.49L339.691 500.68L326.494 476.335L271.888 466.904L266.134 443.494L286.128 408.285L288.786 370.061L317.609 348.088L332.028 317.935L314.843 292.29L341.556 245.252L407.913 252.018Z" stroke="#4574F5" stroke-opacity="0.25"/>
<path d="M407.483 274.449L426.612 305.353L450.504 318.922L479.42 317.747L492.274 340.941L516.725 354.167L495.691 388.228L515.097 401.76L505.97 430.797L480.541 453.321L491.991 470.255L463.955 526.528L411.783 497.528L391.438 504.17L347.951 483.902L337.191 463.852L293.304 455.735L289.213 436.104L305.721 407.035L310.185 372.341L332.709 354.154L343.71 329.423L330.647 307.702L352.702 268.865L407.483 274.449Z" stroke="#4574F5" stroke-opacity="0.25"/>
<path d="M407.053 296.879L423.518 320.27L445.904 332.983L468.344 334.403L478.738 354.1L496.477 366.018L480.102 393.563L496.116 405.447L488.287 429.805L468.231 449.278L474.855 460.863L451.865 501.953L410.281 479.035L392.567 482.849L356.211 467.123L347.889 451.37L314.721 444.565L312.293 428.714L325.315 405.784L331.583 374.621L347.809 360.22L355.393 340.911L346.451 323.113L363.848 292.479L407.053 296.879Z" stroke="#4574F5" stroke-opacity="0.25"/>
<path d="M406.622 319.309L420.424 335.186L441.303 347.044L457.268 351.059L465.202 367.259L476.23 377.87L464.514 398.897L477.136 409.135L470.604 428.813L455.921 445.234L457.72 451.471L439.776 477.378L408.779 460.543L393.696 461.529L364.471 450.344L358.586 438.887L336.137 433.395L335.373 421.324L344.908 404.534L352.981 376.9L362.91 366.285L367.076 352.399L362.256 338.524L374.995 316.092L406.622 319.309Z" stroke="#4574F5" stroke-opacity="0.25"/>
<path d="M406.192 341.739L417.33 350.103L436.703 361.105L446.192 367.716L451.666 380.419L455.982 389.722L448.925 404.233L458.155 412.823L452.921 427.821L443.611 441.191L440.584 442.08L427.685 452.804L407.276 442.051L394.824 440.208L372.731 433.566L369.283 426.404L357.553 422.226L358.452 413.935L364.501 403.284L374.379 379.18L378.009 372.351L378.759 363.887L378.06 353.935L386.141 339.706L406.192 341.739Z" stroke="#4574F5" stroke-opacity="0.25"/>
</svg>
