<?xml version="1.0" encoding="utf-8"?>
<!-- Generator: Adobe Illustrator 21.0.0, SVG Export Plug-In . SVG Version: 6.00 Build 0)  -->
<svg version="1.1" id="Layer_1" xmlns="http://www.w3.org/2000/svg" xmlns:xlink="http://www.w3.org/1999/xlink" x="0px" y="0px"
	 viewBox="0 0 1920 780" style="enable-background:new 0 0 1920 780;" xml:space="preserve">
<style type="text/css">
	.st0{clip-path:url(#SVGID_2_);fill-rule:evenodd;clip-rule:evenodd;fill:#063B6E;}
	.st1{fill-rule:evenodd;clip-rule:evenodd;fill:url(#SVGID_3_);}
	.st2{opacity:3.000000e-02;}
	.st3{clip-path:url(#SVGID_5_);fill-rule:evenodd;clip-rule:evenodd;fill:#084E91;}
	.st4{clip-path:url(#SVGID_7_);fill-rule:evenodd;clip-rule:evenodd;fill:#0D5CAA;}
	.st5{clip-path:url(#SVGID_9_);fill-rule:evenodd;clip-rule:evenodd;fill:#1875D0;}
	.st6{clip-path:url(#SVGID_11_);fill-rule:evenodd;clip-rule:evenodd;fill:#2682DA;}
	.st7{clip-path:url(#SVGID_13_);fill-rule:evenodd;clip-rule:evenodd;fill:#2C89E2;}
	.st8{clip-path:url(#SVGID_15_);fill-rule:evenodd;clip-rule:evenodd;fill:#2D8EE9;}
</style>
<g>
	<defs>
		<path id="SVGID_1_" d="M-0.5-0.5h1920v740c0,0-132.3,40-327.3,40c-121.1,0-266.4-30-419.3-30c-130.9,0-267.4,30-399,30
			c-153.6,0-324.6-40-448.4-44c-206.9-6.7-326,24-326,24V-0.5z"/>
	</defs>
	<clipPath id="SVGID_2_">
		<use xlink:href="#SVGID_1_"  style="overflow:visible;"/>
	</clipPath>
	<ellipse class="st0" cx="606.3" cy="159.3" rx="1161.4" ry="1161.4"/>
</g>
<radialGradient id="SVGID_3_" cx="1289.5" cy="384.5" r="1218.8978" gradientTransform="matrix(-1 0 0 -2 2579 1153.5)" gradientUnits="userSpaceOnUse">
	<stop  offset="0" style="stop-color:#2B0735"/>
	<stop  offset="1" style="stop-color:#180756"/>
</radialGradient>
<path class="st1" d="M0-1h1920v740c0,0-132.3,40-327.3,40c-121.1,0-266.4-30-419.3-30c-130.9,0-267.4,30-399,30
	c-153.6,0-324.6-40-448.4-44C119.1,728.3,0,759,0,759V-1z"/>
<g class="st2">
	<defs>
		<ellipse id="SVGID_4_" class="st2" cx="606.3" cy="159.3" rx="1026.4" ry="1026.4"/>
	</defs>
	<clipPath id="SVGID_5_">
		<use xlink:href="#SVGID_4_"  style="overflow:visible;"/>
	</clipPath>
	<path class="st3" d="M-3-1h1920v740c0,0-132.3,40-327.3,40c-121.1,0-266.4-30-419.3-30c-130.9,0-267.4,30-399,30
		c-153.6,0-324.6-40-448.4-44C116.1,728.3-3,759-3,759V-1z"/>
</g>
<g class="st2">
	<defs>
		<ellipse id="SVGID_6_" class="st2" cx="606.3" cy="155.3" rx="891.3" ry="891.3"/>
	</defs>
	<clipPath id="SVGID_7_">
		<use xlink:href="#SVGID_6_"  style="overflow:visible;"/>
	</clipPath>
	<path class="st4" d="M-3-1h1920v740c0,0-132.3,40-327.3,40c-121.1,0-266.4-30-419.3-30c-130.9,0-267.4,30-399,30
		c-153.6,0-324.6-40-448.4-44C116.1,728.3-3,759-3,759V-1z"/>
</g>
<g class="st2">
	<defs>
		<ellipse id="SVGID_8_" class="st2" cx="606.3" cy="155.3" rx="756.3" ry="756.3"/>
	</defs>
	<clipPath id="SVGID_9_">
		<use xlink:href="#SVGID_8_"  style="overflow:visible;"/>
	</clipPath>
	<path class="st5" d="M-3-1h1920v740c0,0-132.3,40-327.3,40c-121.1,0-266.4-30-419.3-30c-130.9,0-267.4,30-399,30
		c-153.6,0-324.6-40-448.4-44C116.1,728.3-3,759-3,759V-1z"/>
</g>
<g class="st2">
	<defs>
		<ellipse id="SVGID_10_" class="st2" cx="606.3" cy="155.3" rx="621.2" ry="621.2"/>
	</defs>
	<clipPath id="SVGID_11_">
		<use xlink:href="#SVGID_10_"  style="overflow:visible;"/>
	</clipPath>
	<path class="st6" d="M0-1h1920v740c0,0-132.3,40-327.3,40c-121.1,0-266.4-30-419.3-30c-130.9,0-267.4,30-399,30
		c-153.6,0-324.6-40-448.4-44C119.1,728.3,0,759,0,759V-1z"/>
</g>
<g class="st2">
	<defs>
		<ellipse id="SVGID_12_" class="st2" cx="606.3" cy="155.3" rx="486.1" ry="486.2"/>
	</defs>
	<clipPath id="SVGID_13_">
		<use xlink:href="#SVGID_12_"  style="overflow:visible;"/>
	</clipPath>
	<path class="st7" d="M-3-1h1920v740c0,0-132.3,40-327.3,40c-121.1,0-266.4-30-419.3-30c-130.9,0-267.4,30-399,30
		c-153.6,0-324.6-40-448.4-44C116.1,728.3-3,759-3,759V-1z"/>
</g>
<g class="st2">
	<defs>
		<ellipse id="SVGID_14_" class="st2" cx="606.3" cy="155.3" rx="351.1" ry="351.1"/>
	</defs>
	<clipPath id="SVGID_15_">
		<use xlink:href="#SVGID_14_"  style="overflow:visible;"/>
	</clipPath>
	<path class="st8" d="M-3,0h1920v740c0,0-132.3,40-327.3,40c-121.1,0-266.4-30-419.3-30c-130.9,0-267.4,30-399,30
		c-153.6,0-324.6-40-448.4-44C116.1,729.3-3,760-3,760V0z"/>
</g>
</svg>
