<svg width="24" height="18" viewBox="0 0 24 18" fill="none" xmlns="http://www.w3.org/2000/svg">
    <path d="M0 16.0714C0 17.1362 0.863839 18 1.92857 18H21.2143C22.279 18 23.1429 17.1362 23.1429 16.0714V9H0V16.0714ZM7.71429 13.3393C7.71429 13.0741 7.93125 12.8571 8.19643 12.8571H13.6607C13.9259 12.8571 14.1429 13.0741 14.1429 13.3393V14.9464C14.1429 15.2116 13.9259 15.4286 13.6607 15.4286H8.19643C7.93125 15.4286 7.71429 15.2116 7.71429 14.9464V13.3393ZM2.57143 13.3393C2.57143 13.0741 2.78839 12.8571 3.05357 12.8571H5.94643C6.21161 12.8571 6.42857 13.0741 6.42857 13.3393V14.9464C6.42857 15.2116 6.21161 15.4286 5.94643 15.4286H3.05357C2.78839 15.4286 2.57143 15.2116 2.57143 14.9464V13.3393ZM23.1429 1.92857V3.85714H0V1.92857C0 0.863839 0.863839 0 1.92857 0H21.2143C22.279 0 23.1429 0.863839 23.1429 1.92857Z" fill="#9F9F9F"/>
</svg>
