<svg xmlns="http://www.w3.org/2000/svg" xmlns:xlink="http://www.w3.org/1999/xlink" width="20.125" height="20.12" viewBox="0 0 20.125 20.12">
  <defs>
    <style>
      .cls-1 {
        fill-rule: evenodd;
        fill: url(#linear-gradient);
      }
    </style>
    <linearGradient id="linear-gradient" x1="883.532" y1="1097.75" x2="883.532" y2="1077.63" gradientUnits="userSpaceOnUse">
      <stop offset="0" stop-color="#4070F4"/>
      <stop offset="1" stop-color="#4070F4"/>
    </linearGradient>
  </defs>
  <path id="cemail" class="cls-1" d="M892.973,1078.25a2.086,2.086,0,0,1,.629,1.53v15.81a2.086,2.086,0,0,1-.629,1.53,2.111,2.111,0,0,1-1.528.62H875.633a2.109,2.109,0,0,1-1.528-.62,2.085,2.085,0,0,1-.628-1.53v-15.81a2.148,2.148,0,0,1,2.156-2.16h15.812A2.08,2.08,0,0,1,892.973,1078.25Zm-0.809,1.53a0.7,0.7,0,0,0-.2-0.52,0.68,0.68,0,0,0-.517-0.2H875.633a0.679,0.679,0,0,0-.517.2,0.7,0.7,0,0,0-.2.52v15.81a0.676,0.676,0,0,0,.2.51,0.687,0.687,0,0,0,.517.21h15.812a0.688,0.688,0,0,0,.517-0.21,0.676,0.676,0,0,0,.2-0.51v-15.81Zm-1.864,2.58a1.374,1.374,0,0,1,.427,1.01v8.62a1.464,1.464,0,0,1-1.438,1.44h-11.5a1.462,1.462,0,0,1-1.437-1.44v-8.62a1.462,1.462,0,0,1,1.437-1.44h11.5A1.366,1.366,0,0,1,890.3,1082.36Zm-12.511,1.01v1.53c0.658,0.54,1.887,1.52,3.684,2.96l0.269,0.23a2.083,2.083,0,0,0,3.594,0l0.269-.23c1.8-1.44,3.025-2.42,3.684-2.96v-1.53h-11.5Zm11.5,8.62v-5.25l-3.1,2.47a8.852,8.852,0,0,1-1.168.9,2.665,2.665,0,0,1-2.964,0,8.722,8.722,0,0,1-1.168-.9l-3.1-2.47v5.25h11.5Z" transform="translate(-873.469 -1077.63)"/>
</svg>
