<svg xmlns="http://www.w3.org/2000/svg" xmlns:xlink="http://www.w3.org/1999/xlink" width="23" height="23" viewBox="0 0 23 23">
  <defs>
    <style>
      .cls-1 {
        fill-rule: evenodd;
        fill: url(#linear-gradient);
      }
    </style>
    <linearGradient id="linear-gradient" x1="875.969" y1="713.188" x2="875.969" y2="690.188" gradientUnits="userSpaceOnUse">
      <stop offset="0" stop-color="#4070F4"/>
      <stop offset="1" stop-color="#4070F4"/>
    </linearGradient>
  </defs>
  <path id="cpasword" class="cls-1" d="M876.336,692.5a6.6,6.6,0,0,0-2.358,2.358,6.248,6.248,0,0,0-.876,3.235,6.69,6.69,0,0,0,.449,2.426l-7.637,7.636v3.594h4.313v-2.875H873.1v-2.875h2.156l1.887-1.887a6.686,6.686,0,0,0,2.425.45,6.248,6.248,0,0,0,3.235-.876,6.6,6.6,0,0,0,2.358-2.359,6.409,6.409,0,0,0,0-6.469,6.6,6.6,0,0,0-2.358-2.358A6.409,6.409,0,0,0,876.336,692.5Zm7.21-1.258a7.907,7.907,0,0,1-3.976,14.757,7.627,7.627,0,0,1-2.021-.27l-1.393,1.393a1.039,1.039,0,0,1-.763.315h-0.854v1.8a1.074,1.074,0,0,1-1.078,1.079h-1.8v1.8a1.074,1.074,0,0,1-1.078,1.079h-5.031a1.074,1.074,0,0,1-1.078-1.079v-4.087a1.038,1.038,0,0,1,.314-0.764l7.143-7.143a7.627,7.627,0,0,1-.27-2.021A7.93,7.93,0,0,1,883.546,691.237ZM881.1,695.3a0.867,0.867,0,1,0,.629-0.27A0.86,0.86,0,0,0,881.1,695.3Zm2.156-.9a2.169,2.169,0,1,1-1.527-.629A2.083,2.083,0,0,1,883.254,694.4Z" transform="translate(-864.469 -690.188)"/>
</svg>
