<svg width="104" height="97" viewBox="0 0 104 97" fill="none" xmlns="http://www.w3.org/2000/svg">
<path d="M88 10.8751H8.00004C4.46541 10.8751 1.60004 13.7404 1.60004 17.2751V68.4751C1.60004 72.0097 4.46541 74.8751 8.00004 74.8751H88C91.5347 74.8751 94.4 72.0097 94.4 68.4751V17.2751C94.4 13.7404 91.5347 10.8751 88 10.8751Z" fill="white"/>
<g style="mix-blend-mode:multiply">
<path d="M88 10.8751H83.2C86.7346 10.8751 89.6 13.7404 89.6 17.2751V68.4751C89.6 72.0097 86.7346 74.8751 83.2 74.8751H88C91.5346 74.8751 94.4 72.0097 94.4 68.4751V17.2751C94.4 13.7404 91.5346 10.8751 88 10.8751Z" fill="white"/>
</g>
<path d="M38.4 54.075V58.171C38.3993 59.1286 37.9697 60.0356 37.2292 60.6428C36.4887 61.25 35.5153 61.4938 34.576 61.307L30.4 60.475V55.675C32.4308 55.6831 34.4243 55.1293 36.16 54.075H38.4Z" fill="white"/>
<path d="M30.4 55.675V60.475L26.224 61.307C25.2848 61.4938 24.3113 61.25 23.5708 60.6428C22.8304 60.0356 22.4008 59.1286 22.4 58.171V54.075H24.64C26.3757 55.1293 28.3692 55.6831 30.4 55.675Z" fill="white"/>
<path d="M8.00004 74.8751H12.8C9.26541 74.8751 6.40004 72.0097 6.40004 68.4751V17.2751C6.40004 13.7404 9.26541 10.8751 12.8 10.8751H8.00004C4.46541 10.8751 1.60004 13.7404 1.60004 17.2751V68.4751C1.60004 72.0097 4.46541 74.8751 8.00004 74.8751Z" fill="white"/>
<path d="M0 17.275H3.2V30.075H0V17.275Z" fill="white"/>
<path d="M1.6 25.275C2.48366 25.275 3.2 24.5587 3.2 23.675C3.2 22.7914 2.48366 22.075 1.6 22.075C0.716344 22.075 0 22.7914 0 23.675C0 24.5587 0.716344 25.275 1.6 25.275Z" fill="#4070F4"/>
<path d="M88 9.27502H8C3.58391 9.28031 0.00528979 12.8589 0 17.275C0 18.1587 0.716344 18.875 1.6 18.875C2.48366 18.875 3.2 18.1587 3.2 17.275C3.2 14.6241 5.34903 12.475 8 12.475H88C90.651 12.475 92.8 14.6241 92.8 17.275V68.475C92.8 71.126 90.651 73.275 88 73.275H8C5.34903 73.275 3.2 71.126 3.2 68.475V30.075C3.2 29.1914 2.48366 28.475 1.6 28.475C0.716344 28.475 0 29.1914 0 30.075V68.475C0.00528979 72.8911 3.58391 76.4697 8 76.475H88C92.4161 76.4697 95.9947 72.8911 96 68.475V17.275C95.9947 12.8589 92.4161 9.28031 88 9.27502Z" fill="#4070F4"/>
<path d="M84.25 22.075H53.85C52.9663 22.075 52.25 22.7914 52.25 23.675C52.25 24.5587 52.9663 25.275 53.85 25.275H84.25C85.1337 25.275 85.85 24.5587 85.85 23.675C85.85 22.7914 85.1337 22.075 84.25 22.075Z" fill="#4070F4"/>
<path d="M53.85 31.675H66.65C67.5336 31.675 68.25 30.9587 68.25 30.075C68.25 29.1914 67.5336 28.475 66.65 28.475H53.85C52.9663 28.475 52.25 29.1914 52.25 30.075C52.25 30.9587 52.9663 31.675 53.85 31.675Z" fill="#4070F4"/>
<path d="M53.85 38.3H61.85C62.7337 38.3 63.45 37.5837 63.45 36.7C63.45 35.8164 62.7337 35.1 61.85 35.1H53.85C52.9663 35.1 52.25 35.8164 52.25 36.7C52.25 37.5837 52.9663 38.3 53.85 38.3Z" fill="#4070F4"/>
<path d="M72.6 31.55H80.6C81.4837 31.55 82.2 30.8337 82.2 29.95C82.2 29.0664 81.4837 28.35 80.6 28.35H72.6C71.7163 28.35 71 29.0664 71 29.95C71 30.8337 71.7163 31.55 72.6 31.55Z" fill="#4070F4"/>
<path d="M36.2969 65H28.0156C27.5583 65 27.1875 65.7135 27.1875 66.5938C27.1875 67.474 27.5583 68.1875 28.0156 68.1875H36.2969C36.7542 68.1875 37.125 67.474 37.125 66.5938C37.125 65.7135 36.7542 65 36.2969 65Z" fill="#4070F4"/>
<path d="M12.225 61.575H42.625C43.5087 61.575 44.225 60.8586 44.225 59.975C44.225 59.0913 43.5087 58.375 42.625 58.375H12.225C11.3413 58.375 10.625 59.0913 10.625 59.975C10.625 60.8586 11.3413 61.575 12.225 61.575Z" fill="#4070F4"/>
<path d="M12.225 67.975H23.425C24.3087 67.975 25.025 67.2587 25.025 66.375C25.025 65.4914 24.3087 64.775 23.425 64.775H12.225C11.3413 64.775 10.625 65.4914 10.625 66.375C10.625 67.2587 11.3413 67.975 12.225 67.975Z" fill="#4070F4"/>
<mask id="mask0" mask-type="alpha" maskUnits="userSpaceOnUse" x="9" y="16" width="40" height="40">
<rect x="9.1875" y="16.4375" width="39" height="39" rx="19.5" fill="#C4C4C4"/>
</mask>
<g mask="url(#mask0)">
<rect x="10.1875" y="17.4375" width="37" height="37" rx="18.5" fill="white" stroke="#4070F4" stroke-width="2"/>
<path d="M28.8409 49.466V53.9207H16.5904C15.5164 53.9151 14.5968 53.1495 14.3965 52.0943V52.0832C14.7307 50.771 15.3129 49.5349 16.1116 48.4414C17.8019 46.2782 20.3936 45.0132 23.1389 45.0113H23.2725V47.8623C23.2731 48.5289 23.5721 49.1601 24.0875 49.5828C24.6029 50.0055 25.2805 50.1751 25.9342 50.0451L28.8409 49.466Z" fill="white"/>
<path d="M25.9342 50.0452C25.791 50.0721 25.6455 50.0845 25.4998 50.0819V53.9208H28.8409V49.4661L25.9342 50.0452Z" fill="white"/>
<path d="M43.2853 52.0832V52.0943C43.085 53.1495 42.1654 53.9151 41.0913 53.9207H28.8408V49.466L31.7475 50.0451C32.4013 50.1751 33.0789 50.0055 33.5943 49.5828C34.1097 49.1601 34.4087 48.5289 34.4092 47.8623V45.0113H34.5429C37.2882 45.0132 39.8799 46.2782 41.5702 48.4414C42.3689 49.5349 42.951 50.771 43.2853 52.0832Z" fill="white"/>
<path d="M41.5702 48.4414C39.8799 46.2782 37.2882 45.0132 34.5429 45.0113H34.4092V45.6194C35.9132 46.1993 37.2329 47.1742 38.2292 48.4414C39.0278 49.5349 39.61 50.771 39.9442 52.0832V52.0943C39.7439 53.1495 38.8243 53.9151 37.7503 53.9207H41.0913C42.1654 53.9151 43.085 53.1495 43.2853 52.0943V52.0832C42.951 50.771 42.3689 49.5349 41.5702 48.4414Z" fill="white"/>
<path d="M21.0451 33.8745V39.4429H20.4883C18.9506 39.4429 17.7041 38.1964 17.7041 36.6587C17.7041 35.121 18.9506 33.8745 20.4883 33.8745H21.0451Z" fill="white"/>
<path d="M39.9777 36.6587C39.9777 38.1964 38.7312 39.4429 37.1935 39.4429H36.6367V33.8745L37.1935 33.8745C37.9326 33.8721 38.6422 34.1647 39.1648 34.6874C39.6875 35.21 39.9801 35.9196 39.9777 36.6587Z" fill="white"/>
<path d="M36.6367 32.7609V34.9882C32.1819 34.9882 31.0682 30.5335 31.0682 30.5335C31.0682 34.9882 21.0451 33.8745 21.0451 33.8745V32.7609C21.0451 29.9757 22.531 27.4021 24.943 26.0095C27.355 24.6169 30.3267 24.6169 32.7388 26.0095C35.1508 27.4021 36.6367 29.9757 36.6367 32.7609Z" fill="white"/>
<path d="M34.3537 27.2481C32.8945 25.7818 30.9096 24.9597 28.8409 24.9651C28.2792 24.966 27.7191 25.0272 27.1704 25.1477C30.7466 25.9322 33.2949 29.0996 33.2957 32.7608V33.8923C34.2529 34.6259 35.431 35.0123 36.6367 34.9882V32.7608C36.642 30.6922 35.82 28.7073 34.3537 27.2481Z" fill="white"/>
<path d="M36.6367 34.9882V38.3293C36.6405 41.0684 35.2018 43.6071 32.8501 45.0114C30.3835 46.4963 27.2982 46.4963 24.8316 45.0114C22.4799 43.6071 21.0413 41.0684 21.0451 38.3293V33.8746C21.0451 33.8746 31.0682 34.9882 31.0682 30.5335C31.0682 30.5335 32.1819 34.9882 36.6367 34.9882Z" fill="white"/>
<path d="M31.0683 30.5335C31.0226 31.7137 30.2474 32.7408 29.1249 33.1083C30.16 34.3326 31.6929 35.0235 33.2957 34.9882V38.3293C33.2995 41.0683 31.8608 43.6071 29.5091 45.0114C28.786 45.4451 27.9956 45.7553 27.1704 45.929C27.7185 46.0546 28.2786 46.1203 28.8409 46.125C30.2545 46.1306 31.642 45.7452 32.8502 45.0114C35.2019 43.6071 36.6405 41.0683 36.6367 38.3293V34.9882C32.182 34.9882 31.0683 30.5335 31.0683 30.5335Z" fill="white"/>
<path d="M38.2482 33.6678L37.023 33.2368V32.7608C37.023 28.2419 33.3598 24.5787 28.841 24.5787C24.3221 24.5787 20.6589 28.2419 20.6589 32.7608V32.8487V33.2368L19.4337 33.6678C18.1645 34.1143 17.3153 35.3132 17.3153 36.6586C17.3153 38.0041 18.1645 39.203 19.4337 39.6495L20.8627 40.1522C21.255 41.8764 22.192 43.3936 23.4831 44.5132L21.9726 44.7023C19.5325 45.0077 17.3136 46.2698 15.804 48.211L15.79 48.229L15.7766 48.2474C15.0137 49.2923 14.4495 50.4686 14.1122 51.7177L13.9813 52.2024L14.1686 52.6682C14.5656 53.6558 15.5218 54.304 16.5862 54.307H16.5905H27.7273H28.4546H29.2273H29.9546L41.0914 54.307L41.0945 54.307C42.1576 54.3049 43.1135 53.659 43.5121 52.6735L43.7009 52.2069L43.57 51.7209C43.2343 50.4746 42.6728 49.3006 41.9134 48.257L41.8996 48.2381L41.8852 48.2196C40.3746 46.2747 38.1528 45.0101 35.7092 44.7045L34.1964 44.5153C35.4887 43.3955 36.4266 41.8775 36.8192 40.1522L38.2482 39.6495C39.5174 39.203 40.3666 38.0041 40.3666 36.6586C40.3666 35.3132 39.5174 34.1143 38.2482 33.6678Z" stroke="#4070F4" stroke-width="3"/>
<rect x="10.1875" y="17.4375" width="37" height="37" rx="18.5" stroke="#4070F4" stroke-width="2"/>
</g>
<path d="M101.95 49.3295L100.766 68.6895C100.418 74.9718 96.897 80.6451 91.422 83.7455L80.35 89.9375C77.1724 88.1583 79.4492 89.4319 69.278 83.7455C63.803 80.6451 60.282 74.9718 59.934 68.6895L58.75 49.3295C65.5559 49.4872 72.2498 47.5794 77.95 43.8575C78.8084 43.2941 79.6119 42.6513 80.35 41.9375C80.35 41.9375 87.55 49.3295 101.95 49.3295Z" fill="white"/>
<path d="M97.15 49.3295L95.966 68.6895C95.618 74.9718 92.097 80.6452 86.622 83.7455L77.95 88.5935L69.278 83.7455C63.803 80.6452 60.282 74.9718 59.934 68.6895L58.75 49.3295C65.5559 49.4872 72.2498 47.5794 77.95 43.8575C83.6502 47.5794 90.3441 49.4872 97.15 49.3295Z" fill="white"/>
<path d="M95.182 55.2335L94.382 68.3055C94.1721 72.4138 91.8793 76.1305 88.302 78.1615L80.35 82.6095C77.15 80.8175 78.99 81.8463 72.398 78.1615C68.8207 76.1305 66.5279 72.4138 66.318 68.3055L65.518 55.2335C70.774 54.5087 75.8236 52.7056 80.35 49.9375C84.8761 52.7063 89.9258 54.5094 95.182 55.2335Z" fill="white"/>
<path d="M90.382 55.2335L89.582 68.3055C89.3721 72.4138 87.0793 76.1305 83.502 78.1615L77.95 81.2655L72.398 78.1615C68.8207 76.1305 66.5279 72.4138 66.318 68.3055L65.518 55.2335C69.8538 54.6295 74.0567 53.2989 77.95 51.2975C81.8433 53.2989 86.0462 54.6295 90.382 55.2335Z" fill="white"/>
<path d="M80.2853 49.8651L80.2935 49.8601L80.3017 49.855C80.3342 49.8346 80.3755 49.8346 80.4079 49.855L80.4161 49.8601L80.4243 49.8651C84.9391 52.6143 89.9695 54.4086 95.2049 55.1372C95.2551 55.1457 95.2911 55.1908 95.288 55.2418L94.488 68.3034L94.488 68.3034L94.4872 68.3175C94.2727 72.4584 91.9583 76.2028 88.3506 78.2462C86.3373 79.3723 84.8267 80.2227 83.6839 80.866C82.3788 81.6007 81.5533 82.0654 81.0068 82.3623C80.7544 82.4994 80.5787 82.5913 80.4522 82.6535C80.4134 82.6725 80.3815 82.6877 80.3554 82.6998C80.3271 82.6868 80.2921 82.6702 80.2489 82.649C80.1208 82.5859 79.9436 82.4933 79.6902 82.3556C79.1368 82.055 78.3008 81.5844 76.9782 80.8398C75.8413 80.1997 74.3449 79.3572 72.3593 78.2463C68.7514 76.2029 66.4369 72.4585 66.2224 68.3175L66.2225 68.3175L66.2216 68.3034L65.4217 55.2418C65.4217 55.2418 65.4217 55.2417 65.4217 55.2417C65.4186 55.1907 65.4546 55.1457 65.5048 55.1372C70.7401 54.4082 75.7704 52.614 80.2853 49.8651Z" stroke="#4070F4" stroke-width="3"/>
<path d="M91.3769 83.6578L91.3816 83.6551C96.8353 80.5774 100.339 74.9272 100.672 68.6741C100.672 68.672 100.672 68.67 100.672 68.6679L101.748 50.9886L101.844 49.4175L100.27 49.3976C93.3976 49.311 86.7339 47.025 81.2558 42.8747L80.35 42.1884L79.4442 42.8747C73.9661 47.025 67.3025 49.311 60.4303 49.3976L58.8564 49.4175L58.952 50.9886L60.0284 68.674C60.361 74.9271 63.8647 80.5773 69.3184 83.6551L69.3232 83.6577L79.6176 89.4177L80.35 89.8276L81.0825 89.4177L91.3769 83.6578Z" stroke="#4070F4" stroke-width="3"/>
</svg>
