<svg xmlns="http://www.w3.org/2000/svg" width="19.25" height="22" viewBox="0 0 19.25 22">
  <defs>
    <style>
      .cls-1 {
        fill: #4070F4;
        fill-rule: evenodd;
      }
    </style>
  </defs>
  <path id="delet" class="cls-1" d="M1465.22,1100.5a1.024,1.024,0,0,1,1.03,1.03v0.09a0.259,0.259,0,0,1-.09.17,0.223,0.223,0,0,1-.17.09h-1.11v15.81a2,2,0,0,1-.61,1.46,1.977,1.977,0,0,1-1.46.6h-12.37a2.049,2.049,0,0,1-2.06-2.06v-15.81h-1.12a0.223,0.223,0,0,1-.17-0.09,0.259,0.259,0,0,1-.09-0.17v-0.09a1,1,0,0,1,.3-0.73,0.988,0.988,0,0,1,.73-0.3h3.78l1.46-1.93a1.919,1.919,0,0,1,1.64-.82h3.43a1.919,1.919,0,0,1,1.64.82l1.46,1.93h3.78Zm-10.87-1.12-0.82,1.12h6.19l-0.82-1.12a0.689,0.689,0,0,0-.56-0.25h-3.43a0.689,0.689,0,0,0-.56.25h0Zm9.15,2.5h-13.75v15.81a0.655,0.655,0,0,0,.19.49,0.686,0.686,0,0,0,.5.2h12.37a0.686,0.686,0,0,0,.5-0.2,0.655,0.655,0,0,0,.19-0.49v-15.81Zm-7.41,14.28a0.491,0.491,0,0,0,.36.15h0.35a0.512,0.512,0,0,0,.51-0.51v-11.35a0.512,0.512,0,0,0-.51-0.51h-0.35a0.512,0.512,0,0,0-.51.51v11.35A0.491,0.491,0,0,0,1456.09,1116.16Zm-3.44,0a0.5,0.5,0,0,0,.37.15h0.34a0.491,0.491,0,0,0,.36-0.15,0.5,0.5,0,0,0,.16-0.36v-11.35a0.5,0.5,0,0,0-.16-0.36,0.491,0.491,0,0,0-.36-0.15h-0.34a0.5,0.5,0,0,0-.37.15,0.491,0.491,0,0,0-.15.36v11.35A0.491,0.491,0,0,0,1452.65,1116.16Zm6.88,0a0.491,0.491,0,0,0,.36.15h0.34a0.5,0.5,0,0,0,.37-0.15,0.491,0.491,0,0,0,.15-0.36v-11.35a0.491,0.491,0,0,0-.15-0.36,0.5,0.5,0,0,0-.37-0.15h-0.34a0.491,0.491,0,0,0-.36.15,0.455,0.455,0,0,0-.15.36v11.35A0.455,0.455,0,0,0,1459.53,1116.16Z" transform="translate(-1447 -1097.75)"/>
</svg>
