<svg width="11" height="14" viewBox="0 0 11 14" fill="none" xmlns="http://www.w3.org/2000/svg">
    <path fill-rule="evenodd" clip-rule="evenodd" d="M7.22786 3.89851V0.944825L10.0733 3.89851H7.22786ZM10.0702 12.886C10.0702 12.9658 10.0079 13.0302 9.93071 13.0302H0.943815V7.07612V6.1031V1.11639C0.943815 1.03745 1.00616 0.973016 1.08332 0.973016H5.09629H6.29262V4.86508H10.0624L10.0702 6.1031V12.886ZM10.8995 3.39348C10.9603 3.46355 11 3.55457 11 3.65687V12.8933C11 13.5046 10.5207 14 9.92915 14H1.07085C0.479311 14 0 13.5046 0 12.8933V1.10673C0 0.495368 0.479311 0 1.07085 0H7.46167C7.57 0 7.66742 0.0467177 7.73757 0.120822L7.73912 0.121627L10.8847 3.37253C10.8862 3.37414 10.887 3.37576 10.8886 3.37737L10.8963 3.38462L10.8995 3.39348ZM7.7325 6.79799H3.28543C3.02745 6.79799 2.8178 7.01466 2.8178 7.28127C2.8178 7.54788 3.02745 7.76456 3.28543 7.76456H7.7325C7.99047 7.76456 8.20012 7.54788 8.20012 7.28127C8.20012 7.01466 7.99047 6.79799 7.7325 6.79799ZM7.7325 9.21442H3.28543C3.02745 9.21442 2.8178 9.43109 2.8178 9.6977C2.8178 9.96432 3.02745 10.181 3.28543 10.181H7.7325C7.99047 10.181 8.20012 9.96432 8.20012 9.6977C8.20012 9.43109 7.99047 9.21442 7.7325 9.21442Z" fill="#4070F4"/>
</svg>
