<svg width="8" height="14" viewBox="0 0 8 14" fill="none" xmlns="http://www.w3.org/2000/svg">
    <path fill-rule="evenodd" clip-rule="evenodd" d="M4.26222 6.14444C2.49667 5.68556 1.92889 5.21111 1.92889 4.47222C1.92889 3.62444 2.71444 3.03333 4.02889 3.03333C5.41333 3.03333 5.92667 3.69444 5.97333 4.66667H7.69222C7.63778 3.32889 6.82111 2.1 5.19556 1.70333V0H2.86222V1.68C1.35333 2.00667 0.14 2.98667 0.14 4.48778C0.14 6.28444 1.62556 7.17889 3.79556 7.7C5.74 8.16667 6.12889 8.85111 6.12889 9.57444C6.12889 10.1111 5.74778 10.9667 4.02889 10.9667C2.42667 10.9667 1.79667 10.2511 1.71111 9.33333H0C0.0933333 11.0367 1.36889 11.9933 2.86222 12.3122V14H5.19556V12.3278C6.71222 12.04 7.91778 11.1611 7.91778 9.56667C7.91778 7.35778 6.02778 6.60333 4.26222 6.14444Z" fill="#69C036"/>
</svg>
