<?xml version="1.0" encoding="iso-8859-1"?>
<!-- Generator: Adobe Illustrator 19.1.0, SVG Export Plug-In . SVG Version: 6.00 Build 0)  -->
<svg version="1.1" id="Capa_1" xmlns="http://www.w3.org/2000/svg" xmlns:xlink="http://www.w3.org/1999/xlink" x="0px" y="0px"
	 viewBox="0 0 31.479 31.479" style="enable-background:new 0 0 31.479 31.479;" xml:space="preserve">
	<style type="text/css">
	.st0{fill:url(#SVGID_1_);}
	.st1{fill:url(#SVGID_2_);}
</style>
<linearGradient id="SVGID_1_" gradientUnits="userSpaceOnUse" x1="480.2302" y1="128.2252" x2="-1.280882e-04" y2="128.2252">
	<stop  offset="0" style="stop-color:#4070F4"/>
	<stop  offset="1" style="stop-color:#4070F4"/>
</linearGradient>
<path  class="st0"  d="M26.485,21.206c0.429-0.444,0.429-1.143,0-1.587c-0.444-0.429-1.159-0.429-1.587,0l-8.047,8.047
	V1.111C16.851,0.492,16.359,0,15.74,0c-0.619,0-1.127,0.492-1.127,1.111v26.555l-8.031-8.047c-0.444-0.429-1.143-0.429-1.587,0
	c-0.429,0.444-0.429,1.143,0,1.587l9.952,9.952c0.429,0.429,1.143,0.429,1.587,0L26.485,21.206z"/>
</svg>
