<?xml version="1.0" encoding="iso-8859-1"?>
<!-- Generator: Adobe Illustrator 19.0.0, SVG Export Plug-In . SVG Version: 6.00 Build 0)  -->
<svg version="1.1" id="Capa_1" xmlns="http://www.w3.org/2000/svg" xmlns:xlink="http://www.w3.org/1999/xlink" x="0px" y="0px"
	 viewBox="0 0 512 512" style="enable-background:new 0 0 512 512;" xml:space="preserve">
<g>
	<g>
		<path d="M354.4,11.095c-7.552-2.208-15.68,1.312-19.04,8.448c-3.392,7.104-1.088,15.648,5.44,20.096
			c35.2,23.904,58.336,83.52,64.448,136.864c-8.064-10.816-17.728-20.512-28.736-28.736c-6.304-4.704-15.168-4.128-20.864,1.504
			c-5.6,5.6-6.272,14.496-1.536,20.864c14.08,18.976,21.504,41.44,21.504,64.96c0,60.224-48.992,109.216-109.216,109.216
			c-6.976,0-12.8-0.352-17.984-1.12c7.328-3.904,14.144-8.256,20.64-12.448c14.272-9.12,26.56-17.024,39.104-17.024
			c4.896,0,9.568-2.24,12.608-6.112c3.04-3.872,4.128-8.96,2.944-13.728c-2.816-11.392-16.224-33.024-46.784-33.024
			c-17.12,0-24.96,7.008-30.688,12.096c-5.088,4.48-9.856,8.768-31.968,8.768c-38.944,0-57.056-21.568-57.056-36.16
			c0-3.776,3.136-7.424,4.992-9.312c4.736-4.704,10.464-7.168,13.312-7.808c2.24,1.184,4.8,1.824,7.392,1.824
			c0.032,0,0.032,0,0.032,0c4.256,0,8.32-1.696,11.296-4.704c7.2-7.168,8.768-16.64,7.456-25.44l52.736-35.136
			c5.888-3.904,8.512-11.2,6.464-17.952c-2.048-6.752-8.288-11.36-15.328-11.36h-20.864c-25.92,0-35.136-5.632-36.512-8.928
			c-3.232-7.776,9.152-29.408,26.976-47.232c4.576-4.608,5.952-11.456,3.456-17.44c-2.464-5.984-8.32-9.888-14.784-9.888
			c-33.536,0-56.16,23.744-69.568,40.544c-13.376-1.12-31.84-0.512-42.432,0.64c-1.312-1.728-3.264-4.608-5.76-9.248
			c-7.616-14.464-12.32-30.368-12.32-36.8c0-6.464-3.904-12.32-9.888-14.784c-5.984-2.496-12.864-1.152-17.44,3.456
			c-28.064,28.064-28.672,68.416-18.304,92.896C9.696,164.823,0,205.015,0,245.559c0,141.152,114.848,256,256,256
			c143.552,0,256-107.872,256-245.568v-20.864C512,104.599,427.136,32.887,354.4,11.095z M480,255.991
			c0,121.76-96.32,213.568-224,213.568c-123.52,0-224-100.512-224-224c0-36.192,8.832-72.064,26.592-106.208
			c4.48-5.408,4.928-13.184,0.992-19.136c-3.168-4.736-6.304-15.808-5.344-28.352c1.152,2.528,2.368,4.96,3.584,7.232
			c4.48,8.352,16.384,30.624,34.944,26.368c7.392-1.76,37.344-1.792,41.504-1.12c6.752,3.2,14.976,1.344,19.552-4.64
			c0.032-0.032,1.952-2.56,1.984-2.592c0.224-0.256,0.416-0.544,0.64-0.832c-1.28,7.68-0.864,15.392,2.176,22.688
			c6.72,16.192,22.624,23.264,37.632,26.336l-22.208,14.784c-5.696,3.808-8.192,10.88-6.56,17.376c-2.368,0.576-4.8,1.408-7.296,2.4
			c-17.408,7.2-34.976,24.096-34.976,45.696c0,33.504,33.312,68.16,89.056,68.16c10.432,0,18.688-0.864,25.44-2.368
			c-11.52,6.816-23.008,12.064-35.904,12.064c-6.912,0-13.056,4.448-15.2,10.976c-2.176,6.56,0.128,13.792,5.664,17.888
			c24.544,18.176,42.08,24.032,72.16,24.032c69.056,0,126.688-49.792,138.848-115.36c2.656,2.88,6.368,4.8,10.528,5.12
			c8.448,0.832,14.816-4.448,16.768-11.968c4.224-16.384,6.336-33.344,6.336-50.304c0-40.032-10.304-88.576-30.016-128.512
			C448.928,107.511,480,159.767,480,235.127V255.991z"/>
	</g>
</g>
<g>
</g>
<g>
</g>
<g>
</g>
<g>
</g>
<g>
</g>
<g>
</g>
<g>
</g>
<g>
</g>
<g>
</g>
<g>
</g>
<g>
</g>
<g>
</g>
<g>
</g>
<g>
</g>
<g>
</g>
</svg>
