<svg xmlns="http://www.w3.org/2000/svg" width="22" height="22" viewBox="0 0 22 22">
  <defs>
    <style>
      .cls-1 {
        fill: #4070F4;
        fill-rule: evenodd;
      }
    </style>
  </defs>
  <path id="key" class="cls-1" d="M440.344,1099.96a6.282,6.282,0,0,0-2.256,2.26,5.96,5.96,0,0,0-.838,3.09,6.386,6.386,0,0,0,.43,2.32l-7.305,7.31v3.44H434.5v-2.75h2.75v-2.75h2.063l1.8-1.81a6.336,6.336,0,0,0,2.321.43,5.958,5.958,0,0,0,3.093-.84,6.333,6.333,0,0,0,2.256-2.25,6.134,6.134,0,0,0,0-6.19,6.282,6.282,0,0,0-2.256-2.26A6.18,6.18,0,0,0,440.344,1099.96Zm6.9-1.2a7.563,7.563,0,0,1-5.736,13.86l-1.332,1.33a1,1,0,0,1-.731.3h-0.816v1.72a1.026,1.026,0,0,1-1.031,1.03h-1.719v1.72a1.026,1.026,0,0,1-1.031,1.03h-4.813a1.026,1.026,0,0,1-1.031-1.03v-3.91a0.985,0.985,0,0,1,.3-0.73l6.832-6.83a7.351,7.351,0,0,1-.258-1.94A7.584,7.584,0,0,1,447.24,1098.76Zm-2.342,3.89a0.829,0.829,0,0,0,0,1.2,0.827,0.827,0,0,0,1.2,0,0.829,0.829,0,0,0,0-1.2A0.827,0.827,0,0,0,444.9,1102.65Zm2.063-.86a2.079,2.079,0,1,1-1.461-.6A1.99,1.99,0,0,1,446.961,1101.79Z" transform="translate(-429 -1097.75)"/>
</svg>
