<svg width="289" height="789" viewBox="0 0 289 789" fill="none" xmlns="http://www.w3.org/2000/svg">
<path d="M359.748 726.701C229.772 822.514 158.035 679.599 160.828 555.551C159.423 484.338 73.4835 470.153 71.7946 381.914C70.1057 293.675 193.954 352.768 193.795 216.822C193.635 80.8763 418.451 61.1156 460.508 163.87C502.565 266.625 525.733 225.083 643.425 298.851C761.118 372.619 719.719 588.746 588.691 589.163C457.663 589.58 500.45 622.981 359.748 726.701Z" stroke="#E1E5EB"/>
<path d="M361.555 702.753C242.298 790.759 174.296 659.644 177.095 544.957C176.054 478.463 96.8263 464.294 95.2705 382.965C93.6815 299.821 207.126 354.298 207.647 229.138C208.312 103.638 415.959 83.6556 455.424 180.283C494.67 276.339 516.713 237.291 625.034 306.114C733.354 374.937 695.611 574.033 573.945 575.389C453.872 576.135 491.292 606.959 361.555 702.753Z" stroke="#E1E5EB"/>
<path d="M363.361 678.806C254.823 759.004 190.557 639.689 193.361 534.362C192.686 472.587 120.169 458.436 118.747 384.016C117.258 305.967 220.299 355.828 221.499 241.455C222.989 126.399 413.467 106.196 450.34 196.696C486.776 286.054 507.693 249.499 606.642 313.378C705.591 377.256 671.503 559.319 559.2 561.615C450.08 562.69 482.136 590.936 363.361 678.806Z" stroke="#E1E5EB"/>
<path d="M365.169 654.858C267.349 727.249 206.819 619.734 209.629 523.767C209.318 466.711 143.513 452.576 142.224 385.067C140.834 312.112 233.472 357.358 235.353 253.771C237.667 149.16 410.975 128.735 445.257 213.108C478.882 295.768 498.674 261.707 588.251 320.641C677.828 379.574 647.396 544.605 544.455 547.84C446.289 549.244 472.979 574.914 365.169 654.858Z" stroke="#E1E5EB"/>
<path d="M366.976 630.91C279.875 695.494 223.082 599.778 225.897 513.172C225.951 460.834 166.857 446.717 165.701 386.117C164.411 318.258 246.645 358.888 249.206 266.086C252.345 171.92 408.484 151.274 440.174 229.52C470.99 305.482 489.656 273.915 569.861 327.903C650.066 381.892 623.289 529.891 529.71 534.065C442.499 535.797 463.824 558.89 366.976 630.91Z" stroke="#E1E5EB"/>
<path d="M369.269 606.775C292.887 663.552 239.83 579.636 242.65 502.39C243.07 454.771 190.687 440.671 189.664 386.981C188.474 324.217 260.304 360.231 263.545 278.215C267.508 194.494 406.478 173.627 435.577 245.745C463.582 315.01 481.123 285.936 551.956 334.98C622.789 384.024 599.667 514.99 515.451 520.103C439.194 522.165 455.153 542.681 369.269 606.775Z" stroke="#E1E5EB"/>
<path d="M372.136 582.42C306.473 631.39 257.152 559.274 259.977 491.388C260.762 448.488 215.09 434.405 214.2 387.626C213.11 329.955 274.536 361.354 278.458 290.125C283.246 216.848 405.046 195.76 431.553 261.751C456.748 324.317 473.163 297.737 534.624 341.836C596.086 385.935 576.62 499.87 501.765 505.921C436.463 508.312 447.057 526.251 372.136 582.42Z" stroke="#E1E5EB"/>
<path d="M375.035 558.053C320.09 599.215 274.505 538.898 277.335 480.373C278.486 442.192 239.525 428.126 238.768 388.256C237.778 335.681 288.801 362.465 293.403 302.021C299.015 239.189 403.646 217.88 427.561 277.743C449.946 333.612 465.236 309.525 517.325 348.679C569.414 387.833 553.604 484.736 488.112 491.727C433.764 494.447 438.992 509.808 375.035 558.053Z" stroke="#E1E5EB"/>
<path d="M377.979 533.667C333.753 567.022 291.904 518.505 294.74 469.34C296.255 435.878 264.006 421.829 263.382 388.869C262.492 341.389 303.111 363.557 308.393 313.899C314.83 261.512 402.291 239.982 423.615 293.717C443.189 342.888 457.354 321.295 500.071 355.504C542.788 389.714 530.634 469.584 474.504 477.514C431.11 480.563 430.973 493.348 377.979 533.667Z" stroke="#E1E5EB"/>
<path d="M380.991 509.253C347.483 534.801 309.371 498.084 312.211 458.28C314.092 429.536 288.554 415.504 288.063 389.454C287.273 347.069 317.488 364.621 323.45 325.749C330.712 283.808 401.004 262.056 419.736 309.664C436.5 352.137 449.539 333.037 482.884 362.302C516.23 391.566 507.73 454.405 460.963 463.273C428.524 466.651 423.02 476.859 380.991 509.253Z" stroke="#E1E5EB"/>
<path d="M384.104 484.798C361.315 502.538 326.938 477.621 329.784 447.177C332.03 423.152 313.203 409.137 312.846 389.997C312.155 352.707 331.967 365.643 338.609 337.557C346.695 306.061 399.818 284.087 415.959 325.568C429.912 361.343 441.826 344.737 465.799 369.057C489.773 393.377 484.929 439.183 447.524 448.991C426.039 452.698 415.17 460.328 384.104 484.798Z" stroke="#E1E5EB"/>
</svg>
