<svg width="97" height="97" viewBox="0 0 97 97" fill="none" xmlns="http://www.w3.org/2000/svg">
<path d="M1.90352 61.2008L6.95584 66.1877C7.1843 66.41 7.28722 66.7313 7.23041 67.0449L6.03318 74.0687C5.76248 75.6395 6.41354 77.2269 7.7093 78.1553C8.98383 79.0791 10.6737 79.195 12.0624 78.4538L18.2625 75.1462C18.538 74.9974 18.8688 74.9926 19.1485 75.1334L25.3932 78.4554C27.3306 79.5202 29.7642 78.8214 30.8414 76.891L30.9117 76.9596C31.4716 77.5151 31.7259 78.3084 31.5933 79.0859L29.7464 89.9711C29.3775 92.075 30.246 94.2041 31.9812 95.4497C33.6804 96.6866 35.9377 96.8417 37.7902 95.8487L47.4654 90.7102C48.1437 90.3478 48.9581 90.3478 49.6364 90.7102L59.31 95.8487C61.162 96.844 63.4206 96.6888 65.119 95.4497C66.8542 94.2041 67.7227 92.075 67.3538 89.9711L65.5069 79.0859C65.3742 78.3092 65.6279 77.5165 66.1869 76.9612L66.2588 76.891C67.3373 78.822 69.7724 79.5201 71.7102 78.4538L77.9358 75.1398C78.2095 75 78.5337 75 78.8074 75.1398L85.033 78.4617C86.4346 79.2016 88.1352 79.0786 89.4158 78.1448C90.6964 77.211 91.3334 75.6294 91.0574 74.0687L89.8586 67.0449C89.805 66.7295 89.9108 66.4081 90.1412 66.1861L95.1871 61.2024C96.3086 60.0901 96.7078 58.4408 96.2191 56.9388C95.7303 55.4367 94.437 54.3382 92.8756 54.0989L85.9062 53.0724C85.6011 53.0276 85.3396 52.831 85.2118 52.5504L82.0974 46.1652C81.4095 44.7382 79.9653 43.8312 78.3812 43.8314H78.3668C76.7879 43.8328 75.3501 44.7404 74.6697 46.1652L71.5649 52.5361C71.431 52.8256 71.1604 53.0283 70.845 53.0756L63.8595 54.0973C62.2975 54.3331 61.0047 55.4352 60.5248 56.9403C60.3991 57.3434 60.3351 57.7632 60.3349 58.1854L60.1257 58.1551C59.3581 58.0397 58.6968 57.5529 58.3586 56.8541L54.2609 48.4607H64.5156C67.155 48.4476 69.2914 46.3112 69.3045 43.6717C69.2998 42.8468 69.0797 42.0373 68.666 41.3236C70.6276 40.102 71.4238 37.6448 70.5512 35.505C72.6408 34.9528 74.0965 33.0626 74.0965 30.9013C74.0965 28.74 72.6408 26.8497 70.5512 26.2975C71.1549 24.8231 70.9818 23.1445 70.0898 21.8243C69.1979 20.5042 67.7051 19.7172 66.1119 19.7271L58.3363 19.7127C60.5245 15.2052 61.5512 10.2221 61.323 5.21664C61.2016 2.63069 59.1077 0.575293 56.5199 0.502015C53.9322 0.428737 51.7253 2.36234 51.4578 4.93728C51.2692 6.54342 50.7473 8.09246 49.9253 9.48517C49.2667 10.773 48.1422 11.7617 46.7806 12.25C44.7137 13.1972 42.8199 14.4834 41.1775 16.0556C39.9979 17.1375 38.9383 18.3433 38.0168 19.6521C37.7201 20.0269 37.3756 20.3613 36.992 20.6466C36.178 20.0498 35.195 19.7278 34.1857 19.7271H29.3968C26.7519 19.7271 24.6078 21.8712 24.6078 24.516C24.6078 25.3976 25.3225 26.1123 26.2042 26.1123C27.0858 26.1123 27.8005 25.3976 27.8005 24.516C27.8005 23.6344 28.5152 22.9197 29.3968 22.9197H34.1857C35.0673 22.9197 35.782 23.6344 35.782 24.516V42.0754C35.782 42.9571 35.0673 43.6717 34.1857 43.6717H29.3968C28.5152 43.6717 27.8005 42.9571 27.8005 42.0754V37.2865C27.8005 36.4049 27.0858 35.6902 26.2042 35.6902C25.3225 35.6902 24.6078 36.4049 24.6078 37.2865V42.0754C24.6078 44.7203 26.7519 46.8644 29.3968 46.8644H34.1857C35.0914 46.8628 35.9777 46.6019 36.7398 46.1125C38.5424 47.429 40.6886 48.1938 42.9175 48.3138L38.748 56.8525C38.4101 57.5525 37.748 58.0401 36.9792 58.1551L36.7733 58.1854C36.7717 57.7632 36.7071 57.3435 36.5818 56.9403C36.1011 55.4323 34.8046 54.3289 33.2391 54.0957L26.2457 53.0724C25.942 53.0243 25.6819 52.8288 25.5513 52.5504L22.4417 46.1652C21.7594 44.7392 20.319 43.8315 18.7382 43.8314H18.7238C17.1369 43.8281 15.6887 44.7356 14.9997 46.1652L11.8821 52.56C11.7497 52.8412 11.4831 53.0355 11.1749 53.0756L4.2054 54.0973C2.64643 54.3406 1.35695 55.4403 0.870556 56.9414C0.384159 58.4424 0.783572 60.0894 1.90352 61.2008ZM63.5658 57.9188C63.6708 57.5676 63.9694 57.3088 64.332 57.2548L71.2903 56.2363C72.651 56.0421 73.8263 55.1849 74.4271 53.9488L77.5415 47.5636C77.6901 47.2354 78.0177 47.0253 78.378 47.0272C78.744 47.0234 79.0782 47.2346 79.232 47.5667L82.34 53.9424C82.9278 55.185 84.1024 56.0474 85.464 56.2363L92.4143 57.2563C92.7797 57.3176 93.0805 57.5776 93.194 57.9303C93.3076 58.283 93.2149 58.6695 92.9539 58.9325L87.9175 63.9066C86.9399 64.8595 86.4934 66.2324 86.7235 67.5781L87.9207 74.6019C87.9916 74.9752 87.8374 75.3555 87.5264 75.574C87.241 75.7887 86.8562 75.8162 86.5431 75.6442L80.2919 72.3112C79.0857 71.6934 77.6549 71.6981 76.4528 72.3239L70.2144 75.6427C69.9052 75.8159 69.523 75.7909 69.2391 75.5788C68.9262 75.3555 68.7737 74.9691 68.8496 74.5923L68.8959 74.3049L74.0152 69.2622C75.5392 67.7699 76.0783 65.539 75.404 63.5155C74.7589 61.5054 73.0239 60.0393 70.9344 59.7386L63.6297 58.6771C63.5087 58.4428 63.4857 58.17 63.5658 57.9188ZM40.5949 21.5229C41.401 20.378 42.3285 19.3237 43.3613 18.3782C44.7642 17.0282 46.3883 15.9289 48.163 15.1281C50.098 14.3576 51.6982 12.9276 52.6806 11.0911C53.7165 9.32471 54.3763 7.36334 54.6185 5.32997C54.6436 4.36019 55.4501 3.5944 56.4199 3.61953C57.3897 3.64465 58.1555 4.45118 58.1304 5.42096C58.3718 10.0538 57.357 14.6658 55.1931 18.7693C54.668 19.5888 54.6325 20.6297 55.1006 21.483C55.5772 22.3609 56.4961 22.9074 57.495 22.9069L66.1119 22.9197C66.9935 22.9197 67.7082 23.6344 67.7082 24.516C67.7082 25.3976 66.9935 26.1123 66.1119 26.1123H62.9193C62.0377 26.1123 61.323 26.827 61.323 27.7086C61.323 28.5903 62.0377 29.305 62.9193 29.305H69.3045C70.1861 29.305 70.9008 30.0196 70.9008 30.9013C70.9008 31.7829 70.1861 32.4976 69.3045 32.4976H62.9193C62.0377 32.4976 61.323 33.2123 61.323 34.0939C61.323 34.9755 62.0377 35.6902 62.9193 35.6902H66.1119C66.9935 35.6902 67.7082 36.4049 67.7082 37.2865C67.7082 38.1681 66.9935 38.8828 66.1119 38.8828H61.323C60.4414 38.8828 59.7267 39.5975 59.7267 40.4791C59.7267 41.3607 60.4414 42.0754 61.323 42.0754H64.5156C65.3972 42.0754 66.1119 42.7901 66.1119 43.6717C66.113 44.1023 65.9362 44.5141 65.6234 44.8099C65.3312 45.106 64.9316 45.2712 64.5156 45.2681H52.2543C50.1775 43.3718 47.0039 43.3504 44.9017 45.2186C42.7112 45.3954 40.5258 44.8199 38.7065 43.5871C38.8781 43.1013 38.9687 42.5906 38.9746 42.0754V24.516C38.9688 24.0895 38.9049 23.6658 38.7847 23.2565C39.4663 22.7663 40.0756 22.1827 40.5949 21.5229ZM37.4406 61.3142C39.2512 61.0451 40.8125 59.9001 41.6133 58.254L46.4502 48.3569C46.8366 47.5464 47.6545 47.0301 48.5525 47.0301C49.4505 47.0301 50.2684 47.5464 50.6548 48.3569L55.4917 58.262C56.2931 59.9073 57.8542 61.0515 59.6644 61.3206L70.481 62.9089C71.3703 63.034 72.1074 63.6615 72.3726 64.5196C72.6707 65.389 72.4386 66.3524 71.7772 66.9907L63.9553 74.7008C62.6539 75.9874 62.0617 77.8278 62.3686 79.6318L64.2155 90.5171C64.3835 91.4221 64.0095 92.3421 63.2577 92.8732C62.5464 93.4026 61.5918 93.4693 60.8138 93.044L51.1417 87.9039C49.5256 87.0435 47.5873 87.0435 45.9713 87.9039L36.2976 93.044C35.5194 93.4689 34.5652 93.4022 33.8537 92.8732C33.1019 92.3421 32.7278 91.4221 32.8959 90.5171L34.7428 79.6318C35.0498 77.827 34.4569 75.9858 33.1545 74.6992L25.3326 66.9907C24.6712 66.3524 24.4391 65.389 24.7371 64.5196C25.0026 63.6611 25.7404 63.0334 26.6304 62.9089L37.4406 61.3142ZM3.90849 57.922C4.01566 57.5704 4.31464 57.3111 4.67791 57.2548L11.6203 56.2363C12.9849 56.052 14.1644 55.1917 14.757 53.9488L17.8666 47.5636C18.0204 47.2293 18.3559 47.0163 18.7238 47.0192C19.0853 47.0177 19.4137 47.2291 19.5619 47.5588L22.6923 53.9632C23.2909 55.1878 24.456 56.0375 25.8051 56.2331L32.7714 57.2532C33.1367 57.307 33.4385 57.5659 33.5472 57.9188C33.6252 58.1683 33.6017 58.4384 33.4817 58.6707L26.169 59.7434C24.0795 60.0441 22.3445 61.5102 21.6994 63.5203C21.0251 65.5438 21.5642 67.7747 23.0882 69.267L28.2075 74.3097L28.2554 74.6067C28.3282 74.9808 28.1752 75.363 27.8643 75.5836C27.5804 75.7921 27.2015 75.8176 26.8922 75.649L20.6394 72.3223C19.4307 71.6983 17.9946 71.6983 16.7859 72.3223L10.5603 75.6395C10.2466 75.8152 9.85856 75.7883 9.5722 75.5708C9.26459 75.3563 9.11049 74.982 9.17791 74.613L10.3735 67.5893C10.6078 66.245 10.1647 64.8717 9.18908 63.9178L4.14474 58.9389C3.87417 58.6751 3.7819 58.278 3.90849 57.922Z" fill="#4070F4"/>
</svg>
