<?xml version="1.0" encoding="iso-8859-1"?>
<!-- Generator: Adobe Illustrator 19.0.0, SVG Export Plug-In . SVG Version: 6.00 Build 0)  -->
<svg version="1.1" id="Layer_1" xmlns="http://www.w3.org/2000/svg" xmlns:xlink="http://www.w3.org/1999/xlink" x="0px" y="0px"
	 viewBox="0 0 512 512" style="enable-background:new 0 0 512 512;" xml:space="preserve">
<style type="text/css">
	.st1{fill:url(#SVGID_2_);}
</style>
<g>
	<g>
		<linearGradient id="SVGID_2_" gradientUnits="userSpaceOnUse" x1="512.4218" y1="384.2156" x2="32.2759" y2="384.2156">
			<stop  offset="0" style="stop-color:#4070F4"/>
			<stop  offset="1" style="stop-color:#4070F4"/>
		  </linearGradient>

		<path class="st1" d="M289.67,246.914h0.534c42.141,0,76.426-34.285,76.426-76.426v-0.356v-85.69h17.637c13.851,0,25.119-11.268,25.119-25.119
			V25.119C409.386,11.268,398.118,0,384.267,0h-59.858c-4.428,0-8.017,3.589-8.017,8.017c0,4.427,3.588,8.017,8.017,8.017h59.858
			c5.01,0,9.086,4.076,9.086,9.086v34.205c0,5.01-4.076,9.086-9.086,9.086H127.733c-5.01,0-9.086-4.076-9.086-9.086V25.119
			c0-5.01,4.076-9.086,9.086-9.086h153.921c4.428,0,8.017-3.589,8.017-8.017c0-4.427-3.588-8.017-8.017-8.017H127.733
			c-13.851,0-25.119,11.268-25.119,25.119v34.205c0,13.851,11.268,25.119,25.119,25.119h17.637v85.69v0.356
			c0,42.141,34.285,76.426,76.426,76.426h0.534v17.637v0.534h-0.534c-42.141,0-76.426,34.285-76.426,76.426v25.653
			c0,4.427,3.589,8.017,8.017,8.017s8.017-3.589,8.017-8.017v-25.653c0-33.3,27.092-60.392,60.392-60.392h8.551
			c4.427,0,8.017-3.589,8.017-8.017v-34.205c0-4.427-3.589-8.017-8.017-8.017h-8.551c-30.707,0-56.135-23.034-59.909-52.732h188.228
			c-3.774,29.698-29.202,52.732-59.909,52.732h-8.551c-4.428,0-8.017,3.589-8.017,8.017v34.205c0,4.427,3.588,8.017,8.017,8.017
			h8.551c33.3,0,60.393,27.092,60.393,60.392v86.046h-0.992c-20.193-31.979-55.626-51.663-93.605-51.663
			s-73.413,19.684-93.604,51.663h-0.993v-17.637c0-4.427-3.589-8.017-8.017-8.017s-8.017,3.589-8.017,8.017v17.637h-17.637
			c-13.851,0-25.119,11.268-25.119,25.119v34.205c0,13.851,11.268,25.119,25.119,25.119h256.534
			c13.851,0,25.119-11.268,25.119-25.119v-34.205c0-13.851-11.268-25.119-25.119-25.119H366.63v-86.046
			c0-42.141-34.285-76.426-76.426-76.426h-0.534v-0.534V246.914z M161.403,162.116V84.443h189.194v77.673H161.403z M256,391.928
			c28.941,0,56.162,13.362,73.966,35.629H182.034C199.838,405.29,227.058,391.928,256,391.928z M384.267,443.591
			c5.01,0,9.086,4.076,9.086,9.086v34.205c0,5.01-4.076,9.086-9.086,9.086H127.733c-5.01,0-9.086-4.076-9.086-9.086v-34.205
			c0-5.01,4.076-9.086,9.086-9.086H384.267z"/>


		<path  class="st1" d="M452.676,119.716c-5.01,0-9.086-4.076-9.086-9.086s4.076-9.086,9.086-9.086h17.102c4.428,0,8.017-3.589,8.017-8.017
			s-3.588-8.017-8.017-8.017h-9.086v-9.086c0-4.427-3.588-8.017-8.017-8.017c-4.428,0-8.017,3.589-8.017,8.017v10.405
			c-9.93,3.354-17.102,12.752-17.102,23.8c0,13.851,11.268,25.119,25.119,25.119c5.01,0,9.086,4.076,9.086,9.086
			s-4.076,9.086-9.086,9.086h-17.102c-4.428,0-8.017,3.589-8.017,8.017s3.588,8.017,8.017,8.017h9.086v9.086
			c0,4.427,3.588,8.017,8.017,8.017c4.428,0,8.017-3.589,8.017-8.017v-10.405c9.93-3.354,17.102-12.752,17.102-23.8
			C477.795,130.984,466.527,119.716,452.676,119.716z"/>

		<path class="st1"  d="M452.676,376.251c-5.01,0-9.086-4.076-9.086-9.086c0-5.01,4.076-9.086,9.086-9.086h17.102
			c4.428,0,8.017-3.589,8.017-8.017s-3.588-8.017-8.017-8.017h-9.086v-9.086c0-4.427-3.588-8.017-8.017-8.017
			c-4.428,0-8.017,3.589-8.017,8.017v10.405c-9.93,3.354-17.102,12.752-17.102,23.8c0,13.851,11.268,25.119,25.119,25.119
			c5.01,0,9.086,4.076,9.086,9.086c0,5.01-4.076,9.086-9.086,9.086h-17.102c-4.428,0-8.017,3.589-8.017,8.017
			c0,4.427,3.588,8.017,8.017,8.017h9.086v9.086c0,4.427,3.588,8.017,8.017,8.017c4.428,0,8.017-3.589,8.017-8.017v-10.405
			c9.93-3.354,17.102-12.752,17.102-23.8C477.795,387.519,466.527,376.251,452.676,376.251z"/>

		<path class="st1" d="M59.324,247.983c-5.01,0-9.086-4.076-9.086-9.086s4.076-9.086,9.086-9.086h17.102c4.427,0,8.017-3.589,8.017-8.017
			s-3.589-8.017-8.017-8.017H67.34v-9.086c0-4.427-3.589-8.017-8.017-8.017s-8.017,3.589-8.017,8.017v10.405
			c-9.93,3.354-17.102,12.752-17.102,23.8c0,13.851,11.268,25.119,25.119,25.119c5.01,0,9.086,4.076,9.086,9.086
			c0,5.01-4.076,9.086-9.086,9.086H42.221c-4.427,0-8.017,3.589-8.017,8.017s3.589,8.017,8.017,8.017h9.086v9.086
			c0,4.427,3.589,8.017,8.017,8.017s8.017-3.589,8.017-8.017v-10.405c9.93-3.354,17.102-12.752,17.102-23.8
			C84.443,259.252,73.174,247.983,59.324,247.983z"/>

		<path class="st1" d="M256,273.637c-4.427,0-8.017,3.589-8.017,8.017v8.551c0,4.427,3.589,8.017,8.017,8.017c4.428,0,8.017-3.589,8.017-8.017
			v-8.551C264.017,277.226,260.428,273.637,256,273.637z"/>

		<path class="st1" d="M256,307.841c-4.427,0-8.017,3.589-8.017,8.017v8.551c0,4.427,3.589,8.017,8.017,8.017c4.428,0,8.017-3.589,8.017-8.017
			v-8.551C264.017,311.431,260.428,307.841,256,307.841z"/>


		<path class="st1" d="M256,342.046c-4.427,0-8.017,3.589-8.017,8.017v8.551c0,4.427,3.589,8.017,8.017,8.017c4.428,0,8.017-3.589,8.017-8.017
			v-8.551C264.017,345.635,260.428,342.046,256,342.046z"/>

	</g>
</g>
</svg>
