<svg width="16" height="16" viewBox="0 0 16 16" fill="none" xmlns="http://www.w3.org/2000/svg">
    <path d="M7.81815 3.63634V5.81815L10.7272 2.90908L7.81815 0V2.18181C4.60362 2.18181 2 4.78543 2 7.99996C2 9.14177 2.33454 10.2036 2.90181 11.0981L3.96363 10.0363C3.63636 9.43268 3.45454 8.7345 3.45454 7.99996C3.45454 5.5927 5.41089 3.63634 7.81815 3.63634Z" fill="#9F9F9F"/>
    <path d="M12.7343 4.90188L11.6725 5.96369C11.9925 6.5746 12.1816 7.2655 12.1816 8.00004C12.1816 10.4073 10.2252 12.3637 7.81795 12.3637V10.1819L4.90887 13.0909L7.81795 16V13.8182C11.0325 13.8182 13.6361 11.2146 13.6361 8.00004C13.6361 6.85823 13.3016 5.79642 12.7343 4.90188Z" fill="#9F9F9F"/>
</svg>
