<svg width="32" height="32" viewBox="0 0 32 32" fill="none" xmlns="http://www.w3.org/2000/svg">
    <circle cx="16" cy="16" r="16" fill="#212121"/>
    <path fill-rule="evenodd" clip-rule="evenodd" d="M21.8275 11.525L12.2745 11.525L14.4703 13.7208C14.7164 13.9669 14.7164 14.366 14.4703 14.6121C14.2241 14.8582 13.8251 14.8582 13.579 14.6121L10.3109 11.344C10.0647 11.0979 10.0647 10.6988 10.3109 10.4527C10.3138 10.4497 10.3168 10.4468 10.3199 10.4439L13.5791 7.18459C13.8253 6.93847 14.2243 6.93847 14.4704 7.18459C14.7166 7.43072 14.7166 7.82977 14.4704 8.07589L12.2818 10.2646L21.8275 10.2646C22.1756 10.2646 22.4578 10.5467 22.4578 10.8948C22.4578 11.2429 22.1756 11.525 21.8275 11.525Z" fill="white"/>
    <path fill-rule="evenodd" clip-rule="evenodd" d="M18.656 24.8154C18.4099 24.5693 18.4099 24.1702 18.656 23.9241L20.8447 21.7355L11.2987 21.7355C10.9506 21.7355 10.6685 21.4533 10.6685 21.1052C10.6685 20.7571 10.9506 20.475 11.2987 20.475L20.8517 20.475L18.656 18.2792C18.4099 18.0331 18.4099 17.6341 18.656 17.3879C18.9021 17.1418 19.3012 17.1418 19.5473 17.3879L22.8115 20.6522C22.8128 20.6534 22.8141 20.6547 22.8154 20.656C23.0615 20.9022 23.0615 21.3012 22.8154 21.5473L19.5473 24.8154C19.3012 25.0615 18.9021 25.0615 18.656 24.8154Z" fill="white"/>
</svg>
