<svg width="238" height="601" viewBox="0 0 238 601" fill="none" xmlns="http://www.w3.org/2000/svg">
<path d="M-368.823 153.687C-411.778 -1.96942 -252.656 -17.8133 -137.823 29.1867C-70.8226 53.3582 -26.8227 -21.8133 56.1773 8.18666C139.177 38.1867 39.6776 132.687 166.678 181.187C293.678 229.687 231.677 446.687 120.677 449.187C9.67731 451.687 40.1773 488.187 -70.8227 571.687C-181.823 655.187 -368.823 539.187 -322.323 416.687C-275.823 294.187 -322.323 322.187 -368.823 153.687Z" stroke="#E1E5EB"/>
<path d="M-129.925 274.825C-134.881 260 -111.667 236.083 -92.9999 246.29C-75.9065 255.637 -58.5 249.333 -47 253.5C-16.7249 264.47 -27.8611 270.277 -14.3273 283.305C2.14143 299.16 9.99995 340.675 -27.8611 340.675C-59 340.675 -49.6829 355.799 -73 362.5C-96.3172 369.201 -122.76 357.794 -122.76 327.763C-122.76 316.485 -121.67 299.517 -129.925 274.825Z" stroke="#E1E5EB"/>
<path d="M-347.108 163.943C-386.609 21.0898 -239.842 4.51197 -133.751 48.1672C-71.2878 70.9909 -29.7054 2.08013 46.7946 29.7317C125.001 58.0017 33.5347 144.439 150.22 189.714C267.171 235.246 211.522 436.293 107.171 438.566C3.43088 440.838 32.0052 475.395 -71.0237 551.913C-174.052 628.432 -346.456 521.94 -304.184 407.846C-261.911 295.457 -304.085 319.37 -347.108 163.943Z" stroke="#E1E5EB"/>
<path d="M-325.393 174.2C-361.439 44.1494 -227.027 26.8377 -129.679 67.148C-71.7529 88.6241 -32.5881 25.974 37.4119 51.2771C110.826 77.8171 27.3918 156.191 133.762 198.242C240.665 240.806 191.366 425.9 93.6644 427.945C-2.81543 429.991 23.8331 462.604 -71.2245 532.141C-166.282 601.677 -324.09 504.694 -286.045 399.007C-247.999 296.729 -285.847 316.553 -325.393 174.2Z" stroke="#E1E5EB"/>
<path d="M-303.678 184.457C-336.269 67.2096 -214.213 49.1639 -125.607 86.1295C-72.2179 106.258 -35.4707 49.8685 28.0293 72.8231C96.6498 97.6331 21.2492 167.944 117.304 206.77C214.159 246.367 171.211 415.507 80.1581 417.325C-9.06165 419.143 15.6612 449.814 -71.4253 512.368C-158.512 574.923 -301.723 487.449 -267.905 390.167C-234.087 298.001 -267.608 313.737 -303.678 184.457Z" stroke="#E1E5EB"/>
<path d="M-281.962 194.715C-311.1 90.2706 -201.398 71.491 -121.535 105.112C-72.6826 123.892 -38.3531 73.7637 18.6469 94.3699C82.4743 117.45 15.1067 179.698 100.846 215.299C187.653 251.928 151.056 405.115 66.652 406.706C-15.3076 408.297 7.4895 437.024 -71.6258 492.597C-150.741 548.17 -279.357 470.204 -249.766 381.329C-220.175 299.273 -249.37 310.922 -281.962 194.715Z" stroke="#E1E5EB"/>
<path d="M-260.246 205.493C-285.929 113.851 -188.584 94.3377 -117.462 124.614C-73.1472 142.047 -41.2352 98.1786 9.26483 116.436C68.299 137.786 8.96445 191.971 84.3889 224.348C161.147 258.009 130.901 395.243 53.1461 396.607C-21.5534 397.97 -0.681976 424.754 -71.8261 473.345C-142.97 521.937 -256.99 453.479 -231.626 373.01C-206.263 301.066 -231.131 308.626 -260.246 205.493Z" stroke="#E1E5EB"/>
<path d="M-238.53 216.886C-260.759 138.047 -175.768 117.799 -113.39 144.73C-73.6114 160.816 -44.1169 123.208 -0.116943 139.118C54.1241 158.738 2.82257 204.859 67.9319 234.011C134.642 264.705 110.747 385.985 39.6406 387.122C-27.7988 388.258 -8.85309 413.099 -72.0261 454.708C-135.199 496.318 -234.623 437.369 -213.486 365.306C-192.35 303.473 -212.892 306.945 -238.53 216.886Z" stroke="#E1E5EB"/>
<path d="M-216.814 228.313C-235.588 162.276 -162.953 141.295 -109.316 164.881C-74.075 179.619 -46.9982 148.272 -9.49817 161.833C39.9496 179.723 -3.3188 217.782 51.4754 243.709C108.137 271.435 90.5927 376.762 26.1357 377.671C-34.0437 378.58 -17.0237 401.477 -72.2255 436.106C-127.427 470.734 -212.255 421.293 -195.346 357.636C-178.437 305.914 -194.652 305.299 -216.814 228.313Z" stroke="#E1E5EB"/>
<path d="M-195.096 239.789C-210.416 186.555 -150.136 164.84 -105.242 185.081C-74.5378 198.471 -49.8785 173.385 -18.8785 184.598C25.7761 200.758 -9.45927 230.753 35.0198 253.456C81.6335 278.214 70.4396 367.588 12.6316 368.27C-40.2877 368.952 -25.1934 389.906 -72.424 417.552C-119.655 445.198 -189.886 405.266 -177.204 350.016C-164.522 308.405 -176.411 303.701 -195.096 239.789Z" stroke="#E1E5EB"/>
<path d="M-173.378 251.337C-185.243 210.906 -137.318 188.457 -101.166 205.354C-74.999 217.396 -52.7573 198.571 -28.2573 207.435C11.6041 221.865 -15.5982 243.797 18.5658 263.275C55.1311 285.065 50.2881 358.487 -0.870972 358.941C-46.5301 359.396 -33.3615 378.406 -72.621 399.071C-111.88 419.735 -167.516 389.312 -159.061 342.468C-150.607 310.968 -158.169 302.176 -173.378 251.337Z" stroke="#E1E5EB"/>
<path d="M-151.655 262.996C-160.066 235.368 -124.496 212.185 -97.0874 225.736C-75.457 236.431 -55.6329 223.866 -37.6329 230.382C-2.56462 243.082 -21.7339 256.952 2.11496 273.205C28.632 292.027 30.1397 349.495 -14.3703 349.722C-52.7693 349.95 -41.5265 367.017 -72.8148 380.7C-104.103 394.383 -145.142 373.467 -140.915 335.03C-136.688 313.641 -139.924 300.761 -151.655 262.996Z" stroke="#E1E5EB"/>
</svg>
