<?xml version="1.0" encoding="utf-8"?>
<!-- Generator: Adobe Illustrator 22.1.0, SVG Export Plug-In . SVG Version: 6.00 Build 0)  -->
<svg version="1.1" id="image" xmlns="http://www.w3.org/2000/svg" xmlns:xlink="http://www.w3.org/1999/xlink" x="0px" y="0px"
	 viewBox="0 0 223 164" style="enable-background:new 0 0 223 164;" xml:space="preserve">
<style type="text/css">
	.st0{fill:#E1E1E1;}
	.st1{fill:#324CA3;}
	.st2{fill:#C7C7C7;}
	.st3{fill:#5A82EF;}
	.st4{fill:#FDFFFF;}
	.st5{fill:#3B58B8;}
	.st6{fill:#F0F0F0;}
</style>
<g id="lock">
	<path id="_x31_" class="st0" d="M203.8,87.3c0,0-6.2-25.7-6.7-26.7c-0.9-2-2.5-3.6-4.4-4.6c-1.3-0.6-2.7-1-4.2-1s-3,0.4-4.2,1
		c-1.9,1-3.5,2.6-4.4,4.6c-0.5,1-6.7,26.7-6.7,26.7c-0.1,0.7-0.2,1.4-0.2,2.2c0,0.9,0.1,1.7,0.2,2.5c1.2,7.4,7.6,13,15.3,13
		s14.1-5.6,15.3-13c0.1-0.8,0.2-1.6,0.2-2.5C204,88.8,203.9,88,203.8,87.3z M188.5,65c-1.9,0-3.5-1.6-3.5-3.5s1.6-3.5,3.5-3.5
		s3.5,1.6,3.5,3.5S190.4,65,188.5,65z"/>
	<circle id="_x32__1_" class="st1" cx="196.5" cy="74.5" r="1.5"/>
	<circle id="_x33__1_" class="st2" cx="180.5" cy="74.5" r="1.5"/>
	<path id="_x34_" class="st2" d="M188.5,84c-6.5,0-10.5,5-10.5,6.5s4,6.5,10.5,6.5s10.5-5,10.5-6.5S195,84,188.5,84z M188.5,93.5
		c-1.7,0-3-1.3-3-3s1.3-3,3-3s3,1.3,3,3S190.2,93.5,188.5,93.5z"/>
</g>
<g id="shield">
	<path id="_x60_" class="st3" d="M67,31.7l44.5-13.9L156,31.7c0,0,0,17.9,0,34.8c0,24.5-17.2,53.7-44.5,65.7
		C84.2,120.2,67,91,67,66.5C67,50.6,67,31.7,67,31.7z"/>
	<path id="_x32_" class="st4" d="M127,61h-2v-6h0c-0.3-7.2-6.2-13-13.5-13S98.3,47.8,98,55h0v6h-2c-3.3,0-6,2.7-6,6v27
		c0,3.3,2.7,6,6,6h31c3.3,0,6-2.7,6-6V67C133,63.7,130.3,61,127,61z M103,55L103,55c0.3-4.5,4-8,8.5-8s8.2,3.5,8.5,8h0v6h-17V55z"/>
	<path id="_x33_" class="st5" d="M117,78.5c0-3-2.5-5.5-5.5-5.5s-5.5,2.5-5.5,5.5c0,2.1,1.2,4,3,4.9V89h5v-5.6
		C115.8,82.5,117,80.6,117,78.5z"/>
</g>
<g id="flash">
	<rect id="_x31__1_" x="29" y="92" class="st5" width="11" height="10"/>
	<rect id="_x32__2_" x="30" y="100" class="st3" width="9" height="1"/>
	<path id="_x33__2_" class="st3" d="M41,58H28c-1.1,0-2,0.9-2,2v30c0,1.1,0.9,2,2,2h13c1.1,0,2-0.9,2-2V60C43,58.9,42.1,58,41,58z
		 M34.5,65c-1.4,0-2.5-1.1-2.5-2.5c0-1.4,1.1-2.5,2.5-2.5s2.5,1.1,2.5,2.5C37,63.9,35.9,65,34.5,65z"/>
	<circle id="_x34__1_" class="st5" cx="34.5" cy="76.5" r="5.5"/>
	<path id="_x35_" class="st4" d="M35.8,72.9c-1.1,0-2,0.9-2,2c0,0.4,0.1,0.7,0.3,1l-2.9,2.9l0.7,0.7l0.7,0.7l0.7-0.7l-0.7-0.7
		l2.2-2.2c0.3,0.2,0.7,0.3,1,0.3c1.1,0,2-0.9,2-2C37.8,73.8,36.9,72.9,35.8,72.9z M35.8,75.9c-0.6,0-1-0.4-1-1c0-0.6,0.4-1,1-1
		s1,0.4,1,1C36.8,75.4,36.4,75.9,35.8,75.9z"/>
</g>
<ellipse id="shadow" class="st6" cx="111.5" cy="143.5" rx="37.5" ry="1.5"/>
</svg>
