<?xml version="1.0" encoding="utf-8"?>
<!-- Generator: Adobe Illustrator 21.0.0, SVG Export Plug-In . SVG Version: 6.00 Build 0)  -->
<svg version="1.1" id="Capa_1" xmlns="http://www.w3.org/2000/svg" xmlns:xlink="http://www.w3.org/1999/xlink" x="0px" y="0px"
	 viewBox="0 0 60 60" style="enable-background:new 0 0 60 60;" xml:space="preserve">
<style type="text/css">
	.st1{fill:url(#SVGID_1_);}
</style>
<g>
	<linearGradient id="SVGID_1_" gradientUnits="userSpaceOnUse" >
		<stop  offset="0" style="stop-color:#4070F4"/>
		<stop  offset="1" style="stop-color:#4070F4"/>
	</linearGradient>

	<path class="st1" d="M15,30c0-4.3,1.5-8.4,4.3-11.7c0.4-0.4,1-0.5,1.4-0.1c0.4,0.4,0.5,1,0.1,1.4C18.4,22.5,17,26.2,17,30
		c0,8.8,7.2,16,16,16h24c0.6,0,1,0.4,1,1s-0.4,1-1,1H33C23.1,48,15,39.9,15,30z"/>

	<path class="st1" d="M49.3,56.7c-0.4-0.4-0.4-1,0-1.4l9-9c0.4-0.4,1-0.4,1.4,0c0.4,0.4,0.4,1,0,1.4l-9,9C50.5,56.9,50.3,57,50,57
		S49.5,56.9,49.3,56.7z"/>

	<path class="st1" d="M58.3,47.7l-9-9c-0.4-0.4-0.4-1,0-1.4s1-0.4,1.4,0l9,9c0.4,0.4,0.4,1,0,1.4C59.5,47.9,59.3,48,59,48
		S58.5,47.9,58.3,47.7z"/>
</g>
</svg>
