<svg width="96" height="97" viewBox="0 0 96 97" fill="none" xmlns="http://www.w3.org/2000/svg">
<g clip-path="url(#clip0)">
<path d="M82.5296 66.2472L79.2768 69.5L59.7444 49.9676L62.9972 46.7148C64.7944 44.9199 67.7058 44.9199 69.5029 46.7148L82.5296 59.7415C84.3245 61.5386 84.3245 64.45 82.5296 66.2472Z" fill="white"/>
<path d="M82.5296 59.7415L69.5029 46.7147C68.0269 45.2455 65.7468 44.9539 63.9485 46.0043C64.2951 46.1988 64.6149 46.4376 64.8998 46.7147L77.9265 59.7415C79.7214 61.5386 79.7214 64.45 77.9265 66.2471L76.9752 67.1984L79.2767 69.5L82.5296 66.2471C84.3245 64.45 84.3245 61.5386 82.5296 59.7415Z" fill="white"/>
<path d="M79.2768 69.5L73.8451 74.9316C65.176 83.6007 47.8071 72.7528 30.4535 55.3992C13.0999 38.0456 2.23662 20.6767 10.9211 12.0076L16.3527 6.57593L35.8698 26.1083L32.3254 29.6527C31.2385 30.7321 31.1141 32.4478 32.0339 33.6727C34.889 37.4919 37.9844 41.1255 41.3014 44.5513C44.7312 47.8639 48.3644 50.9591 52.18 53.8188C53.399 54.7399 55.1119 54.6152 56.1847 53.5273L59.7444 49.9676L79.2768 69.5Z" fill="white"/>
<path d="M31.2666 26.1083L27.7223 29.6527C26.6354 30.7321 26.511 32.4478 27.4307 33.6727C30.2859 37.4919 33.3813 41.1255 36.6983 44.5513C40.1281 47.8639 43.7613 50.9591 47.5769 53.8188C48.7959 54.7399 50.5087 54.6152 51.5815 53.5273L51.6751 53.4337C48.0405 50.6857 44.5762 47.7195 41.3013 44.5513C37.9844 41.1255 34.889 37.4919 32.0338 33.6727C31.114 32.4478 31.2384 30.7321 32.3254 29.6527L35.8697 26.1083L16.3527 6.57593L14.0511 8.87747L31.2666 26.1083Z" fill="white"/>
<path d="M59.7444 49.9676L57.4429 52.2691L74.6737 69.5L69.2421 74.9316C67.7587 76.4314 65.8425 77.4285 63.7629 77.7825C67.3888 78.5735 71.1704 77.5042 73.8452 74.9316L79.2768 69.5L59.7444 49.9676Z" fill="white"/>
<path d="M39.138 22.8554L35.8698 26.1083L16.3528 6.57589L19.6056 3.32305C21.4028 1.52814 24.3142 1.52814 26.1113 3.32305L39.138 16.3344C40.933 18.1375 40.933 21.0523 39.138 22.8554Z" fill="white"/>
<path d="M39.138 16.3344L26.1113 3.32306C24.635 1.85431 22.3553 1.56273 20.5569 2.61266C20.9035 2.80712 21.2233 3.04594 21.5082 3.32306L34.5349 16.3344C36.3299 18.1375 36.3299 21.0523 34.5349 22.8554L33.5744 23.8114L35.8759 26.1129L39.1441 22.8601C40.9405 21.0547 40.9377 18.1364 39.138 16.3344Z" fill="white"/>
<path d="M63.7629 77.7825C64.2395 77.8541 64.7085 77.9052 65.1699 77.9359H65.3034C65.736 77.962 66.1626 77.9681 66.5799 77.9559H66.692C67.2427 77.9318 67.7913 77.8703 68.3337 77.7717C59.1843 76.3647 47.1181 67.4562 35.0565 55.3947C17.7029 38.0457 6.83969 20.6767 15.5242 12.0076L18.6527 8.8775L20.9558 6.57596L24.2086 3.32312C24.494 3.04543 24.8155 2.80751 25.1645 2.61578C23.365 1.56654 21.085 1.85664 19.6056 3.32312L16.3527 6.57596L14.0512 8.8775L10.9211 12.0076C2.23662 20.6767 13.0999 38.0457 30.4535 55.3993C42.5289 67.4747 54.6089 76.3893 63.7629 77.7825Z" fill="white"/>
<path d="M9.81326 23.0979L6.81819 23.7607C6.28019 21.5628 6.20236 19.2773 6.58957 17.0479C7.03309 14.7229 8.16472 12.5847 9.83781 10.9105L12.0105 13.0862C10.7676 14.3241 9.92924 15.9098 9.60612 17.634C9.29968 19.4502 9.37019 21.3101 9.81326 23.0979Z" fill="white"/>
<path d="M8.11944 18.8508C7.27204 18.855 6.58165 18.1715 6.57741 17.3241C6.57318 16.4767 7.2567 15.7863 8.1041 15.782H8.11944C8.96685 15.782 9.6538 16.469 9.6538 17.3164C9.6538 18.1638 8.96685 18.8508 8.11944 18.8508Z" fill="#4070F4"/>
<path d="M12.4708 92.5H78.2181C81.3666 92.498 84.1942 90.5725 85.3497 87.6437C86.5052 84.7149 85.7539 81.3774 83.4549 79.2263L77.388 73.5599L83.6144 67.3365C84.7655 66.1855 85.4122 64.6244 85.4122 62.9966C85.4122 61.3688 84.7655 59.8077 83.6144 58.6567L70.5954 45.6376C68.1654 43.322 64.3455 43.322 61.9155 45.6376L58.6627 48.8905L55.1106 52.4425C54.5747 52.9892 53.7155 53.051 53.1068 52.5867C49.3468 49.7742 45.7677 46.7275 42.3908 43.465C39.1266 40.0876 36.079 36.5074 33.266 32.7459C32.8069 32.1388 32.8692 31.2853 33.4117 30.7513L36.9653 27.1992L40.2197 23.9449C42.6156 21.5482 42.6156 17.6632 40.2197 15.2665L27.2007 2.23675C24.7707 -0.0789162 20.9507 -0.0789162 18.5208 2.23675L15.2633 5.48959L9.83785 10.9166C9.23874 11.5166 9.23942 12.4886 9.83938 13.0877C10.4393 13.6868 11.4114 13.6862 12.0105 13.0862L16.3497 8.7455L33.7063 26.1052L31.2376 28.574C29.6199 30.1983 29.4402 32.764 30.8156 34.5979C33.7128 38.4718 36.8528 42.1581 40.2166 45.6346C43.6939 48.9968 47.3796 52.1367 51.2517 55.0356C53.0868 56.4091 55.6515 56.2295 57.2772 54.6136L59.7459 52.1433L77.1057 69.503L74.0584 72.5533L72.765 73.8468C65.8665 80.7391 50.8451 73.6274 31.5368 54.3144C26.9236 49.7592 22.6247 44.8964 18.6696 39.7595C16.722 37.2103 14.9474 34.5335 13.3577 31.7471C11.7722 29.0466 10.5788 26.1344 9.8133 23.0979C9.61088 22.3104 8.84726 21.8022 8.04265 21.9195C7.62527 21.9808 7.25343 22.2161 7.01943 22.5671C6.78543 22.9181 6.7112 23.3519 6.81516 23.7607C7.64317 27.0897 8.9437 30.2829 10.6771 33.2431C12.3343 36.1508 14.1848 38.944 16.2162 41.6038C20.257 46.8567 24.6497 51.8292 29.3641 56.4871C44.5389 71.6603 57.205 79.4886 66.2286 79.4886C69.4852 79.5777 72.6345 78.3205 74.9346 76.0133L75.2169 75.731L81.3635 81.4726C82.7393 82.7644 83.1872 84.765 82.4935 86.5201C81.7999 88.2752 80.1053 89.4291 78.2181 89.4313H12.4708C10.776 89.4313 9.40209 88.0574 9.40209 86.3626C9.40209 84.6678 10.776 83.2938 12.4708 83.2938H32.4175C35.8071 83.2938 38.5549 80.546 38.5549 77.1564C38.5549 73.7668 35.8071 71.019 32.4175 71.019H17.0739C15.3791 71.019 14.0052 69.6451 14.0052 67.9503V60.2785C14.0052 59.4311 13.3182 58.7441 12.4708 58.7441C11.6234 58.7441 10.9365 59.4311 10.9365 60.2785V67.9503C10.9365 71.3399 13.6843 74.0877 17.0739 74.0877H32.4175C34.1123 74.0877 35.4862 75.4616 35.4862 77.1564C35.4862 78.8512 34.1123 80.2251 32.4175 80.2251H12.4708C9.0812 80.2251 6.33337 82.973 6.33337 86.3626C6.33337 89.7522 9.0812 92.5 12.4708 92.5ZM18.5177 6.57591L20.6873 4.40633C21.9018 3.24645 23.8136 3.24645 25.028 4.40633L38.0455 17.4254C39.2435 18.6237 39.2435 20.5662 38.0455 21.7645L35.8759 23.9356L18.5177 6.57591ZM61.9155 49.9737L64.0851 47.8041C65.2996 46.6443 67.2114 46.6443 68.4258 47.8041L81.4448 60.8232C82.0206 61.3987 82.3441 62.1794 82.3441 62.9935C82.3441 63.8076 82.0206 64.5883 81.4448 65.1639L79.2753 67.3365L61.9155 49.9737Z" fill="#4070F4"/>
<path d="M60.0359 26.5226C60.4428 26.5225 60.833 26.3608 61.1207 26.073L71.8612 15.3325C72.4427 14.7305 72.4344 13.7735 71.8425 13.1816C71.2507 12.5898 70.2937 12.5815 69.6916 13.163L58.9511 23.9035C58.5124 24.3423 58.3812 25.0021 58.6187 25.5754C58.8561 26.1486 59.4154 26.5225 60.0359 26.5226Z" fill="#4070F4"/>
<path d="M53.8985 21.9195C54.7459 21.9195 55.4328 21.2326 55.4328 20.3852V6.57592C55.4328 5.72852 54.7459 5.04156 53.8985 5.04156C53.0511 5.04156 52.3641 5.72852 52.3641 6.57592V20.3852C52.3641 21.2326 53.0511 21.9195 53.8985 21.9195Z" fill="#4070F4"/>
<path d="M63.1046 31.1257C63.1046 31.9731 63.7916 32.66 64.639 32.66H78.4482C79.2956 32.66 79.9826 31.9731 79.9826 31.1257C79.9826 30.2783 79.2956 29.5913 78.4482 29.5913H64.639C63.7916 29.5913 63.1046 30.2783 63.1046 31.1257Z" fill="#4070F4"/>
</g>
<defs>
<clipPath id="clip0">
<rect width="96" height="96" fill="white" transform="translate(0 0.5)"/>
</clipPath>
</defs>
</svg>
