<svg width="32" height="32" viewBox="0 0 32 32" fill="none" xmlns="http://www.w3.org/2000/svg">
    <path fill-rule="evenodd" clip-rule="evenodd" d="M28.6667 16C28.6667 19.3526 27.3642 22.4009 25.2377 24.6667L27.2941 27.3333C30.201 24.4364 32 20.4283 32 16C32 7.16344 24.8366 0 16 0V3.33333C22.9956 3.33333 28.6667 9.00439 28.6667 16Z" fill="#E1E4ED"/>
    <path d="M3.33333 16C3.33333 9.00439 9.00439 3.33333 16 3.33333V0C7.16344 0 0 7.16344 0 16C0 24.8366 7.16344 32 16 32C20.4083 32 24.4002 30.2172 27.2941 27.3333L25.2377 24.6667C22.9269 27.1287 19.643 28.6667 16 28.6667C9.00439 28.6667 3.33333 22.9956 3.33333 16Z" fill="#E1E4ED"/>
    <path fill-rule="evenodd" clip-rule="evenodd" d="M28.6667 16C28.6667 19.3526 27.3642 22.4009 25.2377 24.6667L27.2941 27.3333C30.201 24.4364 32 20.4283 32 16C32 7.16344 24.8366 0 16 0V3.33333C22.9956 3.33333 28.6667 9.00439 28.6667 16Z" fill="#4171F4"/>
</svg>
