<svg width="469" height="213" viewBox="0 0 469 213" fill="none" xmlns="http://www.w3.org/2000/svg">
<path d="M145.101 45.3008C-15.5981 29.498 26.7525 -124.701 111.852 -214.999C158.47 -268.851 104.112 -336.909 161.915 -403.601C219.718 -470.293 272.187 -343.496 363.055 -444.61C453.924 -545.725 634.188 -409.939 596.663 -305.444C559.139 -200.949 604.156 -216.309 642.229 -82.7285C680.302 50.8518 504.891 183.727 407.258 96.3403C309.625 8.95415 319.06 62.4076 145.101 45.3008Z" stroke="#E1E5EB"/>
<path d="M162.471 28.717C14.9611 14.2874 52.1901 -128.644 131.029 -211.983C174.76 -262.085 125.377 -325.639 178.654 -387.107C233.121 -449.947 280.949 -333.543 365.104 -426.188C449.595 -518.99 617.25 -394.86 581.901 -296.652C546.771 -199.015 589.284 -213.275 623.703 -89.6411C658.122 33.9927 496.826 156.659 405.521 76.2368C315.807 -3.57334 322.98 44.3743 162.471 28.717Z" stroke="#E1E5EB"/>
<path d="M179.841 12.1332C45.5207 -0.92331 77.6282 -132.587 150.206 -208.968C191.05 -255.319 146.642 -314.368 195.393 -370.614C246.524 -429.601 289.712 -323.59 367.153 -407.765C445.266 -492.255 600.313 -379.781 567.139 -287.86C534.404 -197.081 574.411 -210.241 605.177 -96.5537C635.942 17.1335 488.761 129.592 403.784 56.1332C321.989 -16.1009 326.9 26.341 179.841 12.1332Z" stroke="#E1E5EB"/>
<path d="M197.212 -4.45051C76.0809 -16.1338 103.067 -136.53 169.384 -205.953C207.341 -248.553 167.908 -303.098 212.133 -354.12C259.929 -409.255 298.475 -313.636 369.203 -389.343C440.938 -465.52 583.376 -364.701 552.377 -279.068C522.037 -195.146 559.539 -207.207 586.651 -103.466C613.763 0.27454 480.698 102.524 402.048 36.0298C328.171 -28.6283 330.821 8.30779 197.212 -4.45051Z" stroke="#E1E5EB"/>
<path d="M214.584 -21.0342C106.642 -31.3443 128.506 -140.472 188.562 -202.937C223.632 -241.787 189.174 -291.828 228.874 -337.627C273.334 -388.91 307.239 -303.683 371.254 -370.92C436.611 -438.785 566.44 -349.622 537.617 -270.276C509.671 -193.211 544.668 -204.173 568.126 -110.379C591.584 -16.5845 472.634 75.4571 400.312 15.9264C334.355 -41.1556 334.743 -9.72539 214.584 -21.0342Z" stroke="#E1E5EB"/>
<path d="M232.44 -37.4314C137.688 -46.3683 154.431 -144.229 208.226 -199.735C240.409 -234.835 210.926 -280.371 246.099 -320.947C287.224 -368.377 316.489 -293.543 373.79 -352.311C432.768 -411.864 549.989 -334.356 523.341 -261.297C497.791 -191.09 530.282 -200.952 550.087 -117.105C569.891 -33.257 465.056 48.5764 399.062 -3.99056C341.023 -53.4965 339.15 -27.5721 232.44 -37.4314Z" stroke="#E1E5EB"/>
<path d="M250.871 -53.6082C169.308 -61.172 180.929 -147.765 228.463 -196.313C257.76 -227.662 233.251 -268.693 263.899 -304.046C301.688 -347.624 326.312 -283.183 376.899 -333.482C429.5 -384.722 534.112 -318.87 509.639 -252.098C486.484 -188.749 516.47 -197.511 532.621 -123.61C548.771 -49.7091 458.052 21.9159 398.385 -23.6872C348.266 -65.617 344.13 -45.1984 250.871 -53.6082Z" stroke="#E1E5EB"/>
<path d="M269.334 -69.7732C200.96 -75.9638 207.46 -151.289 248.733 -192.878C275.142 -220.477 255.609 -257.004 281.731 -287.134C316.184 -326.86 336.167 -272.811 380.041 -314.641C426.264 -357.568 518.267 -303.372 495.97 -242.888C475.209 -186.395 502.69 -194.058 515.187 -130.104C527.684 -66.1494 451.08 -4.73266 397.741 -43.3719C355.54 -77.7257 349.143 -62.8129 269.334 -69.7732Z" stroke="#E1E5EB"/>
</svg>
