<?xml version="1.0" encoding="iso-8859-1"?>
<!-- Generator: Adobe Illustrator 19.0.0, SVG Export Plug-In . SVG Version: 6.00 Build 0)  -->
<svg xmlns="http://www.w3.org/2000/svg" xmlns:xlink="http://www.w3.org/1999/xlink" version="1.1" id="Capa_1" x="0px" y="0px" viewBox="0 0 490 490" style="enable-background:new 0 0 490 490;" xml:space="preserve" width="512px" height="512px">

    <style type="text/css">
        .st0{fill:url(#SVGID_1_);}
    </style>
	<linearGradient id="SVGID_1_" gradientUnits="userSpaceOnUse" x1="480.2302" y1="128.2252" x2="-1.280882e-04" y2="128.2252">
		<stop  offset="0" style="stop-color:#4070F4"/>
		<stop  offset="1" style="stop-color:#4070F4"/>
	</linearGradient>

	<g>
		<path class="st0" d="M311.5,184.4c0,36.1-29.2,65.3-65.3,65.3s-65.3-29.2-65.3-65.3s29.2-65.3,65.3-65.3S311.5,148.4,311.5,184.4z M245,0    C109.9,0,0,109.9,0,245s109.9,245,245,245s245-109.9,245-245S380.1,0,245,0z M357.3,404.7c-8.2-65.7-35.2-133-111.1-133    c-76.5,0-103.3,68.3-111.3,134.5C83.5,371,49.7,311.9,49.7,245c0-107.7,87.6-195.3,195.3-195.3S440.3,137.3,440.3,245    C440.3,310.9,407.5,369.3,357.3,404.7z"/>
	</g>

</svg>
