<svg xmlns="http://www.w3.org/2000/svg" xmlns:xlink="http://www.w3.org/1999/xlink" width="27" height="24" viewBox="0 0 27 24">
  <defs>
    <style>
      .cls-1 {
        fill-rule: evenodd;
        fill: url(#linear-gradient);
      }
    </style>
    <linearGradient id="linear-gradient" x1="1234.5" y1="713" x2="1234.5" y2="689" gradientUnits="userSpaceOnUse">
      <stop offset="0" stop-color="#4070F4"/>
      <stop offset="1" stop-color="#4070F4"/>
    </linearGradient>
  </defs>
  <path id="yvedomlenie" class="cls-1" d="M1247.6,698.75a3.012,3.012,0,0,1,0,3,2.663,2.663,0,0,1-1.1,1.078V710a1.427,1.427,0,0,1-.33.891,1.345,1.345,0,0,1-1.17.609,1.507,1.507,0,0,1-.94-0.328l-3.98-3.188a10.89,10.89,0,0,0-3.33-1.851,11.394,11.394,0,0,0-3.75-.633h-1.31a5.932,5.932,0,0,0-.19,1.5,5.8,5.8,0,0,0,1.22,3.609,1.461,1.461,0,0,1,.26,1.032,1.535,1.535,0,0,1-.5.961,1.37,1.37,0,0,1-.98.4h-5.02a1.446,1.446,0,0,1-1.31-.8A12.07,12.07,0,0,1,1224,707v-1.5a2.966,2.966,0,0,1-3-3V698a2.966,2.966,0,0,1,3-3h9a11.394,11.394,0,0,0,3.75-.633,10.869,10.869,0,0,0,3.33-1.851l3.98-3.188A1.507,1.507,0,0,1,1245,689a1.345,1.345,0,0,1,1.17.609,1.427,1.427,0,0,1,.33.891v7.172h0A2.663,2.663,0,0,1,1247.6,698.75ZM1230,707a9.683,9.683,0,0,1,.14-1.5h-4.64V707a10.272,10.272,0,0,0,1.03,4.5h4.97a7.225,7.225,0,0,1-1.5-4.5h0Zm3-3v-7.5h-9a1.417,1.417,0,0,0-1.05.445,1.437,1.437,0,0,0-.45,1.055v4.5a1.435,1.435,0,0,0,.45,1.055A1.414,1.414,0,0,0,1224,704h9Zm12-13.5-3.98,3.188a12.505,12.505,0,0,1-6.52,2.718v7.688a12.507,12.507,0,0,1,6.52,2.719L1245,710v-0.047h0V690.5Z" transform="translate(-1221 -689)"/>
</svg>
