<?xml version="1.0" encoding="UTF-8"?>
<svg xmlns="http://www.w3.org/2000/svg" xmlns:xlink="http://www.w3.org/1999/xlink" width="16pt" height="16pt" viewBox="0 0 16 16" version="1.1">
<g id="surface1">
<path style=" stroke:none;fill-rule:evenodd;fill:rgb(87.843137%,55.294118%,17.647059%);fill-opacity:1;" d="M 8 16 C 12.417969 16 16 12.417969 16 8 C 16 3.582031 12.417969 0 8 0 C 3.582031 0 0 3.582031 0 8 C 0 12.417969 3.582031 16 8 16 Z M 8 16 "/>
<path style=" stroke:none;fill-rule:evenodd;fill:rgb(100%,100%,100%);fill-opacity:1;" d="M 8.113281 5.839844 C 7.691406 5.898438 7.269531 5.972656 6.921875 6.140625 C 6.242188 6.425781 5.785156 7.03125 5.785156 7.917969 C 5.785156 9.03125 6.480469 9.597656 7.359375 9.597656 C 7.65625 9.597656 7.894531 9.5625 8.113281 9.503906 C 8.460938 9.390625 8.753906 9.183594 9.101562 8.804688 C 9.304688 9.089844 9.359375 9.222656 9.707031 9.523438 C 9.796875 9.5625 9.890625 9.5625 9.964844 9.503906 C 10.183594 9.316406 10.566406 8.976562 10.769531 8.789062 C 10.859375 8.710938 10.84375 8.597656 10.789062 8.503906 C 10.585938 8.238281 10.386719 8.011719 10.386719 7.503906 L 10.386719 5.800781 C 10.386719 5.085938 10.4375 4.421875 9.925781 3.933594 C 9.503906 3.535156 8.84375 3.382812 8.332031 3.382812 L 8.113281 3.382812 C 7.175781 3.441406 6.1875 3.855469 5.96875 5.046875 C 5.929688 5.199219 6.042969 5.253906 6.113281 5.273438 L 7.140625 5.40625 C 7.25 5.386719 7.304688 5.292969 7.324219 5.199219 C 7.417969 4.78125 7.746094 4.574219 8.113281 4.535156 L 8.1875 4.535156 C 8.40625 4.535156 8.644531 4.632812 8.773438 4.820312 C 8.917969 5.046875 8.898438 5.347656 8.898438 5.613281 L 8.898438 5.765625 C 8.664062 5.785156 8.386719 5.800781 8.113281 5.839844 Z M 8.902344 6.859375 C 8.902344 7.296875 8.917969 7.636719 8.699219 8.011719 C 8.570312 8.277344 8.351562 8.445312 8.113281 8.503906 C 8.074219 8.503906 8.019531 8.523438 7.964844 8.523438 C 7.5625 8.523438 7.324219 8.203125 7.324219 7.730469 C 7.324219 7.125 7.671875 6.839844 8.113281 6.710938 C 8.351562 6.652344 8.625 6.632812 8.902344 6.632812 Z M 12.277344 12.164062 C 12.722656 11.773438 12.914062 11.066406 12.921875 10.695312 L 12.921875 10.632812 C 12.921875 10.550781 12.902344 10.492188 12.882812 10.460938 C 12.792969 10.347656 12.136719 10.246094 11.570312 10.417969 C 11.410156 10.46875 11.269531 10.542969 11.140625 10.632812 C 11.042969 10.707031 11.0625 10.796875 11.160156 10.789062 C 11.269531 10.765625 11.410156 10.757812 11.570312 10.738281 C 11.917969 10.707031 12.324219 10.695312 12.425781 10.828125 C 12.5625 11.003906 12.265625 11.761719 12.136719 12.089844 C 12.097656 12.195312 12.1875 12.234375 12.277344 12.164062 Z M 3.125 10.695312 C 4.410156 11.898438 6.101562 12.617188 7.996094 12.617188 C 9.167969 12.617188 10.523438 12.277344 11.570312 11.628906 C 11.707031 11.546875 11.847656 11.457031 11.976562 11.351562 C 12.15625 11.21875 11.996094 11.015625 11.816406 11.097656 C 11.738281 11.125 11.648438 11.167969 11.570312 11.199219 C 10.421875 11.660156 9.21875 11.875 8.105469 11.875 C 6.332031 11.875 4.621094 11.375 3.234375 10.542969 C 3.105469 10.46875 3.015625 10.605469 3.125 10.695312 Z M 3.125 10.695312 "/>
</g>
</svg>
