<?xml version="1.0" encoding="UTF-8"?>
<svg xmlns="http://www.w3.org/2000/svg" xmlns:xlink="http://www.w3.org/1999/xlink" width="16pt" height="16pt" viewBox="0 0 16 16" version="1.1">
<g id="surface1">
<path style=" stroke:none;fill-rule:nonzero;fill:rgb(97.647059%,40%,55.294118%);fill-opacity:1;" d="M 8.035156 15.871094 C 3.753906 15.863281 0.242188 12.386719 0.261719 7.984375 C 0.289062 3.648438 3.773438 0.144531 8.128906 0.195312 C 12.347656 0.242188 15.832031 3.695312 15.796875 8.101562 C 15.765625 12.414062 12.308594 15.855469 8.035156 15.871094 Z M 8.03125 15.253906 C 11.914062 15.261719 15.136719 12.105469 15.183594 8.121094 C 15.230469 4.015625 11.957031 0.839844 8.109375 0.804688 C 4.160156 0.769531 0.898438 3.964844 0.878906 7.96875 C 0.859375 12.019531 4.054688 15.253906 8.03125 15.253906 Z M 8.03125 15.253906 "/>
<path style=" stroke:none;fill-rule:nonzero;fill:rgb(97.647059%,39.607843%,54.901961%);fill-opacity:1;" d="M 4.273438 8.179688 C 4.273438 6.632812 4.273438 5.085938 4.273438 3.539062 C 4.273438 2.910156 4.664062 2.511719 5.296875 2.511719 C 7.257812 2.507812 9.210938 2.511719 11.171875 2.511719 C 11.351562 2.511719 11.523438 2.539062 11.6875 2.617188 C 11.984375 2.753906 12.074219 3.019531 12.089844 3.320312 C 12.105469 3.597656 12.054688 3.867188 12 4.136719 C 11.675781 5.714844 11.351562 7.292969 11.027344 8.871094 C 10.976562 9.109375 10.9375 9.351562 10.8125 9.570312 C 10.648438 9.851562 10.390625 9.976562 10.070312 9.976562 C 9.535156 9.980469 9 9.988281 8.460938 9.976562 C 8.273438 9.972656 8.148438 10.03125 8.035156 10.171875 C 7.378906 10.957031 6.710938 11.738281 6.054688 12.519531 C 5.839844 12.769531 5.628906 13.019531 5.421875 13.273438 C 5.246094 13.484375 5.035156 13.597656 4.753906 13.546875 C 4.488281 13.496094 4.320312 13.320312 4.289062 13.054688 C 4.273438 12.960938 4.277344 12.867188 4.277344 12.773438 C 4.273438 11.238281 4.273438 9.707031 4.273438 8.179688 Z M 5.539062 11.417969 C 5.714844 11.191406 5.882812 10.980469 6.046875 10.769531 C 6.492188 10.195312 6.941406 9.621094 7.382812 9.042969 C 7.539062 8.839844 7.71875 8.730469 7.992188 8.742188 C 8.496094 8.757812 9.003906 8.746094 9.507812 8.746094 C 9.738281 8.746094 9.859375 8.648438 9.898438 8.445312 C 9.976562 8.039062 10.058594 7.636719 10.136719 7.234375 C 10.195312 6.945312 10.0625 6.785156 9.765625 6.785156 C 9.21875 6.785156 8.671875 6.773438 8.125 6.789062 C 7.492188 6.804688 7.445312 6.582031 7.472656 6.078125 C 7.476562 5.933594 7.554688 5.835938 7.683594 5.773438 C 7.777344 5.730469 7.882812 5.722656 7.992188 5.722656 C 8.699219 5.722656 9.40625 5.722656 10.117188 5.722656 C 10.367188 5.722656 10.488281 5.621094 10.539062 5.375 C 10.617188 4.992188 10.691406 4.609375 10.769531 4.226562 C 10.835938 3.894531 10.726562 3.757812 10.382812 3.757812 C 8.898438 3.757812 7.414062 3.757812 5.929688 3.757812 C 5.585938 3.757812 5.511719 3.835938 5.511719 4.179688 C 5.511719 6.53125 5.511719 8.878906 5.511719 11.226562 C 5.507812 11.28125 5.492188 11.335938 5.539062 11.417969 Z M 5.539062 11.417969 "/>
</g>
</svg>
