<?xml version="1.0" encoding="UTF-8"?>
<svg xmlns="http://www.w3.org/2000/svg" xmlns:xlink="http://www.w3.org/1999/xlink" width="16pt" height="16pt" viewBox="0 0 16 16" version="1.1">
<defs>
<linearGradient id="linear0" gradientUnits="userSpaceOnUse" x1="146.4465" y1="853.5535" x2="853.5535" y2="146.4465" gradientTransform="matrix(0.016,0,0,0.016,0,0)">
<stop offset="0" style="stop-color:rgb(100%,83.529412%,12.941176%);stop-opacity:1;"/>
<stop offset="0.0551048" style="stop-color:rgb(100%,81.568627%,12.54902%);stop-opacity:1;"/>
<stop offset="0.1241" style="stop-color:rgb(99.607843%,75.294118%,11.764706%);stop-opacity:1;"/>
<stop offset="0.2004" style="stop-color:rgb(98.823529%,65.490196%,10.588235%);stop-opacity:1;"/>
<stop offset="0.2821" style="stop-color:rgb(98.039216%,51.372549%,8.627451%);stop-opacity:1;"/>
<stop offset="0.3681" style="stop-color:rgb(97.254902%,33.333333%,6.27451%);stop-opacity:1;"/>
<stop offset="0.4563" style="stop-color:rgb(96.078431%,11.764706%,3.529412%);stop-opacity:1;"/>
<stop offset="0.5" style="stop-color:rgb(95.294118%,0%,1.960784%);stop-opacity:1;"/>
<stop offset="0.5035" style="stop-color:rgb(94.901961%,0%,2.745098%);stop-opacity:1;"/>
<stop offset="0.5966" style="stop-color:rgb(88.235294%,0%,23.137255%);stop-opacity:1;"/>
<stop offset="0.6879" style="stop-color:rgb(82.745098%,0%,40.392157%);stop-opacity:1;"/>
<stop offset="0.7757" style="stop-color:rgb(78.039216%,0%,53.333333%);stop-opacity:1;"/>
<stop offset="0.8589" style="stop-color:rgb(74.901961%,0%,62.745098%);stop-opacity:1;"/>
<stop offset="0.9357" style="stop-color:rgb(73.333333%,0%,68.627451%);stop-opacity:1;"/>
<stop offset="1" style="stop-color:rgb(72.54902%,0%,70.588235%);stop-opacity:1;"/>
</linearGradient>
</defs>
<g id="surface1">
<path style=" stroke:none;fill-rule:nonzero;fill:url(#linear0);" d="M 8 16 C 3.582031 16 0 12.417969 0 8 C 0 3.582031 3.582031 0 8 0 C 12.417969 0 16 3.582031 16 8 C 16 12.417969 12.417969 16 8 16 Z M 8 16 "/>
<path style=" stroke:none;fill-rule:nonzero;fill:rgb(100%,100%,100%);fill-opacity:1;" d="M 8 3.523438 C 9.457031 3.523438 9.628906 3.527344 10.207031 3.554688 C 10.738281 3.578125 11.027344 3.667969 11.222656 3.742188 C 11.476562 3.84375 11.65625 3.960938 11.847656 4.152344 C 12.039062 4.34375 12.15625 4.523438 12.257812 4.777344 C 12.332031 4.972656 12.417969 5.261719 12.445312 5.792969 C 12.46875 6.371094 12.476562 6.542969 12.476562 8 C 12.476562 9.457031 12.472656 9.628906 12.445312 10.207031 C 12.421875 10.738281 12.332031 11.027344 12.257812 11.222656 C 12.15625 11.476562 12.039062 11.65625 11.847656 11.847656 C 11.65625 12.039062 11.476562 12.15625 11.222656 12.257812 C 11.027344 12.332031 10.738281 12.417969 10.207031 12.445312 C 9.628906 12.46875 9.457031 12.476562 8 12.476562 C 6.542969 12.476562 6.371094 12.472656 5.792969 12.445312 C 5.261719 12.421875 4.972656 12.332031 4.777344 12.257812 C 4.523438 12.15625 4.34375 12.039062 4.152344 11.847656 C 3.960938 11.65625 3.84375 11.476562 3.742188 11.222656 C 3.667969 11.027344 3.582031 10.738281 3.554688 10.207031 C 3.53125 9.628906 3.523438 9.457031 3.523438 8 C 3.523438 6.542969 3.527344 6.371094 3.554688 5.792969 C 3.578125 5.261719 3.667969 4.972656 3.742188 4.777344 C 3.84375 4.523438 3.960938 4.34375 4.152344 4.152344 C 4.34375 3.960938 4.523438 3.84375 4.777344 3.742188 C 4.972656 3.667969 5.261719 3.582031 5.792969 3.554688 C 6.371094 3.527344 6.542969 3.523438 8 3.523438 M 8 2.539062 C 6.515625 2.539062 6.332031 2.546875 5.75 2.574219 C 5.167969 2.601562 4.769531 2.691406 4.421875 2.828125 C 4.0625 2.964844 3.757812 3.152344 3.457031 3.457031 C 3.152344 3.761719 2.964844 4.0625 2.824219 4.425781 C 2.691406 4.769531 2.597656 5.167969 2.570312 5.75 C 2.542969 6.332031 2.539062 6.519531 2.539062 8 C 2.539062 9.484375 2.542969 9.671875 2.570312 10.253906 C 2.597656 10.832031 2.691406 11.230469 2.824219 11.578125 C 2.964844 11.9375 3.152344 12.242188 3.457031 12.542969 C 3.761719 12.847656 4.0625 13.035156 4.425781 13.175781 C 4.769531 13.308594 5.167969 13.402344 5.75 13.429688 C 6.332031 13.457031 6.519531 13.460938 8 13.460938 C 9.484375 13.460938 9.671875 13.457031 10.253906 13.429688 C 10.832031 13.402344 11.230469 13.308594 11.578125 13.175781 C 11.9375 13.035156 12.242188 12.847656 12.542969 12.542969 C 12.847656 12.238281 13.035156 11.9375 13.175781 11.574219 C 13.308594 11.230469 13.402344 10.832031 13.429688 10.25 C 13.457031 9.667969 13.460938 9.480469 13.460938 8 C 13.460938 6.515625 13.457031 6.328125 13.429688 5.746094 C 13.402344 5.167969 13.308594 4.769531 13.175781 4.421875 C 13.035156 4.0625 12.847656 3.757812 12.542969 3.457031 C 12.238281 3.152344 11.9375 2.964844 11.574219 2.824219 C 11.230469 2.691406 10.832031 2.597656 10.25 2.570312 C 9.667969 2.546875 9.484375 2.539062 8 2.539062 Z M 8 2.539062 "/>
<path style=" stroke:none;fill-rule:nonzero;fill:rgb(100%,100%,100%);fill-opacity:1;" d="M 8 5.195312 C 6.453125 5.195312 5.195312 6.453125 5.195312 8 C 5.195312 9.546875 6.453125 10.804688 8 10.804688 C 9.546875 10.804688 10.804688 9.546875 10.804688 8 C 10.804688 6.453125 9.546875 5.195312 8 5.195312 Z M 8 9.820312 C 6.996094 9.820312 6.179688 9.007812 6.179688 8 C 6.179688 6.992188 6.996094 6.179688 8 6.179688 C 9.003906 6.179688 9.820312 6.992188 9.820312 8 C 9.820312 9.007812 9.003906 9.820312 8 9.820312 Z M 8 9.820312 "/>
<path style=" stroke:none;fill-rule:nonzero;fill:rgb(100%,100%,100%);fill-opacity:1;" d="M 11.570312 5.085938 C 11.570312 5.445312 11.277344 5.742188 10.914062 5.742188 C 10.554688 5.742188 10.257812 5.445312 10.257812 5.085938 C 10.257812 4.722656 10.554688 4.429688 10.914062 4.429688 C 11.277344 4.429688 11.570312 4.722656 11.570312 5.085938 Z M 11.570312 5.085938 "/>
</g>
</svg>
