<?xml version="1.0" encoding="UTF-8"?>
<svg xmlns="http://www.w3.org/2000/svg" xmlns:xlink="http://www.w3.org/1999/xlink" width="16pt" height="16pt" viewBox="0 0 16 16" version="1.1">
<g id="surface1">
<path style=" stroke:none;fill-rule:nonzero;fill:rgb(0%,47.843137%,72.54902%);fill-opacity:1;" d="M 16 8 C 16 12.417969 12.417969 16 8 16 C 3.582031 16 0 12.417969 0 8 C 0 3.582031 3.582031 0 8 0 C 12.417969 0 16 3.582031 16 8 Z M 16 8 "/>
<path style=" stroke:none;fill-rule:nonzero;fill:rgb(94.509804%,94.901961%,94.901961%);fill-opacity:1;" d="M 12.78125 8.644531 L 12.78125 11.941406 L 10.867188 11.941406 L 10.867188 8.863281 C 10.867188 8.09375 10.589844 7.5625 9.898438 7.5625 C 9.371094 7.5625 9.058594 7.917969 8.917969 8.261719 C 8.867188 8.386719 8.855469 8.558594 8.855469 8.730469 L 8.855469 11.941406 L 6.941406 11.941406 C 6.941406 11.941406 6.96875 6.730469 6.941406 6.191406 L 8.855469 6.191406 L 8.855469 7.003906 C 8.851562 7.011719 8.847656 7.019531 8.84375 7.023438 L 8.855469 7.023438 L 8.855469 7.003906 C 9.109375 6.613281 9.5625 6.054688 10.578125 6.054688 C 11.835938 6.054688 12.78125 6.878906 12.78125 8.644531 Z M 4.941406 3.417969 C 4.289062 3.417969 3.859375 3.847656 3.859375 4.410156 C 3.859375 4.964844 4.277344 5.40625 4.917969 5.40625 L 4.929688 5.40625 C 5.597656 5.40625 6.011719 4.964844 6.011719 4.410156 C 6 3.847656 5.597656 3.417969 4.941406 3.417969 Z M 3.972656 11.941406 L 5.886719 11.941406 L 5.886719 6.191406 L 3.972656 6.191406 Z M 3.972656 11.941406 "/>
</g>
</svg>
