<?xml version="1.0" encoding="UTF-8"?>
<svg xmlns="http://www.w3.org/2000/svg" xmlns:xlink="http://www.w3.org/1999/xlink" width="16pt" height="16pt" viewBox="0 0 16 16" version="1.1">
<g id="surface1">
<path style=" stroke:none;fill-rule:nonzero;fill:rgb(92.941176%,10.980392%,25.098039%);fill-opacity:1;" d="M 8 0.613281 C 3.921875 0.613281 0.613281 3.921875 0.613281 8 C 0.613281 12.078125 3.921875 15.386719 8 15.386719 C 12.078125 15.386719 15.386719 12.078125 15.386719 8 C 15.386719 3.921875 12.078125 0.613281 8 0.613281 Z M 11.855469 11.023438 C 11.765625 11.121094 11.617188 11.199219 11.46875 11.238281 C 11.066406 11.339844 10.59375 11.234375 10.21875 11.066406 C 9.027344 10.542969 9.289062 9.214844 9.8125 8.296875 C 9.96875 8.023438 10.125 7.746094 10.28125 7.46875 C 10.402344 7.25 10.667969 6.878906 10.566406 6.609375 C 10.457031 6.328125 10.164062 6.328125 9.972656 6.566406 C 9.789062 6.792969 9.632812 7.121094 9.507812 7.386719 C 9.367188 7.675781 8.675781 9.195312 8.675781 9.195312 C 8.550781 9.441406 8.332031 9.796875 8.101562 9.992188 C 7.925781 10.140625 7.609375 10.183594 7.398438 10.03125 C 7.238281 9.914062 7.207031 9.761719 7.238281 9.582031 C 7.382812 8.757812 8.636719 6.835938 7.773438 6.699219 C 7.441406 6.648438 7.351562 7.019531 7.25 7.253906 C 7.082031 7.640625 6.953125 8.046875 6.773438 8.429688 C 6.5625 8.871094 6.40625 9.328125 6.296875 9.800781 C 6.210938 10.179688 6.097656 10.664062 5.664062 10.777344 C 4.488281 11.09375 4.128906 10.316406 4.128906 10.316406 C 3.933594 9.703125 4.117188 9.152344 4.304688 8.5625 C 4.445312 8.105469 4.53125 7.636719 4.714844 7.195312 C 5.039062 6.40625 5.359375 4.757812 6.527344 4.863281 C 6.824219 4.890625 7.15625 5.039062 7.414062 5.191406 C 7.648438 5.328125 7.828125 5.398438 8.097656 5.253906 C 8.363281 5.109375 8.484375 4.84375 8.800781 4.753906 C 9.140625 4.65625 9.363281 4.800781 9.613281 5.003906 C 9.96875 5.289062 10.007812 5.160156 10.300781 5.085938 C 10.542969 5.023438 10.824219 4.996094 11.089844 5.039062 C 12.460938 5.273438 11.589844 7.019531 11.261719 7.722656 C 11.050781 8.179688 10.035156 10.015625 10.933594 10.265625 C 11.203125 10.339844 11.554688 10.304688 11.78125 10.5 C 12.007812 10.695312 11.988281 10.882812 11.855469 11.023438 Z M 11.855469 11.023438 "/>
</g>
</svg>
