<?xml version="1.0" encoding="UTF-8"?>
<svg xmlns="http://www.w3.org/2000/svg" xmlns:xlink="http://www.w3.org/1999/xlink" width="16pt" height="16pt" viewBox="0 0 16 16" version="1.1">
<g id="surface1">
<path style=" stroke:none;fill-rule:evenodd;fill:rgb(30.196078%,51.372549%,72.941176%);fill-opacity:1;" d="M 5.921875 6.277344 L 5.921875 7.609375 L 6.585938 7.609375 L 6.585938 9.605469 C 6.640625 11.242188 7.539062 11.582031 8.585938 11.695312 C 9.195312 11.664062 9.941406 11.4375 10.316406 11.140625 L 10.316406 10.007812 C 9.832031 10.480469 8.53125 10.941406 8.296875 9.605469 L 8.273438 7.585938 L 10.316406 7.609375 L 10.316406 6.253906 L 8.273438 6.253906 L 8.320312 4.542969 L 7.496094 4.566406 C 7.554688 6.023438 6.777344 6.21875 5.921875 6.277344 Z M 8.121094 15.285156 C 4.164062 15.285156 0.957031 12.074219 0.957031 8.121094 C 0.957031 4.164062 4.164062 0.957031 8.121094 0.957031 C 12.074219 0.957031 15.285156 4.164062 15.285156 8.121094 C 15.285156 12.074219 12.074219 15.285156 8.121094 15.285156 Z M 8.121094 15.285156 "/>
</g>
</svg>
